<svg width="208" height="43" viewBox="0 0 208 43" fill="none" xmlns="http://www.w3.org/2000/svg">
<path d="M35.9232 14.5068C35.6865 14.0052 35.4689 13.5035 35.2133 13.0256C34.9223 12.505 34.5603 12.0602 33.9451 11.8804C33.7931 11.827 33.6287 11.8196 33.4726 11.8592C33.3164 11.8987 33.1754 11.9835 33.0672 12.1028C32.7919 12.3907 32.5628 12.7196 32.3881 13.0776C31.8203 14.1448 31.2713 15.2237 30.6963 16.2885C30.3028 17.0692 29.7804 17.7779 29.1512 18.3849C29.079 17.9748 29.079 17.5552 29.1512 17.145C29.208 16.563 29.3311 15.988 29.2388 15.3941C29.1039 14.547 28.5857 14.0407 27.7292 13.9744C27.3707 13.9528 27.011 13.9655 26.655 14.0123C26.1297 14.0809 25.602 14.1164 25.0744 14.1613C25.0247 14.1613 24.9608 14.1755 24.9158 14.0572C24.9797 13.8892 25.1525 13.7757 25.3086 13.6455C26.0705 12.9806 26.9649 12.5169 27.8475 12.046C28.6638 11.6106 29.5038 11.1966 30.3107 10.7612C30.5418 10.6327 30.7625 10.4864 30.9708 10.3234C31.5884 9.86205 31.444 9.29891 31.1767 8.87063C30.939 8.50239 30.6029 8.20811 30.2065 8.02119C29.951 7.89578 29.7026 7.75855 29.447 7.64024C29.1915 7.52193 28.9738 7.44148 28.6094 7.29715C29.4084 7.07593 30.2539 7.08742 31.0465 7.33027C32.9394 7.92418 34.3142 9.16877 35.3316 10.8464C36.0009 11.9418 36.2133 13.2563 35.9232 14.5068Z" fill="#F47637"/>
<path d="M16.528 6.25399C17.0918 5.27889 18.004 4.55351 19.0811 4.22384C20.7285 3.6762 22.509 3.6762 24.1564 4.22384C25.1955 4.55173 26.0822 5.24196 26.6551 6.16881C26.4682 6.26819 26.3333 6.11439 26.1819 6.05997C25.6751 5.85061 25.1488 5.69209 24.6107 5.58674C24.3107 5.5359 24.0025 5.56361 23.7163 5.66719C23.1106 5.87778 22.8905 6.25636 23.0065 6.89995C23.1863 7.96709 23.5886 8.97033 23.9104 9.99724C24.1969 10.8574 24.4261 11.7356 24.5965 12.626C24.664 13.0075 24.6479 13.399 24.5492 13.7736C24.2582 13.4352 23.96 13.104 23.6785 12.7585C23.3785 12.3452 23.0332 11.9666 22.6492 11.6299C22.374 11.376 22.0141 11.2337 21.6397 11.2307C21.2653 11.2276 20.9031 11.364 20.6238 11.6133C20.3306 11.8528 20.0683 12.1278 19.843 12.432C19.4801 12.9327 19.0722 13.3992 18.6244 13.8257C18.5763 13.3422 18.5995 12.8543 18.693 12.3776C18.9253 11.3061 19.2249 10.2503 19.5898 9.21641C19.7791 8.62251 19.9494 8.03334 20.1364 7.4276C20.2084 7.19225 20.2443 6.94732 20.2428 6.7012C20.2428 6.11676 20.0535 5.84702 19.4904 5.66009C19.0118 5.53368 18.5057 5.55931 18.0423 5.73344C17.536 5.88251 17.0509 6.08836 16.528 6.25399Z" fill="#108DCD"/>
<path d="M16.4284 36.4009C17.0483 36.6375 17.5405 36.8055 18.0326 36.9806C18.4244 37.1312 18.8498 37.1721 19.263 37.0989C19.8498 36.9829 20.3373 36.7227 20.2473 35.9016C20.1794 35.4188 20.0662 34.9434 19.909 34.4819C19.5848 33.4148 19.237 32.3524 18.9176 31.29C18.672 30.5201 18.5694 29.7117 18.6147 28.9049C18.9173 29.1606 19.191 29.4487 19.431 29.7638C19.7199 30.1609 20.0361 30.5372 20.3775 30.8901C21.2198 31.6851 22.0338 31.6851 22.8738 30.8901C23.1678 30.5969 23.4376 30.2804 23.6806 29.9436C23.9527 29.5818 24.2568 29.2453 24.5892 28.938C24.685 29.3033 24.685 29.6872 24.5892 30.0525C24.3755 31.2039 24.0668 32.3356 23.6664 33.4361C23.3922 34.1805 23.1747 34.9445 23.0157 35.7218C22.8738 36.5783 23.2523 37.0539 24.116 37.1415C24.8424 37.2053 25.4836 36.9048 26.1414 36.6682C26.3165 36.6067 26.4845 36.5215 26.7613 36.4032C26.6568 36.6427 26.5102 36.8615 26.3283 37.0492C25.5684 37.9059 24.5471 38.488 23.4227 38.7055C21.9958 39.0292 20.5079 38.9613 19.1163 38.5091C18.0232 38.1423 17.169 37.4585 16.4284 36.4009Z" fill="#F47537"/>
<path d="M7.20289 14.3554C6.92133 13.2678 7.059 12.1141 7.58857 11.1233C8.35692 9.58769 9.60219 8.34242 11.1378 7.57407C12.164 7.04443 13.3465 6.90166 14.4693 7.17183L12.9763 7.88167C12.601 8.06166 12.2759 8.33149 12.0298 8.66723C11.5566 9.29426 11.6323 9.80534 12.2522 10.2833C12.7142 10.6129 13.2043 10.9011 13.7169 11.1446C14.6397 11.6178 15.5814 12.0626 16.4758 12.595C17.1629 12.9669 17.7815 13.4535 18.3048 14.0336C17.6987 14.0311 17.0936 13.9829 16.4947 13.8893C16.1381 13.8405 15.7775 13.827 15.4181 13.8491C14.4977 13.9106 13.9346 14.4879 13.8636 15.4107C13.8068 16.1726 14.0032 16.9156 14.0245 17.6704C14.0245 17.8408 14.0481 18.0088 14.0623 18.2075C13.8092 18.1697 13.7003 17.9709 13.5702 17.8337C12.8982 17.0789 12.4321 16.1892 11.9636 15.3019C11.5306 14.4832 11.1141 13.6456 10.6811 12.8387C10.5195 12.5166 10.307 12.2225 10.0517 11.968C9.9415 11.8502 9.79892 11.7676 9.6419 11.7305C9.48488 11.6935 9.32041 11.7037 9.16915 11.7598C8.90062 11.8529 8.65332 11.9986 8.44167 12.1883C8.23002 12.378 8.05825 12.608 7.93639 12.8648C7.67375 13.3427 7.4537 13.842 7.20289 14.3554Z" fill="#F36C38"/>
<path d="M18.442 28.822C18.1887 29.1411 17.8897 29.4209 17.5547 29.6525C16.667 30.2615 15.7326 30.7995 14.7603 31.2615C14.2728 31.4981 13.7807 31.7466 13.2909 31.9879C12.9738 32.1938 12.6426 32.3807 12.3444 32.6126C11.8428 33.003 11.7671 33.4502 12.0747 34.0134C12.3064 34.4075 12.6509 34.7231 13.0637 34.9196C13.5394 35.1818 14.0337 35.4088 14.5426 35.5987C14.5213 35.8211 14.3651 35.7312 14.2799 35.743C12.4509 36.0056 10.9508 35.2887 9.61152 34.134C8.80533 33.4408 8.15327 32.5864 7.69731 31.6259C7.19513 30.6394 7.05849 29.5069 7.31163 28.4292C7.52221 28.5286 7.51985 28.725 7.579 28.8694C7.74123 29.2765 7.93178 29.6719 8.14924 30.0524C8.33733 30.4049 8.61372 30.7025 8.95137 30.9161C9.52397 31.2592 9.97354 31.1882 10.3947 30.6795C10.7635 30.1772 11.0806 29.6389 11.3412 29.0728C11.8144 28.169 12.2427 27.2414 12.7609 26.3636C12.8389 26.2335 12.9312 26.1152 13.0164 25.9898C13.3038 25.4555 13.6817 24.9752 14.1332 24.5701C14.2078 24.9776 14.2078 25.3953 14.1332 25.8028C14.0741 26.4204 13.9416 27.0309 14.0528 27.6603C14.0939 28.0121 14.2597 28.3375 14.5201 28.5776C14.7806 28.8176 15.1185 28.9564 15.4725 28.9687C16.0002 29.0102 16.5311 28.9864 17.053 28.8977C17.5128 28.8309 17.9777 28.8055 18.442 28.822Z" fill="#108DCD"/>
<path d="M13.1135 23.7013C13.388 23.9379 13.653 24.1745 13.9156 24.4111C13.8423 24.6193 13.679 24.5389 13.5725 24.5389C12.7043 24.5084 11.8455 24.3489 11.0242 24.0656C10.1038 23.7912 9.1857 23.5167 8.29129 23.1618C7.85592 23.1263 7.45841 22.9252 7.01594 22.9039C6.24694 22.8636 5.8589 23.1949 5.78082 23.9639C5.70273 24.7329 5.98667 25.3836 6.23512 26.0485C6.3444 26.2471 6.41807 26.4633 6.4528 26.6873C5.52022 26.1058 4.81276 25.2248 4.44631 24.1887C3.83229 22.4615 3.83229 20.5755 4.44631 18.8483C4.73734 17.9965 5.51817 16.8702 6.48829 16.3851C6.27297 16.9317 6.06712 17.4333 5.90385 17.9492C5.78066 18.3307 5.74428 18.7349 5.79738 19.1322C5.87073 19.7214 6.20436 20.2916 7.07037 20.1473C7.51993 20.074 7.94347 19.9107 8.39777 19.8586C10.1842 19.2316 11.947 18.5241 13.9487 18.5856C13.6932 18.8223 13.4471 19.0589 13.1845 19.2837C12.8698 19.5558 12.5267 19.7924 12.2215 20.074C11.1425 21.0796 11.1354 21.955 12.2025 22.9583C12.4865 23.2162 12.8106 23.4457 13.1135 23.7013Z" fill="url(#paint0_linear_1719_3)"/>
<path d="M38.8453 24.0303C38.4994 25.1025 37.7994 26.0252 36.8601 26.6473C36.7442 26.458 36.879 26.3373 36.9335 26.2096C37.1485 25.7254 37.3157 25.2214 37.4327 24.7047C37.5512 24.2406 37.4823 23.7485 37.2411 23.3347C37.1679 23.2021 37.0602 23.0918 36.9294 23.0156C36.7986 22.9393 36.6495 22.9 36.4981 22.9017C36.013 22.8851 35.5729 23.0815 35.1044 23.1383C33.7058 23.6526 32.2791 24.0871 30.8312 24.4397C30.2959 24.5275 29.7565 24.5883 29.2151 24.6219C29.4209 24.2244 29.7948 23.9949 30.119 23.718C30.5113 23.4252 30.8859 23.1091 31.2405 22.7716C32.0119 21.9458 32.0166 21.146 31.2405 20.3226C30.903 19.9933 30.5441 19.6866 30.1663 19.4045C29.8516 19.1443 29.5511 18.8698 29.1678 18.5338C29.7803 18.4727 30.3987 18.5208 30.9944 18.6758C32.1146 18.9493 33.2202 19.2794 34.307 19.6648C34.6478 19.7737 34.9885 19.8872 35.3268 20.0008C35.6226 20.0576 35.9184 20.1262 36.2165 20.1688C36.8033 20.2516 37.163 20.041 37.3665 19.4873C37.4981 19.1297 37.5212 18.7412 37.4327 18.3705C37.3198 17.8926 37.1695 17.4242 36.9831 16.9698C36.8829 16.8146 36.8295 16.6339 36.8293 16.4492C37.3408 16.7315 37.7785 17.1304 38.1071 17.6134C38.7601 18.4628 39.0417 19.4661 39.1695 20.5072C39.3225 21.6911 39.2118 22.8942 38.8453 24.0303Z" fill="url(#paint1_linear_1719_3)"/>
<path d="M35.7409 31.2827C35.0706 32.9398 33.8407 34.3095 32.265 35.1537C31.399 35.75 29.7569 36.0718 28.7158 35.731C28.7868 35.5796 28.9524 35.5701 29.0684 35.5133C29.4943 35.3122 29.932 35.1277 30.3437 34.8981C30.7865 34.671 31.1289 34.2872 31.3044 33.8215C31.3834 33.6482 31.403 33.4536 31.3602 33.268C31.3175 33.0823 31.2147 32.9159 31.0678 32.7946C30.6152 32.4228 30.1175 32.1096 29.5866 31.8624C28.6401 31.3702 27.6936 30.9278 26.7708 30.3954C26.0323 30.0012 25.3626 29.4898 24.788 28.881C25.486 28.7817 26.0894 28.926 26.6809 28.9993C27.0182 29.0434 27.359 29.0545 27.6984 29.0325C28.1101 29.0232 28.5013 28.8511 28.7865 28.554C29.0716 28.2569 29.2274 27.8589 29.2198 27.4472C29.1985 26.9384 29.1843 26.4297 29.1299 25.921C29.0849 25.4951 28.9122 25.0408 29.208 24.6267C30.6277 26.2286 31.4085 28.1972 32.3881 30.0523C32.5395 30.2652 32.6815 30.4876 32.8471 30.6911C33.3203 31.2827 33.8598 31.3379 34.4655 30.8568C34.7927 30.5984 35.0559 30.2681 35.2345 29.8914C35.3457 29.6548 35.4712 29.4182 35.5753 29.1815C35.6732 28.9395 35.7912 28.706 35.9278 28.4835C36.0722 29.4323 36.1242 30.3788 35.7409 31.2827Z" fill="#108DCD"/>
<path d="M23.2027 1.75805C23.2046 1.9856 23.1612 2.21126 23.0749 2.42183C22.9886 2.63241 22.8612 2.82368 22.7002 2.98449C22.5392 3.14529 22.3477 3.2724 22.137 3.35839C21.9263 3.44439 21.7006 3.48754 21.4731 3.48533C21.0217 3.46452 20.596 3.26931 20.2857 2.94083C19.9754 2.61234 19.8047 2.17624 19.8096 1.72439C19.8145 1.27255 19.9946 0.840249 20.312 0.518582C20.6294 0.196915 21.0592 0.0109969 21.5109 0C21.7384 0.00113866 21.9633 0.0478841 22.1724 0.137473C22.3815 0.227062 22.5705 0.357676 22.7283 0.521585C22.886 0.685495 23.0093 0.879373 23.0908 1.09175C23.1723 1.30413 23.2103 1.53069 23.2027 1.75805Z" fill="#189CD8"/>
<path d="M9.34883 7.50052C9.34317 7.84067 9.23677 8.17151 9.04309 8.4512C8.84942 8.73089 8.57716 8.94687 8.26074 9.07183C7.94432 9.19679 7.59795 9.22513 7.26543 9.15325C6.93291 9.08137 6.62917 8.91251 6.39262 8.66801C6.15606 8.42352 5.99731 8.11437 5.93645 7.77966C5.87558 7.44494 5.91533 7.0997 6.05067 6.78758C6.186 6.47546 6.41085 6.21047 6.69678 6.02613C6.98271 5.84179 7.31688 5.74637 7.65704 5.75194C7.88407 5.75181 8.1088 5.79738 8.31785 5.88593C8.5269 5.97448 8.71598 6.1042 8.87385 6.26736C9.03171 6.43052 9.15512 6.62379 9.23672 6.83565C9.31832 7.0475 9.35645 7.27362 9.34883 7.50052Z" fill="#F47F34"/>
<path d="M37.2908 35.5772C37.2955 35.8035 37.2538 36.0285 37.1682 36.2381C37.0826 36.4477 36.9549 36.6376 36.793 36.7959C36.6311 36.9542 36.4385 37.0777 36.227 37.1586C36.0156 37.2396 35.7897 37.2763 35.5635 37.2666C35.3369 37.2679 35.1123 37.2238 34.9031 37.1369C34.6938 37.05 34.504 36.922 34.345 36.7606C34.186 36.5992 34.0609 36.4075 33.9772 36.1969C33.8935 35.9863 33.8528 35.7611 33.8575 35.5346C33.8638 35.0769 34.0514 34.6404 34.3793 34.3209C34.7072 34.0015 35.1484 33.8253 35.6061 33.8309C35.8326 33.8308 36.0568 33.8763 36.2654 33.9648C36.4739 34.0533 36.6624 34.1829 36.8197 34.3459C36.9769 34.5089 37.0997 34.702 37.1807 34.9135C37.2616 35.1251 37.2991 35.3508 37.2908 35.5772Z" fill="#1493D2"/>
<path d="M23.2145 41.282C23.2145 41.7376 23.0335 42.1746 22.7114 42.4967C22.3892 42.8189 21.9523 42.9999 21.4967 42.9999C21.0411 42.9999 20.6042 42.8189 20.282 42.4967C19.9599 42.1746 19.7789 41.7376 19.7789 41.282C19.7789 40.8264 19.9599 40.3895 20.282 40.0673C20.6042 39.7452 21.0411 39.5642 21.4967 39.5642C21.9523 39.5642 22.3892 39.7452 22.7114 40.0673C23.0335 40.3895 23.2145 40.8264 23.2145 41.282Z" fill="#F47D35"/>
<path d="M9.33713 35.5657C9.34225 35.7929 9.30056 36.0187 9.21466 36.2291C9.12875 36.4396 9.00046 36.63 8.83778 36.7887C8.67509 36.9474 8.48149 37.0709 8.26902 37.1516C8.05654 37.2322 7.82975 37.2683 7.60274 37.2575C7.37585 37.2592 7.15095 37.2151 6.94145 37.128C6.73195 37.0409 6.54215 36.9124 6.38337 36.7503C6.2246 36.5882 6.10009 36.3958 6.0173 36.1846C5.93451 35.9733 5.89512 35.7476 5.90148 35.5207C5.90332 35.2941 5.95008 35.07 6.03904 34.8615C6.128 34.653 6.25741 34.4641 6.41979 34.3059C6.58217 34.1478 6.77429 34.0233 6.98505 33.9398C7.19581 33.8563 7.42104 33.8154 7.6477 33.8195C7.87451 33.819 8.09909 33.8643 8.308 33.9526C8.51692 34.0409 8.70588 34.1705 8.86359 34.3335C9.0213 34.4965 9.14451 34.6896 9.22588 34.9014C9.30724 35.1131 9.34508 35.339 9.33713 35.5657Z" fill="#1597D4"/>
<path d="M1.711 23.2923C1.48441 23.2942 1.25972 23.2507 1.05021 23.1644C0.840691 23.0781 0.650594 22.9507 0.491135 22.7897C0.331676 22.6287 0.206088 22.4373 0.121783 22.227C0.037477 22.0167 -0.0038368 21.7916 0.00028002 21.565C0.000272264 21.3385 0.0451098 21.1143 0.132206 20.9052C0.219302 20.6962 0.346931 20.5064 0.507732 20.3469C0.668534 20.1875 0.859326 20.0614 1.0691 19.976C1.27887 19.8907 1.50346 19.8477 1.72993 19.8495C2.17545 19.8683 2.59633 20.0592 2.90404 20.3819C3.21175 20.7046 3.38232 21.1341 3.37987 21.58C3.37742 22.026 3.20214 22.4535 2.8909 22.7729C2.57965 23.0922 2.1567 23.2784 1.711 23.2923Z" fill="url(#paint2_linear_1719_3)"/>
<path d="M35.5776 9.18322C35.2385 9.17948 34.9081 9.07544 34.628 8.88422C34.3479 8.693 34.1307 8.42315 34.0037 8.10867C33.8767 7.7942 33.8457 7.44917 33.9144 7.11708C33.9832 6.78498 34.1488 6.48068 34.3902 6.24252C34.6317 6.00436 34.9382 5.843 35.2712 5.77877C35.6042 5.71454 35.9488 5.75032 36.2615 5.8816C36.5742 6.01288 36.8411 6.23379 37.0284 6.51648C37.2158 6.79917 37.3153 7.13099 37.3144 7.47013C37.3138 7.69692 37.2682 7.92135 37.1805 8.13046C37.0927 8.33957 36.9643 8.52923 36.8029 8.68849C36.6414 8.84775 36.45 8.97347 36.2397 9.05838C36.0294 9.14329 35.8044 9.18572 35.5776 9.18322Z" fill="#F47936"/>
<path d="M43.0688 22.2794C42.792 22.9064 42.314 23.2968 41.5805 23.2732C40.634 23.2968 39.9242 22.7266 39.7846 21.8535C39.7203 21.4428 39.8095 21.0228 40.0351 20.6737C40.2608 20.3245 40.6071 20.0707 41.0079 19.9606C41.7177 19.6956 42.3045 19.918 42.7801 20.4338C43.0153 20.6726 43.1696 20.9791 43.2213 21.3102C43.2731 21.6413 43.2198 21.9802 43.0688 22.2794Z" fill="url(#paint3_linear_1719_3)"/>
<path d="M56.7409 13.6973C56.7409 12.7453 56.9556 11.8913 57.3849 11.1353C57.8142 10.3699 58.3976 9.77258 59.1349 9.34325C59.8816 8.91392 60.7076 8.69925 61.6129 8.69925C62.6769 8.69925 63.6056 8.95592 64.3989 9.46925C65.1922 9.98259 65.7709 10.7106 66.1349 11.6533H64.6089C64.3382 11.0653 63.9462 10.6126 63.4329 10.2953C62.9289 9.97792 62.3222 9.81925 61.6129 9.81925C60.9316 9.81925 60.3202 9.97792 59.7789 10.2953C59.2376 10.6126 58.8129 11.0653 58.5049 11.6533C58.1969 12.2319 58.0429 12.9133 58.0429 13.6973C58.0429 14.4719 58.1969 15.1533 58.5049 15.7413C58.8129 16.3199 59.2376 16.7679 59.7789 17.0853C60.3202 17.4026 60.9316 17.5613 61.6129 17.5613C62.3222 17.5613 62.9289 17.4073 63.4329 17.0993C63.9462 16.7819 64.3382 16.3293 64.6089 15.7413H66.1349C65.7709 16.6746 65.1922 17.3979 64.3989 17.9113C63.6056 18.4153 62.6769 18.6673 61.6129 18.6673C60.7076 18.6673 59.8816 18.4573 59.1349 18.0373C58.3976 17.6079 57.8142 17.0153 57.3849 16.2593C56.9556 15.5033 56.7409 14.6493 56.7409 13.6973ZM69.3054 8.22325V18.5833H68.0314V8.22325H69.3054ZM78.4767 14.4533C78.4767 14.6959 78.4627 14.9526 78.4347 15.2233H72.3027C72.3493 15.9793 72.606 16.5719 73.0727 17.0013C73.5487 17.4213 74.1227 17.6313 74.7947 17.6313C75.3453 17.6313 75.8027 17.5053 76.1667 17.2533C76.54 16.9919 76.8013 16.6466 76.9507 16.2173H78.3227C78.1173 16.9546 77.7067 17.5566 77.0907 18.0233C76.4747 18.4806 75.7093 18.7093 74.7947 18.7093C74.0667 18.7093 73.4133 18.5459 72.8347 18.2193C72.2653 17.8926 71.8173 17.4306 71.4907 16.8333C71.164 16.2266 71.0007 15.5266 71.0007 14.7333C71.0007 13.9399 71.1593 13.2446 71.4767 12.6473C71.794 12.0499 72.2373 11.5926 72.8067 11.2753C73.3853 10.9486 74.048 10.7853 74.7947 10.7853C75.5227 10.7853 76.1667 10.9439 76.7267 11.2613C77.2867 11.5786 77.716 12.0173 78.0147 12.5773C78.3227 13.1279 78.4767 13.7533 78.4767 14.4533ZM77.1607 14.1873C77.1607 13.7019 77.0533 13.2866 76.8387 12.9413C76.624 12.5866 76.33 12.3206 75.9567 12.1433C75.5927 11.9566 75.1867 11.8633 74.7387 11.8633C74.0947 11.8633 73.544 12.0686 73.0867 12.4793C72.6387 12.8899 72.382 13.4593 72.3167 14.1873H77.1607ZM79.6823 14.7193C79.6823 13.9353 79.841 13.2493 80.1583 12.6613C80.4757 12.0639 80.9097 11.6019 81.4603 11.2753C82.0203 10.9486 82.641 10.7853 83.3223 10.7853C83.9943 10.7853 84.5777 10.9299 85.0723 11.2193C85.567 11.5086 85.9357 11.8726 86.1783 12.3113V10.9113H87.4663V18.5833H86.1783V17.1553C85.9263 17.6033 85.5483 17.9766 85.0443 18.2753C84.5497 18.5646 83.971 18.7093 83.3083 18.7093C82.627 18.7093 82.011 18.5413 81.4603 18.2053C80.9097 17.8693 80.4757 17.3979 80.1583 16.7913C79.841 16.1846 79.6823 15.4939 79.6823 14.7193ZM86.1783 14.7333C86.1783 14.1546 86.0617 13.6506 85.8283 13.2213C85.595 12.7919 85.2777 12.4653 84.8763 12.2413C84.4843 12.0079 84.0503 11.8913 83.5743 11.8913C83.0983 11.8913 82.6643 12.0033 82.2723 12.2273C81.8803 12.4513 81.5677 12.7779 81.3343 13.2073C81.101 13.6366 80.9843 14.1406 80.9843 14.7193C80.9843 15.3073 81.101 15.8206 81.3343 16.2593C81.5677 16.6886 81.8803 17.0199 82.2723 17.2533C82.6643 17.4773 83.0983 17.5893 83.5743 17.5893C84.0503 17.5893 84.4843 17.4773 84.8763 17.2533C85.2777 17.0199 85.595 16.6886 85.8283 16.2593C86.0617 15.8206 86.1783 15.3119 86.1783 14.7333ZM90.8933 12.1573C91.1173 11.7186 91.4346 11.3779 91.8453 11.1353C92.2653 10.8926 92.7739 10.7713 93.3713 10.7713V12.0873H93.0353C91.6073 12.0873 90.8933 12.8619 90.8933 14.4113V18.5833H89.6193V10.9113H90.8933V12.1573ZM96.1159 12.3393C96.3772 11.8819 96.7599 11.5086 97.2639 11.2193C97.7679 10.9299 98.3419 10.7853 98.9859 10.7853C99.6766 10.7853 100.297 10.9486 100.848 11.2753C101.399 11.6019 101.833 12.0639 102.15 12.6613C102.467 13.2493 102.626 13.9353 102.626 14.7193C102.626 15.4939 102.467 16.1846 102.15 16.7913C101.833 17.3979 101.394 17.8693 100.834 18.2053C100.283 18.5413 99.6672 18.7093 98.9859 18.7093C98.3232 18.7093 97.7399 18.5646 97.2359 18.2753C96.7412 17.9859 96.3679 17.6173 96.1159 17.1693V18.5833H94.8419V8.22325H96.1159V12.3393ZM101.324 14.7193C101.324 14.1406 101.207 13.6366 100.974 13.2073C100.741 12.7779 100.423 12.4513 100.022 12.2273C99.6299 12.0033 99.1959 11.8913 98.7199 11.8913C98.2532 11.8913 97.8192 12.0079 97.4179 12.2413C97.0259 12.4653 96.7086 12.7966 96.4659 13.2353C96.2326 13.6646 96.1159 14.1639 96.1159 14.7333C96.1159 15.3119 96.2326 15.8206 96.4659 16.2593C96.7086 16.6886 97.0259 17.0199 97.4179 17.2533C97.8192 17.4773 98.2532 17.5893 98.7199 17.5893C99.1959 17.5893 99.6299 17.4773 100.022 17.2533C100.423 17.0199 100.741 16.6886 100.974 16.2593C101.207 15.8206 101.324 15.3073 101.324 14.7193ZM105.577 12.1573C105.801 11.7186 106.118 11.3779 106.529 11.1353C106.949 10.8926 107.458 10.7713 108.055 10.7713V12.0873H107.719C106.291 12.0873 105.577 12.8619 105.577 14.4113V18.5833H104.303V10.9113H105.577V12.1573ZM112.872 18.7093C112.153 18.7093 111.5 18.5459 110.912 18.2193C110.333 17.8926 109.876 17.4306 109.54 16.8333C109.213 16.2266 109.05 15.5266 109.05 14.7333C109.05 13.9493 109.218 13.2586 109.554 12.6613C109.899 12.0546 110.366 11.5926 110.954 11.2753C111.542 10.9486 112.2 10.7853 112.928 10.7853C113.656 10.7853 114.314 10.9486 114.902 11.2753C115.49 11.5926 115.952 12.0499 116.288 12.6473C116.633 13.2446 116.806 13.9399 116.806 14.7333C116.806 15.5266 116.628 16.2266 116.274 16.8333C115.928 17.4306 115.457 17.8926 114.86 18.2193C114.262 18.5459 113.6 18.7093 112.872 18.7093ZM112.872 17.5893C113.329 17.5893 113.758 17.4819 114.16 17.2673C114.561 17.0526 114.883 16.7306 115.126 16.3013C115.378 15.8719 115.504 15.3493 115.504 14.7333C115.504 14.1173 115.382 13.5946 115.14 13.1653C114.897 12.7359 114.58 12.4186 114.188 12.2133C113.796 11.9986 113.371 11.8913 112.914 11.8913C112.447 11.8913 112.018 11.9986 111.626 12.2133C111.243 12.4186 110.935 12.7359 110.702 13.1653C110.468 13.5946 110.352 14.1173 110.352 14.7333C110.352 15.3586 110.464 15.8859 110.688 16.3153C110.921 16.7446 111.229 17.0666 111.612 17.2813C111.994 17.4866 112.414 17.5893 112.872 17.5893ZM121.827 18.7093C121.108 18.7093 120.455 18.5459 119.867 18.2193C119.288 17.8926 118.831 17.4306 118.495 16.8333C118.168 16.2266 118.005 15.5266 118.005 14.7333C118.005 13.9493 118.173 13.2586 118.509 12.6613C118.854 12.0546 119.321 11.5926 119.909 11.2753C120.497 10.9486 121.155 10.7853 121.883 10.7853C122.611 10.7853 123.269 10.9486 123.857 11.2753C124.445 11.5926 124.907 12.0499 125.243 12.6473C125.588 13.2446 125.761 13.9399 125.761 14.7333C125.761 15.5266 125.583 16.2266 125.229 16.8333C124.883 17.4306 124.412 17.8926 123.815 18.2193C123.217 18.5459 122.555 18.7093 121.827 18.7093ZM121.827 17.5893C122.284 17.5893 122.713 17.4819 123.115 17.2673C123.516 17.0526 123.838 16.7306 124.081 16.3013C124.333 15.8719 124.459 15.3493 124.459 14.7333C124.459 14.1173 124.337 13.5946 124.095 13.1653C123.852 12.7359 123.535 12.4186 123.143 12.2133C122.751 11.9986 122.326 11.8913 121.869 11.8913C121.402 11.8913 120.973 11.9986 120.581 12.2133C120.198 12.4186 119.89 12.7359 119.657 13.1653C119.423 13.5946 119.307 14.1173 119.307 14.7333C119.307 15.3586 119.419 15.8859 119.643 16.3153C119.876 16.7446 120.184 17.0666 120.567 17.2813C120.949 17.4866 121.369 17.5893 121.827 17.5893ZM131.72 18.5833L128.71 15.1953V18.5833H127.436V8.22325H128.71V14.3133L131.664 10.9113H133.442L129.83 14.7333L133.456 18.5833H131.72ZM137.897 13.6973C137.897 12.7453 138.112 11.8913 138.541 11.1353C138.97 10.3699 139.554 9.77258 140.291 9.34325C141.038 8.91392 141.864 8.69925 142.769 8.69925C143.833 8.69925 144.762 8.95592 145.555 9.46925C146.348 9.98259 146.927 10.7106 147.291 11.6533H145.765C145.494 11.0653 145.102 10.6126 144.589 10.2953C144.085 9.97792 143.478 9.81925 142.769 9.81925C142.088 9.81925 141.476 9.97792 140.935 10.2953C140.394 10.6126 139.969 11.0653 139.661 11.6533C139.353 12.2319 139.199 12.9133 139.199 13.6973C139.199 14.4719 139.353 15.1533 139.661 15.7413C139.969 16.3199 140.394 16.7679 140.935 17.0853C141.476 17.4026 142.088 17.5613 142.769 17.5613C143.478 17.5613 144.085 17.4073 144.589 17.0993C145.102 16.7819 145.494 16.3293 145.765 15.7413H147.291C146.927 16.6746 146.348 17.3979 145.555 17.9113C144.762 18.4153 143.833 18.6673 142.769 18.6673C141.864 18.6673 141.038 18.4573 140.291 18.0373C139.554 17.6079 138.97 17.0153 138.541 16.2593C138.112 15.5033 137.897 14.6493 137.897 13.6973ZM152.996 10.7713C153.574 10.7713 154.097 10.8973 154.564 11.1493C155.03 11.3919 155.394 11.7606 155.656 12.2553C155.926 12.7499 156.062 13.3519 156.062 14.0613V18.5833H154.802V14.2433C154.802 13.4779 154.61 12.8946 154.228 12.4933C153.845 12.0826 153.322 11.8773 152.66 11.8773C151.988 11.8773 151.451 12.0873 151.05 12.5073C150.658 12.9273 150.462 13.5386 150.462 14.3413V18.5833H149.188V8.22325H150.462V12.0033C150.714 11.6113 151.059 11.3079 151.498 11.0933C151.946 10.8786 152.445 10.7713 152.996 10.7713ZM158.801 9.66525C158.558 9.66525 158.353 9.58125 158.185 9.41325C158.017 9.24525 157.933 9.03992 157.933 8.79725C157.933 8.55458 158.017 8.34925 158.185 8.18125C158.353 8.01325 158.558 7.92925 158.801 7.92925C159.034 7.92925 159.23 8.01325 159.389 8.18125C159.557 8.34925 159.641 8.55458 159.641 8.79725C159.641 9.03992 159.557 9.24525 159.389 9.41325C159.23 9.58125 159.034 9.66525 158.801 9.66525ZM159.417 10.9113V18.5833H158.143V10.9113H159.417ZM162.862 8.22325V18.5833H161.588V8.22325H162.862ZM164.557 14.7193C164.557 13.9353 164.716 13.2493 165.033 12.6613C165.351 12.0639 165.785 11.6019 166.335 11.2753C166.895 10.9486 167.521 10.7853 168.211 10.7853C168.809 10.7853 169.364 10.9253 169.877 11.2053C170.391 11.4759 170.783 11.8353 171.053 12.2833V8.22325H172.341V18.5833H171.053V17.1413C170.801 17.5986 170.428 17.9766 169.933 18.2753C169.439 18.5646 168.86 18.7093 168.197 18.7093C167.516 18.7093 166.895 18.5413 166.335 18.2053C165.785 17.8693 165.351 17.3979 165.033 16.7913C164.716 16.1846 164.557 15.4939 164.557 14.7193ZM171.053 14.7333C171.053 14.1546 170.937 13.6506 170.703 13.2213C170.47 12.7919 170.153 12.4653 169.751 12.2413C169.359 12.0079 168.925 11.8913 168.449 11.8913C167.973 11.8913 167.539 12.0033 167.147 12.2273C166.755 12.4513 166.443 12.7779 166.209 13.2073C165.976 13.6366 165.859 14.1406 165.859 14.7193C165.859 15.3073 165.976 15.8206 166.209 16.2593C166.443 16.6886 166.755 17.0199 167.147 17.2533C167.539 17.4773 167.973 17.5893 168.449 17.5893C168.925 17.5893 169.359 17.4773 169.751 17.2533C170.153 17.0199 170.47 16.6886 170.703 16.2593C170.937 15.8206 171.053 15.3119 171.053 14.7333ZM175.768 12.1573C175.992 11.7186 176.31 11.3779 176.72 11.1353C177.14 10.8926 177.649 10.7713 178.246 10.7713V12.0873H177.91C176.482 12.0873 175.768 12.8619 175.768 14.4113V18.5833H174.494V10.9113H175.768V12.1573ZM186.717 14.4533C186.717 14.6959 186.703 14.9526 186.675 15.2233H180.543C180.59 15.9793 180.846 16.5719 181.313 17.0013C181.789 17.4213 182.363 17.6313 183.035 17.6313C183.586 17.6313 184.043 17.5053 184.407 17.2533C184.78 16.9919 185.042 16.6466 185.191 16.2173H186.563C186.358 16.9546 185.947 17.5566 185.331 18.0233C184.715 18.4806 183.95 18.7093 183.035 18.7093C182.307 18.7093 181.654 18.5459 181.075 18.2193C180.506 17.8926 180.058 17.4306 179.731 16.8333C179.404 16.2266 179.241 15.5266 179.241 14.7333C179.241 13.9399 179.4 13.2446 179.717 12.6473C180.034 12.0499 180.478 11.5926 181.047 11.2753C181.626 10.9486 182.288 10.7853 183.035 10.7853C183.763 10.7853 184.407 10.9439 184.967 11.2613C185.527 11.5786 185.956 12.0173 186.255 12.5773C186.563 13.1279 186.717 13.7533 186.717 14.4533ZM185.401 14.1873C185.401 13.7019 185.294 13.2866 185.079 12.9413C184.864 12.5866 184.57 12.3206 184.197 12.1433C183.833 11.9566 183.427 11.8633 182.979 11.8633C182.335 11.8633 181.784 12.0686 181.327 12.4793C180.879 12.8899 180.622 13.4593 180.557 14.1873H185.401ZM192.137 10.7713C193.07 10.7713 193.826 11.0559 194.405 11.6253C194.983 12.1853 195.273 12.9973 195.273 14.0613V18.5833H194.013V14.2433C194.013 13.4779 193.821 12.8946 193.439 12.4933C193.056 12.0826 192.533 11.8773 191.871 11.8773C191.199 11.8773 190.662 12.0873 190.261 12.5073C189.869 12.9273 189.673 13.5386 189.673 14.3413V18.5833H188.399V10.9113H189.673V12.0033C189.925 11.6113 190.265 11.3079 190.695 11.0933C191.133 10.8786 191.614 10.7713 192.137 10.7713ZM197.55 8.82525H198.964L197.62 12.0033H196.724L197.55 8.82525ZM203.132 18.7093C202.544 18.7093 202.017 18.6113 201.55 18.4153C201.083 18.2099 200.715 17.9299 200.444 17.5753C200.173 17.2113 200.024 16.7959 199.996 16.3293H201.312C201.349 16.7119 201.527 17.0246 201.844 17.2673C202.171 17.5099 202.595 17.6313 203.118 17.6313C203.603 17.6313 203.986 17.5239 204.266 17.3093C204.546 17.0946 204.686 16.8239 204.686 16.4973C204.686 16.1613 204.537 15.9139 204.238 15.7553C203.939 15.5873 203.477 15.4239 202.852 15.2653C202.283 15.1159 201.816 14.9666 201.452 14.8173C201.097 14.6586 200.789 14.4299 200.528 14.1313C200.276 13.8233 200.15 13.4219 200.15 12.9273C200.15 12.5353 200.267 12.1759 200.5 11.8493C200.733 11.5226 201.065 11.2659 201.494 11.0793C201.923 10.8833 202.413 10.7853 202.964 10.7853C203.813 10.7853 204.499 10.9999 205.022 11.4293C205.545 11.8586 205.825 12.4466 205.862 13.1933H204.588C204.56 12.7919 204.397 12.4699 204.098 12.2273C203.809 11.9846 203.417 11.8633 202.922 11.8633C202.465 11.8633 202.101 11.9613 201.83 12.1573C201.559 12.3533 201.424 12.6099 201.424 12.9273C201.424 13.1793 201.503 13.3893 201.662 13.5573C201.83 13.7159 202.035 13.8466 202.278 13.9493C202.53 14.0426 202.875 14.1499 203.314 14.2713C203.865 14.4206 204.313 14.5699 204.658 14.7193C205.003 14.8593 205.297 15.0739 205.54 15.3633C205.792 15.6526 205.923 16.0306 205.932 16.4973C205.932 16.9173 205.815 17.2953 205.582 17.6313C205.349 17.9673 205.017 18.2333 204.588 18.4293C204.168 18.6159 203.683 18.7093 203.132 18.7093Z" fill="white"/>
<path d="M61.6067 30.1793C61.6067 30.4619 61.54 30.7286 61.4067 30.9793C61.2733 31.2299 61.06 31.4353 60.7667 31.5953C60.4733 31.7499 60.0973 31.8273 59.6387 31.8273H58.6307V34.0833H57.7187V28.5233H59.6387C60.0653 28.5233 60.4253 28.5979 60.7187 28.7473C61.0173 28.8913 61.2387 29.0886 61.3827 29.3393C61.532 29.5899 61.6067 29.8699 61.6067 30.1793ZM59.6387 31.0833C59.9853 31.0833 60.244 31.0059 60.4147 30.8513C60.5853 30.6913 60.6707 30.4673 60.6707 30.1793C60.6707 29.5713 60.3267 29.2673 59.6387 29.2673H58.6307V31.0833H59.6387ZM63.3885 33.3473H65.2685V34.0833H62.4765V28.5233H63.3885V33.3473ZM69.3832 32.9473H67.0552L66.6552 34.0833H65.7032L67.6952 28.5153H68.7512L70.7432 34.0833H69.7832L69.3832 32.9473ZM69.1272 32.2033L68.2232 29.6193L67.3112 32.2033H69.1272ZM71.3053 31.2913C71.3053 30.7473 71.4306 30.2593 71.6813 29.8273C71.9373 29.3953 72.2813 29.0593 72.7133 28.8193C73.1506 28.5739 73.6279 28.4513 74.1453 28.4513C74.7373 28.4513 75.2626 28.5979 75.7213 28.8913C76.1853 29.1793 76.5213 29.5899 76.7293 30.1233H75.6333C75.4893 29.8299 75.2893 29.6113 75.0333 29.4673C74.7773 29.3233 74.4813 29.2513 74.1453 29.2513C73.7773 29.2513 73.4493 29.3339 73.1613 29.4993C72.8733 29.6646 72.6466 29.9019 72.4813 30.2113C72.3213 30.5206 72.2413 30.8806 72.2413 31.2913C72.2413 31.7019 72.3213 32.0619 72.4813 32.3713C72.6466 32.6806 72.8733 32.9206 73.1613 33.0913C73.4493 33.2566 73.7773 33.3393 74.1453 33.3393C74.4813 33.3393 74.7773 33.2673 75.0333 33.1233C75.2893 32.9793 75.4893 32.7606 75.6333 32.4673H76.7293C76.5213 33.0006 76.1853 33.4113 75.7213 33.6993C75.2626 33.9873 74.7373 34.1313 74.1453 34.1313C73.6226 34.1313 73.1453 34.0113 72.7133 33.7713C72.2813 33.5259 71.9373 33.1873 71.6813 32.7553C71.4306 32.3233 71.3053 31.8353 71.3053 31.2913ZM78.7088 29.2593V30.8913H80.6288V31.6353H78.7088V33.3393H80.8688V34.0833H77.7968V28.5153H80.8688V29.2593H78.7088ZM87.8481 28.5233V34.0833H86.9361V30.2753L85.2401 34.0833H84.6081L82.9041 30.2753V34.0833H81.9921V28.5233H82.9761L84.9281 32.8833L86.8721 28.5233H87.8481ZM89.9588 29.2593V30.8913H91.8788V31.6353H89.9588V33.3393H92.1188V34.0833H89.0468V28.5153H92.1188V29.2593H89.9588ZM97.8101 34.0833H96.8981L94.1541 29.9313V34.0833H93.2421V28.5153H94.1541L96.8981 32.6593V28.5153H97.8101V34.0833ZM102.6 28.5233V29.2673H101.12V34.0833H100.208V29.2673H98.7197V28.5233H102.6ZM107.433 34.1393C107.06 34.1393 106.724 34.0753 106.425 33.9473C106.127 33.8139 105.892 33.6273 105.721 33.3873C105.551 33.1473 105.465 32.8673 105.465 32.5473H106.441C106.463 32.7873 106.556 32.9846 106.721 33.1393C106.892 33.2939 107.129 33.3713 107.433 33.3713C107.748 33.3713 107.993 33.2966 108.169 33.1473C108.345 32.9926 108.433 32.7953 108.433 32.5553C108.433 32.3686 108.377 32.2166 108.265 32.0993C108.159 31.9819 108.023 31.8913 107.857 31.8273C107.697 31.7633 107.473 31.6939 107.185 31.6193C106.823 31.5233 106.527 31.4273 106.297 31.3313C106.073 31.2299 105.881 31.0753 105.721 30.8673C105.561 30.6593 105.481 30.3819 105.481 30.0353C105.481 29.7153 105.561 29.4353 105.721 29.1953C105.881 28.9553 106.105 28.7713 106.393 28.6433C106.681 28.5153 107.015 28.4513 107.393 28.4513C107.932 28.4513 108.372 28.5873 108.713 28.8593C109.06 29.1259 109.252 29.4939 109.289 29.9633H108.281C108.265 29.7606 108.169 29.5873 107.993 29.4433C107.817 29.2993 107.585 29.2273 107.297 29.2273C107.036 29.2273 106.823 29.2939 106.657 29.4273C106.492 29.5606 106.409 29.7526 106.409 30.0033C106.409 30.1739 106.46 30.3153 106.561 30.4273C106.668 30.5339 106.801 30.6193 106.961 30.6833C107.121 30.7473 107.34 30.8166 107.617 30.8913C107.985 30.9926 108.284 31.0939 108.513 31.1953C108.748 31.2966 108.945 31.4539 109.105 31.6673C109.271 31.8753 109.353 32.1553 109.353 32.5073C109.353 32.7899 109.276 33.0566 109.121 33.3073C108.972 33.5579 108.751 33.7606 108.457 33.9153C108.169 34.0646 107.828 34.1393 107.433 34.1393ZM111.342 29.2593V30.8913H113.262V31.6353H111.342V33.3393H113.502V34.0833H110.43V28.5153H113.502V29.2593H111.342ZM117.513 34.0833L116.233 31.8593H115.537V34.0833H114.625V28.5233H116.545C116.972 28.5233 117.332 28.5979 117.625 28.7473C117.924 28.8966 118.145 29.0966 118.289 29.3473C118.438 29.5979 118.513 29.8779 118.513 30.1873C118.513 30.5499 118.406 30.8806 118.193 31.1793C117.985 31.4726 117.662 31.6726 117.225 31.7793L118.601 34.0833H117.513ZM115.537 31.1313H116.545C116.886 31.1313 117.142 31.0459 117.313 30.8753C117.489 30.7046 117.577 30.4753 117.577 30.1873C117.577 29.8993 117.492 29.6753 117.321 29.5153C117.15 29.3499 116.892 29.2673 116.545 29.2673H115.537V31.1313ZM124.472 28.5233L122.384 34.0833H121.328L119.232 28.5233H120.208L121.856 33.1473L123.512 28.5233H124.472ZM126.146 28.5233V34.0833H125.234V28.5233H126.146ZM127.04 31.2913C127.04 30.7473 127.165 30.2593 127.416 29.8273C127.672 29.3953 128.016 29.0593 128.448 28.8193C128.885 28.5739 129.362 28.4513 129.88 28.4513C130.472 28.4513 130.997 28.5979 131.456 28.8913C131.92 29.1793 132.256 29.5899 132.464 30.1233H131.368C131.224 29.8299 131.024 29.6113 130.768 29.4673C130.512 29.3233 130.216 29.2513 129.88 29.2513C129.512 29.2513 129.184 29.3339 128.896 29.4993C128.608 29.6646 128.381 29.9019 128.216 30.2113C128.056 30.5206 127.976 30.8806 127.976 31.2913C127.976 31.7019 128.056 32.0619 128.216 32.3713C128.381 32.6806 128.608 32.9206 128.896 33.0913C129.184 33.2566 129.512 33.3393 129.88 33.3393C130.216 33.3393 130.512 33.2673 130.768 33.1233C131.024 32.9793 131.224 32.7606 131.368 32.4673H132.464C132.256 33.0006 131.92 33.4113 131.456 33.6993C130.997 33.9873 130.472 34.1313 129.88 34.1313C129.357 34.1313 128.88 34.0113 128.448 33.7713C128.016 33.5259 127.672 33.1873 127.416 32.7553C127.165 32.3233 127.04 31.8353 127.04 31.2913ZM134.443 29.2593V30.8913H136.363V31.6353H134.443V33.3393H136.603V34.0833H133.531V28.5153H136.603V29.2593H134.443ZM139.558 34.1393C139.185 34.1393 138.849 34.0753 138.55 33.9473C138.252 33.8139 138.017 33.6273 137.846 33.3873C137.676 33.1473 137.59 32.8673 137.59 32.5473H138.566C138.588 32.7873 138.681 32.9846 138.846 33.1393C139.017 33.2939 139.254 33.3713 139.558 33.3713C139.873 33.3713 140.118 33.2966 140.294 33.1473C140.47 32.9926 140.558 32.7953 140.558 32.5553C140.558 32.3686 140.502 32.2166 140.39 32.0993C140.284 31.9819 140.148 31.8913 139.982 31.8273C139.822 31.7633 139.598 31.6939 139.31 31.6193C138.948 31.5233 138.652 31.4273 138.422 31.3313C138.198 31.2299 138.006 31.0753 137.846 30.8673C137.686 30.6593 137.606 30.3819 137.606 30.0353C137.606 29.7153 137.686 29.4353 137.846 29.1953C138.006 28.9553 138.23 28.7713 138.518 28.6433C138.806 28.5153 139.14 28.4513 139.518 28.4513C140.057 28.4513 140.497 28.5873 140.838 28.8593C141.185 29.1259 141.377 29.4939 141.414 29.9633H140.406C140.39 29.7606 140.294 29.5873 140.118 29.4433C139.942 29.2993 139.71 29.2273 139.422 29.2273C139.161 29.2273 138.948 29.2939 138.782 29.4273C138.617 29.5606 138.534 29.7526 138.534 30.0033C138.534 30.1739 138.585 30.3153 138.686 30.4273C138.793 30.5339 138.926 30.6193 139.086 30.6833C139.246 30.7473 139.465 30.8166 139.742 30.8913C140.11 30.9926 140.409 31.0939 140.638 31.1953C140.873 31.2966 141.07 31.4539 141.23 31.6673C141.396 31.8753 141.478 32.1553 141.478 32.5073C141.478 32.7899 141.401 33.0566 141.246 33.3073C141.097 33.5579 140.876 33.7606 140.582 33.9153C140.294 34.0646 139.953 34.1393 139.558 34.1393Z" fill="white"/>
<defs>
<linearGradient id="paint0_linear_1719_3" x1="3.98254" y1="21.5291" x2="13.944" y2="21.5291" gradientUnits="userSpaceOnUse">
<stop offset="0.45" stop-color="#48B74F"/>
<stop offset="1" stop-color="#A8AB36"/>
</linearGradient>
<linearGradient id="paint1_linear_1719_3" x1="29.1772" y1="21.5435" x2="39.2333" y2="21.5435" gradientUnits="userSpaceOnUse">
<stop stop-color="#A8AB36"/>
<stop offset="0.54" stop-color="#48B74F"/>
</linearGradient>
<linearGradient id="paint2_linear_1719_3" x1="0.00028002" y1="21.5721" x2="3.43356" y2="21.5721" gradientUnits="userSpaceOnUse">
<stop offset="0.45" stop-color="#48B74F"/>
<stop offset="1" stop-color="#A8AB36"/>
</linearGradient>
<linearGradient id="paint3_linear_1719_3" x1="39.7633" y1="21.5625" x2="43.2344" y2="21.5625" gradientUnits="userSpaceOnUse">
<stop stop-color="#A8AB36"/>
<stop offset="0.54" stop-color="#48B74F"/>
</linearGradient>
</defs>
</svg>
