<svg width="120" height="147" viewBox="0 0 120 147" fill="none" xmlns="http://www.w3.org/2000/svg">
<path d="M50.5664 80.5074C50.9921 80.7044 51.2454 80.342 51.5339 80.1767C59.1516 75.7885 66.7659 71.3956 74.3766 66.998C74.3766 67.1493 74.3942 67.3006 74.4012 67.4519C69.1124 70.5126 63.8236 73.5756 58.5348 76.641C54.1865 79.167 49.8475 81.7035 45.518 84.2506C45.4163 84.2762 45.3174 84.3116 45.2225 84.3561C38.9838 87.9657 32.7463 91.5787 26.5099 95.1953C26.3692 95.2762 26.1792 95.3395 26.225 95.5471C28.3358 96.2507 30.1546 97.5418 32.0473 98.65C31.9735 98.8259 31.8116 98.8294 31.6604 98.8576C30.2531 98.073 28.8635 97.2569 27.4387 96.511C25.2118 95.3466 23.4914 96.3386 23.4492 98.8646C23.3824 102.682 24.9725 105.672 28.2865 107.593C38.4678 113.496 48.6631 119.371 58.8725 125.218C62.3202 127.203 65.7621 129.189 69.198 131.178C69.5498 130.263 68.9553 129.968 68.3642 129.626C54.937 121.901 41.5156 114.178 28.1001 106.457C25.3103 104.849 24.1317 102.411 24.4202 99.2375C24.5644 97.6685 25.8063 96.9367 27.2804 97.5313C27.9964 97.8169 28.6718 98.1954 29.2892 98.657L29.0464 98.8752C28.0262 98.5234 27.2206 97.5489 25.9822 97.8197C25.8798 97.802 25.7744 97.8149 25.6792 97.8568C25.5841 97.8988 25.5035 97.9679 25.4475 98.0555C25.2625 98.2137 25.1139 98.41 25.0119 98.6311C24.9099 98.8521 24.8568 99.0926 24.8564 99.336C24.5856 102.471 25.8485 104.715 28.5785 106.277C41.8346 113.871 55.0742 121.494 68.2974 129.145C69.1171 129.619 69.7046 129.665 70.5595 129.173C84.3198 121.198 98.0895 113.257 111.869 105.348C114.292 103.941 116.713 102.552 119.193 101.127L116.84 99.7441C116.766 99.5717 116.446 99.4451 116.738 99.2023L119.2 100.588C120.256 101.201 120.256 102.379 119.179 103.023C118.521 103.413 117.856 103.793 117.117 104.223C117.821 104.631 118.44 105.018 119.084 105.341C119.57 105.588 119.96 105.792 119.946 106.478C119.932 107.164 119.767 107.582 119.147 107.91C118.138 108.444 117.17 109.063 116.185 109.647C116.061 109.661 115.94 109.699 115.83 109.759C115.72 109.82 115.623 109.901 115.545 109.999C115.422 110.063 115.295 110.119 115.193 110.189C100.27 118.841 85.3506 127.5 70.4364 136.167C69.6941 136.596 69.1312 136.652 68.4874 136.142C68.2717 135.921 67.9926 135.772 67.6888 135.716C66.3308 134.921 64.9763 134.119 63.6149 133.331C51.7848 126.515 39.9536 119.702 28.1212 112.891C27.4563 112.508 26.7879 112.107 25.9611 112.321C25.8624 112.309 25.7621 112.325 25.6727 112.369C25.5834 112.413 25.5087 112.482 25.458 112.567C25.3074 112.657 25.179 112.779 25.0827 112.925C24.9864 113.072 24.9247 113.238 24.9022 113.412C24.6272 114.764 24.7888 116.169 25.3635 117.424C25.9382 118.679 26.8964 119.72 28.1001 120.395C41.6235 128.191 55.1469 135.989 68.6703 143.79C68.9216 143.962 69.2203 144.05 69.5244 144.043C69.8285 144.036 70.1228 143.934 70.366 143.751C83.6267 136.063 96.8957 128.39 110.173 120.733L119.179 115.519L116.783 114.196C116.755 113.989 116.319 113.901 116.611 113.598C117.413 114.027 118.212 114.46 119.021 114.875C119.531 115.136 119.946 115.361 119.953 116.093C119.978 116.4 119.907 116.708 119.749 116.973C119.592 117.239 119.356 117.448 119.074 117.574C105.203 125.581 91.336 133.602 77.4725 141.637C74.9676 143.09 72.4839 144.585 69.9896 146.059H68.9342C65.1593 143.857 61.409 141.637 57.6095 139.452C47.7121 133.746 37.8146 128.045 27.9171 122.348C27.6821 122.179 27.3989 122.091 27.1098 122.097C26.8206 122.103 26.5411 122.202 26.3129 122.379C23.4176 124.156 20.4905 125.897 17.5705 127.621C16.8001 128.082 16.012 128.494 15.1853 127.72C15.2592 127.632 15.3295 127.54 15.4034 127.449L15.6075 127.298L16.0437 127.709C16.4652 127.73 16.881 127.606 17.2223 127.357C20.1598 125.581 23.0904 123.797 26.0491 122.063C26.6999 121.683 26.6084 121.517 26.1335 121.046C24.0227 118.953 22.8863 116.427 22.9672 113.415C23.013 111.878 23.5723 110.671 25.0781 109.968C26.1335 109.472 27.0974 108.789 28.1845 108.142L27.5513 107.705C27.3507 107.565 27.1397 107.435 26.9532 107.28C24.3041 105.102 22.8687 102.355 22.9743 98.8716C23.013 97.5876 23.4035 96.4301 24.5785 95.7441C26.6893 94.5057 28.8318 93.3272 30.9497 92.1029C37.3643 88.3855 43.773 84.661 50.1759 80.9296L50.5664 80.5074ZM26.1405 109.936C26.8441 110.253 27.5478 110.513 28.2056 110.889C41.5954 118.584 54.9769 126.293 68.3502 134.014C68.6778 134.249 69.0709 134.375 69.4742 134.375C69.8775 134.375 70.2706 134.249 70.5982 134.014C83.2632 126.665 95.9282 119.34 108.593 112.036L119.235 105.88C117.891 105.352 117.061 104.121 115.299 105.176C100.329 113.971 85.2826 122.65 70.2675 131.393C69.6096 131.773 69.1769 131.709 68.5648 131.354C56.051 124.107 43.467 116.947 30.999 109.623C29.0992 108.508 27.7483 108.539 26.2109 109.859C26.1861 109.883 26.1626 109.909 26.1405 109.936ZM69.2015 136.008C69.4161 135.245 69.1277 134.882 68.519 134.534C60.0264 129.693 51.5585 124.83 43.1152 119.945C37.9506 116.972 32.8002 113.964 27.6146 111.044C25.2223 109.69 23.4387 110.766 23.4351 113.507C23.4351 117.246 25.0218 120.159 28.269 122.038C41.5133 129.691 54.7646 137.32 68.023 144.927C68.3924 145.138 68.7266 145.5 69.1804 145.475C69.4408 144.81 69.0854 144.504 68.5718 144.212C63.412 141.257 58.2522 138.293 53.0924 135.319L28.0403 120.895C25.736 119.565 24.4835 117.567 24.3709 114.914C24.3252 113.859 24.2302 112.715 25.2927 112.061C26.3551 111.406 27.3719 111.98 28.3252 112.529L47.562 123.575L69.2015 136.008ZM119.334 115.955C118.982 116.145 118.711 116.307 118.444 116.451C113.197 119.482 107.952 122.512 102.708 125.542C92.0056 131.729 81.3013 137.915 70.5947 144.1C69.6237 144.663 69.6272 144.666 69.8066 145.602L70.3519 145.289C76.6844 141.616 83.024 137.944 89.3706 134.274C99.1085 128.61 108.858 122.949 118.62 117.292C119.105 117.011 119.689 116.81 119.334 115.955ZM69.7855 136.008C69.9825 135.899 70.1022 135.839 70.2218 135.769L90.3908 124.047L118.81 107.544C119.161 107.333 119.693 107.114 119.411 106.643C119.13 106.172 118.76 106.692 118.493 106.847C114.486 109.141 110.489 111.459 106.489 113.767C94.4952 120.693 82.4916 127.618 70.4786 134.541C69.9333 134.858 69.4197 135.132 69.7855 136.008ZM69.7328 131.041C70.1409 131.041 70.4364 130.749 70.7424 130.562C76.6293 127.157 82.5115 123.748 88.389 120.335C98.5351 114.448 108.68 108.565 118.824 102.685C119.176 102.471 119.71 102.242 119.394 101.785C119.077 101.327 118.732 101.897 118.454 102.055C114.584 104.261 110.75 106.495 106.898 108.712C94.7368 115.717 82.5713 122.718 70.4012 129.714C69.8524 130.028 69.4619 130.327 69.7328 131.034V131.041Z" fill="#132240"/>
<path d="M5.49304 58.6107C5.49304 58.3222 5.49304 58.0337 5.49304 57.7453L5.84485 57.5447C5.82098 57.8437 5.88821 58.1428 6.03767 58.4028C6.18713 58.6628 6.41181 58.8714 6.68215 59.0012C9.49659 60.5656 12.311 62.1346 15.1255 63.7084C15.4801 63.9325 15.8926 64.0479 16.3121 64.0404C16.7316 64.0329 17.1397 63.9028 17.4861 63.6661C20.5398 61.8086 23.6251 60.0039 26.6964 58.178L30.0983 56.1481C29.4334 55.5218 28.8987 55.6098 28.2373 56.0109C24.67 58.1745 21.064 60.2712 17.4931 62.4278C17.1339 62.6818 16.7057 62.8203 16.2657 62.8247C15.8257 62.8291 15.3948 62.6992 15.0305 62.4524C12.7578 61.1367 10.457 59.8702 8.16677 58.5826C6.94248 57.8789 6.946 57.5658 8.19139 56.8235C11.9557 54.586 15.7165 52.3415 19.4914 50.1392C20.1387 49.7593 20.4835 49.3512 20.1 48.5667L19.6462 48.834L7.79385 55.8314V55.4198C11.5335 53.1647 15.2451 50.8464 19.027 48.6827C20.0508 48.0952 20.4976 47.4233 20.4342 46.294C20.4255 45.7692 20.4431 45.2444 20.487 44.7214C20.772 44.6686 20.8388 44.8586 20.9092 45.0732C20.8318 46.7549 20.779 48.4365 20.6699 50.1181C20.6375 50.3233 20.6707 50.5334 20.7649 50.7185C20.859 50.9037 21.0092 51.0543 21.1941 51.1489C21.8977 51.557 22.5486 52.0284 23.2698 52.3732C25.5424 53.4568 27.8186 54.5438 30.137 55.5394C30.9603 55.8912 31.1678 56.3732 31.2382 57.1929C31.488 60.0285 31.393 62.8711 31.5056 65.7101C31.5231 66.1604 31.3402 66.7937 32.1212 66.8078C32.8248 66.8078 33.5284 66.7339 33.7149 65.8227C34.4185 62.3281 35.1221 58.8335 35.8257 55.3389C35.8923 55.082 35.9051 54.814 35.8633 54.5519C35.8216 54.2898 35.7261 54.0391 35.583 53.8156C34.7985 52.7074 33.6375 52.0214 32.5434 51.2685C32.467 51.2279 32.3819 51.2066 32.2954 51.2066C32.2089 51.2066 32.1237 51.2279 32.0473 51.2685C31.2452 52.0108 30.6401 51.3811 30.0033 51.0047C29.247 50.5579 28.5082 50.09 27.7588 49.6361C26.1194 48.637 26.1194 48.637 27.7588 47.6344C27.801 47.6062 27.8221 47.5394 27.9031 47.4092C26.4958 46.8323 25.3103 45.8894 23.8467 45.4778C23.808 45.126 23.5196 45.1577 23.2874 45.1014C22.3849 44.5554 21.6309 43.7953 21.0921 42.8885L21.5354 42.8357C22.1575 43.7712 23.039 44.5047 24.0719 44.9466C25.0183 45.3863 25.9083 45.9457 26.8406 46.4277C27.9418 46.9976 29.0711 47.5183 30.1652 48.1058C30.6577 48.3696 30.9814 48.0636 31.2839 47.8279C31.5865 47.5922 31.3613 47.1981 31.2839 46.871C30.9778 45.8155 30.035 45.7241 29.2083 45.5728C28.3889 45.4287 27.6308 45.0442 27.0306 44.4681C26.035 43.5534 25.1484 42.4839 23.8643 41.9246L24.29 41.6185C25.4299 42.1708 26.0983 43.3212 27.21 43.9087C27.2346 44.1093 27.2874 44.2852 27.5372 44.2957C28.4976 45.3898 29.9998 45.0908 31.1573 45.6396C31.2417 45.6783 31.4809 45.5095 31.5759 45.3863C31.6709 45.2632 31.5231 45.133 31.4035 45.0732C30.429 44.5877 30.3024 43.5077 29.7536 42.7267C29.7852 42.4593 29.8134 42.1884 30.1687 42.1497C31.101 42.9941 32.0403 43.8313 32.962 44.6862C33.3793 45.0587 33.8546 45.3606 34.3692 45.5798C34.5646 45.6574 34.7813 45.6625 34.9801 45.5941C35.1789 45.5256 35.3466 45.3883 35.4528 45.2069C35.7026 44.8797 35.2523 44.637 35.0131 44.5033C33.7043 43.8454 33.1133 42.6106 32.4414 41.432C32.1107 40.8586 31.7624 40.2957 31.4211 39.7258L31.6252 39.2157C32.5082 40.6229 32.5117 40.6229 33.9506 39.775C35.2488 39.0116 36.5399 38.2271 37.8486 37.4777C38.0666 37.3516 38.3144 37.2863 38.5662 37.2886C38.8181 37.2909 39.0646 37.3608 39.2803 37.4909C39.4959 37.621 39.6727 37.8066 39.7921 38.0283C39.9116 38.2499 39.9694 38.4996 39.9594 38.7513C39.9594 39.7012 39.9067 40.651 39.977 41.5939C40.0017 41.8859 39.4915 42.7548 40.5434 42.4452C40.5716 42.4452 40.6771 42.5543 40.6666 42.5895C40.3535 43.6695 41.3702 43.8102 41.8979 44.1585C42.8735 44.7859 43.9791 45.1829 45.131 45.3195C45.4828 45.3687 45.722 45.1401 45.9929 44.9677C46.8372 44.4681 47.6816 43.9721 48.5154 43.4549C49.0044 43.1524 49.4265 43.1348 49.8065 43.6097L49.5602 43.8173C49.4285 43.7388 49.2766 43.7006 49.1235 43.7075C48.9703 43.7144 48.8225 43.766 48.6983 43.856C45.6094 45.7205 42.5171 47.5781 39.4036 49.3969C38.7211 49.798 39.1292 49.9985 39.4458 50.2588C39.8328 50.579 40.0966 50.2061 40.3711 50.0442C43.0049 48.508 45.6341 46.9659 48.2585 45.418L48.3183 45.7698C45.9366 47.2052 43.5654 48.6616 41.1661 50.0689C40.4625 50.477 39.8715 50.8006 40.5223 51.7118C40.7262 52.0469 40.7906 52.4485 40.7018 52.8305C40.364 55.0727 40.0239 57.3149 39.6815 59.5571C39.6815 59.8104 39.6604 60.0637 39.6534 60.3134C39.4352 61.4427 39.2242 62.5756 39.0061 63.7048C38.9357 64.0567 38.6859 64.4296 39.0518 64.7603C39.0518 65.0628 39.3086 65.1789 39.4739 65.3619C39.6885 65.9564 40.2198 66.2801 40.6455 66.6776C40.7108 66.7207 40.7663 66.7772 40.8081 66.8433C40.85 66.9095 40.8773 66.9838 40.8883 67.0613C40.8993 67.1388 40.8937 67.2178 40.8718 67.2929C40.85 67.3681 40.8124 67.4378 40.7616 67.4973C40.5085 67.7869 40.1643 67.9816 39.7857 68.0494C39.4071 68.1172 39.0167 68.054 38.6789 67.8702C38.2743 67.5993 37.8908 67.3003 37.4968 67.0118C36.2866 66.5158 35.4915 65.7981 36.0685 64.3451C36.0685 64.324 36.0368 64.2853 36.0227 64.2537V58.1358H35.6709C35.3613 59.8244 35.0506 61.5154 34.7386 63.2088C34.3868 64.9327 33.2013 66.6952 34.9884 68.3135C35.2065 68.7497 35.7413 68.9221 35.8891 69.4111C35.7026 70.4173 34.8723 70.3329 34.1511 70.4349C33.5812 70.2801 33.2364 69.7735 32.7439 69.5202C32.5609 69.2609 32.2975 69.0693 31.9946 68.9749C31.4739 68.7497 30.6929 68.6231 30.9391 67.8491C31.203 67.0118 30.9814 66.2203 31.006 65.4076L30.9778 64.8799C31.0728 62.3574 30.8969 59.8455 30.8019 57.3301C30.7632 56.3697 30.5275 56.4014 29.8063 56.8376C25.9541 59.1771 22.0666 61.4779 18.1967 63.7752C17.5389 64.1657 16.874 64.5773 16.0578 64.5281H15.6075L5.92576 59.0223L5.49304 58.6107ZM9.1483 58.6107C11.2591 59.7963 13.2363 60.8799 15.1818 62.0303C15.5132 62.2567 15.9066 62.3749 16.3079 62.3686C16.7092 62.3623 17.0987 62.2318 17.4228 61.9951C18.9672 61.0311 20.5503 60.1305 22.1159 59.1982C24.2267 57.9317 26.3586 56.6547 28.5609 55.3284C27.298 54.7408 26.1546 54.2237 25.0218 53.6784C23.6884 53.0346 22.3375 51.7927 21.0499 51.8631C19.6778 51.937 18.3726 53.2386 17.0393 54.0126C14.45 55.5254 11.8607 57.0346 9.1483 58.6107ZM32.7404 50.871C33.7174 51.4787 34.6288 52.1861 35.4598 52.9818C35.7236 53.2127 35.9351 53.4971 36.0801 53.8163C36.2251 54.1354 36.3003 54.4818 36.3007 54.8323C36.3745 57.6468 36.4097 60.4436 36.4695 63.2475C36.4695 63.733 36.2584 64.4401 37.0817 64.4225C37.7431 64.4225 38.4432 64.4049 38.6226 63.3917C39.1045 60.7039 39.4388 57.995 39.868 55.3002C40.5153 51.1982 40.5258 51.5429 37.1133 49.0416C37.0289 48.9783 36.9374 48.922 36.86 48.8516C36.7731 48.7661 36.6571 48.7165 36.5352 48.7126C36.4133 48.7086 36.2944 48.7507 36.2022 48.8305C35.0975 49.4954 33.9682 50.1357 32.7404 50.871ZM44.7018 45.7346C43.1046 45.2843 41.8381 44.7918 40.7721 43.9087C40.2937 43.5112 40.1037 43.7399 39.8398 44.1656C38.9498 45.6009 38.2989 47.1911 37.0676 48.4998C37.6938 48.7144 37.9964 49.703 38.8477 49.2034C40.751 48.1128 42.6191 46.9659 44.7018 45.7205V45.7346ZM20.0543 50.2553C16.1141 52.6148 12.168 54.9789 8.21602 57.3477C8.0366 57.4568 7.63202 57.5623 7.86421 57.8402C7.96452 58.0036 8.11345 58.1315 8.29011 58.2059C8.46676 58.2804 8.66229 58.2977 8.84927 58.2554C9.04287 58.1757 9.22792 58.0767 9.4016 57.9599C12.698 56.0531 15.9909 54.1322 19.2979 52.2465C20.107 51.7716 20.9901 51.4233 20.0543 50.2412V50.2553ZM32.2092 50.5192C35.9805 49.0944 38.3517 46.8639 39.6182 43.5464C36.1951 44.8305 33.4616 46.9483 32.2092 50.5192ZM34.32 46.0864C33.8908 45.8542 33.5214 45.6572 33.159 45.4497C32.4976 45.0662 32.1423 45.6959 31.6568 45.8894C31.305 46.0266 31.4457 46.2412 31.5583 46.491C31.8187 47.0328 32.1282 47.6027 31.5583 48.1304C30.9884 48.6581 30.0878 48.834 29.5566 48.3556C28.5011 47.4233 27.8257 48.046 26.9778 48.6652C28.2267 49.4215 29.4405 50.1568 30.6718 50.9132C30.9919 51.1137 31.1749 51.0328 31.3543 50.7478C32.3429 49.1753 33.3314 47.6168 34.32 46.0724V46.0864ZM39.4915 38.6563C37.5953 39.7856 35.8081 40.8586 34.0139 41.921C33.6621 42.1321 33.3103 42.294 33.6903 42.7865C33.9787 43.177 34.1476 43.6871 34.8125 43.2649C35.583 42.7795 36.3921 42.3608 37.1837 41.9105C38.4537 41.1893 38.4537 41.1858 39.4915 42.1638V38.6563ZM39.3614 38.2447C38.9286 37.8718 38.605 37.4566 37.9788 37.8401C36.3722 38.8298 34.7527 39.7997 33.1203 40.7495C32.7685 40.9641 32.7439 41.1611 32.9304 41.4954C33.1168 41.8296 33.3525 41.8472 33.6832 41.6502C35.5478 40.4997 37.4335 39.381 39.3543 38.2306L39.3614 38.2447ZM39.4634 42.9483C38.4994 41.6326 38.4994 41.6326 37.1802 42.3925C36.4308 42.8252 35.6815 43.2649 34.9286 43.7047C35.9313 44.9044 35.9489 44.9395 36.3956 44.6933C37.4194 44.1198 38.4291 43.5218 39.4564 42.9342L39.4634 42.9483ZM40.4309 67.1596C40.0439 66.7761 39.5267 66.456 39.3332 66.0233C38.8513 64.9291 38.1828 64.5246 37.0043 64.894C36.7052 64.9889 36.4168 64.9291 36.3007 65.3232C36.2726 65.3976 36.261 65.4772 36.2667 65.5565C36.2724 65.6358 36.2953 65.7129 36.3338 65.7825C36.3723 65.8521 36.4254 65.9125 36.4896 65.9596C36.5537 66.0066 36.6273 66.0391 36.7052 66.0549C37.3832 66.335 37.9999 66.7449 38.5206 67.2616C39.2242 67.8456 39.8046 67.7893 40.4238 67.1455L40.4309 67.1596ZM35.4528 69.5167C35.3992 69.4136 35.3343 69.3169 35.2593 69.2282C34.6066 68.6992 34.0822 68.0293 33.7254 67.2686C33.6234 67.0611 31.5443 67.1525 31.4633 67.3707C31.3543 67.6486 31.1749 68.018 31.5513 68.215C32.4871 68.697 33.2505 69.4322 34.1652 69.9318C34.612 70.1851 35.094 69.9213 35.4528 69.5167ZM32.6384 44.8903C32.0825 44.4118 31.7166 44.0917 31.3437 43.7786C31.2347 43.6871 31.1115 43.6062 30.9919 43.7223C30.8723 43.8384 30.7808 43.951 30.904 44.0741C31.3085 44.4998 31.6779 45.024 32.6384 44.8903Z" fill="#152242"/>
<path d="M83.5271 70.3438C90.4131 74.298 97.2968 78.2512 104.178 82.2031C109.146 85.0621 114.108 87.9282 119.067 90.8012C120.284 91.5049 120.315 92.7256 119.133 93.4257C118.145 94.0132 117.163 94.6148 116.178 95.2094C115.992 95.2586 115.798 95.2903 115.703 95.4908C115.513 95.5752 115.313 95.6351 115.133 95.7371C100.357 104.293 85.5875 112.854 70.8234 121.419C69.9193 121.947 69.1523 122.288 68.2517 121.553L67.6923 121.201L52.4134 112.353L36.6807 103.248L36.941 103.019C37.1036 103.08 37.2623 103.15 37.4159 103.231L65.1699 119.192C66.5067 119.962 67.8471 120.722 69.2016 121.496C69.4232 120.719 69.1418 120.339 68.5437 120.061C67.9456 119.783 67.3898 119.407 66.8128 119.072L33.4968 99.9306L33.8064 99.6527C34.4361 100.004 35.0729 100.314 35.6956 100.669C46.6837 107.002 57.667 113.334 68.6457 119.667C68.8906 119.84 69.1831 119.933 69.483 119.933C69.783 119.933 70.0755 119.84 70.3203 119.667C84.5614 111.421 98.8119 103.188 113.072 94.9701C115.095 93.7986 117.114 92.6201 119.225 91.3923L83.6925 70.9453C83.601 70.7624 83.3793 70.6041 83.5271 70.3438ZM119.32 91.8672C109.205 97.7072 99.1719 103.508 89.1314 109.299C82.9466 112.874 76.7548 116.443 70.556 120.008C70.0952 120.276 69.3142 120.557 69.7047 121.204C70.0565 121.764 70.5173 121.071 70.8621 120.874C79.6033 115.824 88.3351 110.76 97.0575 105.683L118.757 93.0669C119.207 92.8136 119.672 92.606 119.32 91.8672Z" fill="#152241"/>
<path d="M116.611 113.587C116.319 113.89 116.755 113.978 116.787 114.185C116.899 115.153 116.291 115.529 115.538 115.944C110.011 119.065 104.512 122.242 99.003 125.398C89.2017 131.012 79.4039 136.631 69.6097 142.253C69.3431 142.435 69.0265 142.531 68.7034 142.526C68.3802 142.522 68.0664 142.418 67.8049 142.228C55.1188 134.873 42.4245 127.536 29.7219 120.219C27.8116 119.118 26.4713 117.605 25.8732 115.441C25.6288 114.493 25.4861 113.521 25.4475 112.543C25.4982 112.457 25.5728 112.388 25.6622 112.344C25.7516 112.3 25.8519 112.284 25.9506 112.296C25.8521 115.617 27.0799 118.193 30.0491 119.899C41.6376 126.569 53.2155 133.253 64.7829 139.952C65.8876 140.585 66.9254 141.359 68.3256 141.855C67.5868 139.744 67.6009 137.711 67.6783 135.681C67.9821 135.737 68.2612 135.885 68.4769 136.106C67.6571 136.61 68.2798 137.317 68.0934 138.108L77.9862 132.722C77.9228 133.454 77.4549 133.486 77.1559 133.651C74.3661 135.202 71.5763 136.75 68.7583 138.249C68.6258 138.3 68.5066 138.38 68.4098 138.484C68.313 138.587 68.2412 138.712 68.1998 138.848C68.1584 138.983 68.1485 139.127 68.1709 139.267C68.1933 139.407 68.2474 139.54 68.3291 139.656C68.6809 140.325 69.0538 139.632 69.3106 139.487C75.7393 135.81 82.1539 132.118 88.5544 128.412C88.8147 128.265 89.0469 127.857 89.4621 128.184C89.3952 128.585 89.0223 128.617 88.776 128.761C82.345 132.495 75.9105 136.22 69.4725 139.938C68.2623 140.641 68.2482 140.701 68.9694 142.048C69.2755 141.887 69.5886 141.735 69.8911 141.563L111.098 118.017C112.621 117.144 114.12 116.236 115.672 115.42C116.322 115.069 116.291 114.639 116.062 114.14C115.731 113.408 115.358 114.034 115.066 114.193C113.167 115.248 111.292 116.353 109.395 117.419C109.135 117.566 108.896 117.96 108.484 117.654C108.519 117.302 108.836 117.257 109.065 117.127C111.095 115.948 113.125 114.762 115.168 113.609C115.643 113.338 115.981 113.063 115.601 112.384L94.2044 124.697C94.1516 124.099 94.4964 124.033 94.7532 123.881L114.708 112.356C115.872 111.688 115.95 111.473 115.552 109.992C115.63 109.894 115.727 109.812 115.837 109.752C115.947 109.692 116.068 109.654 116.192 109.64C116.259 110.949 115.862 112.331 116.611 113.587Z" fill="#5889C3"/>
<path d="M15.59 64.5181H16.0262C16.0262 64.9367 16.0051 65.3589 16.0051 65.781V117.813C16.0051 121.113 16.0051 124.413 16.0297 127.713L15.5935 127.301C15.5935 125.44 15.5407 123.583 15.5724 121.725C15.596 121.487 15.5433 121.247 15.4219 121.04C15.3006 120.833 15.1167 120.67 14.8969 120.575C12.0825 118.985 9.31727 117.359 6.52393 115.766C6.34803 115.664 6.17212 115.375 5.85198 115.632C5.85198 117.25 5.90827 118.9 5.83087 120.557C5.78514 121.581 6.2073 122.154 7.06219 122.636C9.85553 124.212 12.6172 125.848 15.3894 127.463C15.3156 127.555 15.2452 127.646 15.1713 127.734C12.2513 126.078 9.33134 124.42 6.41135 122.759C6.09872 122.598 5.83966 122.349 5.66548 122.043C5.49129 121.737 5.40944 121.387 5.42981 121.036C5.45796 100.293 5.47203 79.5495 5.47203 58.8047C5.47719 58.7346 5.48897 58.6651 5.50721 58.5972L5.93993 59.0228C5.93993 60.8769 5.93993 62.7344 5.8942 64.5849C5.86147 64.8542 5.91633 65.1269 6.05065 65.3626C6.18498 65.5983 6.39164 65.7845 6.64003 65.8936C9.31727 67.3993 11.9699 68.9473 14.6366 70.4671C14.918 70.6289 15.1678 70.935 15.604 70.8189L15.59 64.5181ZM5.89772 67.9306V69.2885C5.89772 83.118 5.89772 96.951 5.83791 110.78C5.83791 112.321 6.18971 113.219 7.62156 113.947C10.2953 115.294 12.8353 116.898 15.5724 118.478V92.666C15.5724 86.5939 15.5724 80.5217 15.5724 74.4495C15.5724 74.0168 15.6955 73.5735 15.1502 73.2639C12.1106 71.5401 9.09563 69.7811 5.89772 67.9306ZM15.4703 120.395C15.7905 119.361 15.4703 118.788 14.5768 118.394C13.8276 118.016 13.0984 117.601 12.392 117.148L5.96456 113.447C5.63386 114.531 6.05603 115.08 6.94258 115.505C7.94874 115.984 8.88454 116.613 9.85201 117.173L15.4703 120.395ZM5.98215 65.9992C5.67608 67.0722 6.04196 67.6491 6.95665 68.0678C7.87135 68.4864 8.779 69.0986 9.69018 69.6228L15.59 73.0071C15.4739 72.3035 15.8573 71.6843 15.1291 71.2692C12.0965 69.5418 9.07804 67.7863 5.98215 65.9992Z" fill="#132139"/>
<path d="M115.703 95.4904C115.798 95.2899 115.992 95.2582 116.178 95.209C116.199 96.1659 116.196 97.1263 116.252 98.0832C116.256 98.2882 116.301 98.4904 116.384 98.6777C116.468 98.865 116.588 99.0337 116.738 99.1738C116.446 99.4166 116.766 99.5432 116.84 99.7156C116.572 100.208 116.755 100.792 116.02 101.211C100.625 109.985 85.2556 118.805 69.9122 127.67C68.8955 128.258 68.2165 128.039 67.344 127.536C57.592 121.908 47.8118 116.314 38.0633 110.667C34.897 108.841 31.6428 107.188 28.6841 105.038C26.999 103.811 25.7817 102.301 25.5777 100.145C25.5108 99.4412 25.4897 98.7376 25.4475 98.034C25.5035 97.9464 25.5841 97.8773 25.6793 97.8354C25.7744 97.7934 25.8798 97.7805 25.9823 97.7983C25.9189 99.976 26.028 102.111 27.8116 103.705C28.91 104.688 30.108 105.553 31.386 106.287C43.3333 113.159 55.2783 120.031 67.2209 126.903C67.4636 127.044 67.6853 127.329 68.1497 127.146C67.5024 125.207 67.6607 123.209 67.6923 121.218L68.2517 121.57C67.9386 122.53 68.118 123.519 68.118 124.49C68.118 125.644 68.2271 125.682 69.2016 125.116C72.7513 123.051 76.2975 120.982 79.8613 118.942C80.1427 118.783 80.4066 118.337 80.8639 118.646C80.8639 119.026 80.5121 119.058 80.301 119.185C76.6634 121.295 73.028 123.406 69.3951 125.517C68.1567 126.221 68.1567 126.221 68.8744 127.663C69.2262 127.477 69.5499 127.311 69.8841 127.107L110.905 103.656C112.548 102.717 114.166 101.731 115.83 100.841C116.439 100.514 116.291 100.06 116.108 99.7051C115.872 99.2512 115.563 99.7051 115.344 99.8423C113.937 100.63 112.548 101.457 111.144 102.252C110.912 102.386 110.662 102.724 110.254 102.27C111.819 101.359 113.332 100.426 114.894 99.5925C115.752 99.1351 116.238 98.6602 115.57 97.6259L95.2809 109.306C95.2528 108.673 95.6327 108.602 95.9282 108.444C102.092 104.877 108.241 101.299 114.447 97.7877C115.422 97.2248 115.96 96.6338 115.703 95.4904Z" fill="#5789C4"/>
<path d="M73.571 42.5581C73.5252 40.7569 73.9544 39.0401 74.4505 37.3232C74.8023 36.099 74.6369 34.7762 75.031 33.5273C75.3828 32.4331 76.0336 31.7929 77.1418 31.6064C78.3203 31.4059 79.3511 31.6064 80.097 32.6618C80.4062 33.0683 80.5695 33.567 80.5605 34.0776C80.5516 34.5882 80.3709 35.0809 80.0477 35.4763C79.3089 36.493 80.0935 37.5871 79.7487 38.6003C79.7311 38.6531 79.9175 38.8219 80.0336 38.8606C82.3556 39.61 83.1823 41.6751 84.1709 43.5783C84.4279 44.2554 84.7695 44.8973 85.1876 45.4886C85.2935 45.8157 85.4289 46.1325 85.5922 46.435C86.4928 47.807 86.2113 49.0137 85.2193 50.2169C84.2975 51.3321 83.5024 52.5705 81.9932 52.9997C81.8067 53.0736 81.5359 52.9997 81.462 53.2811C81.3459 53.6681 80.9624 53.83 80.7408 54.1255C80.4558 54.1255 80.097 54.1677 80.4241 53.7244C80.5982 53.5584 80.7852 53.4067 80.9835 53.2706C81.2087 53.0595 81.2966 52.7886 81.0539 52.5459C80.8111 52.3031 80.681 51.7578 80.1251 51.8423C79.9211 51.8774 79.5868 51.9197 79.6361 52.1167C79.8894 53.1721 79.1049 52.8203 78.6475 52.8906C78.2957 52.6514 78.549 52.4614 78.6722 52.2257C79.0767 51.4623 79.9844 51.6382 80.5473 51.1703C80.6704 50.0938 81.6308 49.6048 82.1867 48.8273C82.3415 48.6056 82.7848 48.4755 82.4963 48.0674C82.0987 47.5362 81.9299 46.822 81.2966 46.442C80.8956 47.1703 80.5402 47.8493 80.7584 48.6619C80.8742 48.9691 80.8697 49.3088 80.7458 49.6128C80.6218 49.9168 80.3876 50.1628 80.0899 50.3014C77.6273 50.808 75.7311 49.7983 74.1479 48.0005C73.7961 47.4306 74.0987 46.7868 73.9439 46.1958C74.0143 45.4324 74.0811 44.6689 74.1515 43.9055C73.5463 45.5273 73.0433 47.1492 71.9527 48.5177C71.1541 49.5274 71.2244 49.8897 72.2693 50.7024C72.4804 51.012 72.0864 51.2301 72.1462 51.5186C71.7381 52.5072 70.8691 52.9258 69.9368 53.2002C69.585 53.3093 69.2789 53.0384 69.191 52.6373C69.1312 52.3469 69.1505 52.0457 69.2471 51.7653C69.3436 51.4849 69.5138 51.2357 69.7398 51.0437C71.2737 49.457 72.2025 47.4975 73.0116 45.4816C73.4056 44.5845 73.7223 43.617 73.571 42.5581ZM79.9351 42.6003L79.6854 42.3505L81.5077 40.3206C80.961 39.8806 80.3514 39.5249 79.6994 39.2652C79.4743 40.201 79.2491 41.1122 79.038 42.0269C78.8551 42.829 78.2957 42.5687 77.7926 42.4877C77.0152 42.3611 77.5675 41.9143 77.6167 41.6364C77.7047 41.1227 77.8911 40.6267 78.0178 40.1166C78.3063 38.9732 78.3028 38.9697 77.1031 39.1737C75.9034 39.3778 75.9105 39.318 76.2166 38.2133C75.9737 38.1977 75.7355 38.1393 75.5129 38.0409C74.8621 37.5871 74.6264 37.8087 74.5525 38.5159C74.5138 38.8958 74.3062 39.2582 74.2816 39.6346C74.2007 40.8237 73.6202 42.0445 74.4259 43.2019C74.7179 43.9724 74.4857 44.7463 74.4575 45.5238C74.4294 46.3013 73.9755 47.1844 74.6123 47.9407C75.1403 48.5718 75.7906 49.0894 76.524 49.4625C77.2574 49.8355 78.0587 50.0562 78.8797 50.1114C79.8964 50.2028 80.4382 49.5942 80.2869 48.6303C80.1825 47.9331 80.3283 47.2214 80.6986 46.6215C80.8389 46.4039 80.9111 46.1495 80.9061 45.8907C80.9011 45.6319 80.819 45.3804 80.6704 45.1685L80.9167 44.8871C81.1313 45.1755 81.3459 45.464 81.557 45.756C82.9044 47.4236 83.506 49.056 81.3107 50.5406C81.279 50.5617 81.2403 50.5863 81.2368 50.6145C81.17 51.1246 80.7619 51.603 81.2087 52.1554C81.3635 52.3473 81.5868 52.4718 81.8315 52.5026C82.0762 52.5334 82.3233 52.4682 82.5209 52.3207C83.995 51.4658 84.9202 50.0867 85.6273 48.5986C86.0284 47.7543 85.2404 47.0471 84.9519 46.2943C84.7424 45.8131 84.5075 45.3434 84.2483 44.8871C83.6361 43.6487 83.0205 42.4244 82.4119 41.172C82.1515 40.6372 81.8771 40.5141 81.4303 41.0242C80.9835 41.5344 80.4417 42.0761 79.9351 42.6003ZM75.5692 33.7665C75.1426 34.5676 74.9627 35.4771 75.0521 36.3804C75.0873 37.4851 75.5868 37.9037 76.6493 37.668C77.3393 37.5279 77.956 37.1446 78.3872 36.588C78.5455 36.3839 78.6827 36.1799 78.3028 36.0321C77.1594 35.5853 76.4558 34.5932 75.5692 33.7665ZM70.0951 52.7851C70.6545 52.4579 71.3476 52.2117 71.6888 51.5221C71.766 51.4035 71.793 51.2592 71.764 51.1207C71.735 50.9823 71.6523 50.8609 71.534 50.7833C71.3687 50.6602 71.1822 50.4315 70.9958 50.6074C70.5173 51.0472 69.8876 51.3673 69.6413 52.0146C69.5006 52.3418 69.5006 52.7183 70.0951 52.7851ZM78.5385 37.0981C78.1691 37.9635 76.8181 37.5871 76.6106 38.7129C78.5033 38.5581 78.5033 38.5581 78.5279 37.0981H78.5385Z" fill="#16234A"/>
<path d="M81.462 53.3127C81.5359 53.0277 81.8138 53.1051 81.9932 53.0312C82.6687 54.4385 82.6265 55.9548 82.5702 57.4429C82.4822 59.712 82.2606 61.9741 82.2184 64.2503C82.1902 66.3893 83.0451 68.3207 83.5271 70.3436C83.3793 70.6039 83.601 70.7623 83.6995 70.9557C83.2773 71.8951 83.6186 72.8625 83.5904 73.8124C83.5623 74.7623 83.9141 75.8353 83.2632 76.7535C82.9572 76.6867 82.9114 76.94 82.8165 77.1229C82.1867 77.1229 81.6309 77.5662 80.9765 77.436L80.5508 77.2003C80.2272 76.8485 80.3433 76.3208 80.104 75.9268C80.3573 75.7227 80.3186 75.5539 80.0407 75.4131C80.2518 72.7183 79.3371 68.8203 78.2113 67.9443C78.2113 69.4289 78.2289 70.8537 78.2113 72.275C78.2113 72.8555 78.3978 73.4712 77.9967 74.0094L77.5605 74.2557C76.9483 74.6427 75.5798 74.0657 75.8507 75.589C75.4743 75.2126 76.0653 74.4351 75.2808 74.2311L75.2632 73.1334L75.6959 73.7596C76.7513 74.1994 77.8067 73.9004 77.8067 73.1018C77.7716 71.1774 77.958 69.2319 77.6836 67.3216C77.1629 63.6874 76.6071 60.0568 76.0653 56.4156C76.0301 56.1905 75.8648 55.9442 76.2377 55.7507C76.5226 56.0427 76.4875 56.4262 76.5438 56.8061C76.9378 59.3637 77.2474 61.9319 77.9264 64.4438C78.4857 66.5089 79.4778 68.4227 79.9739 70.5019C80.396 72.2609 80.4769 74.1044 80.6493 75.9162C80.7021 76.4791 80.8182 76.9716 81.5077 77.0138C82.0777 77.0385 83.2351 76.1414 83.1929 75.6699C82.9712 73.1686 83.3477 70.6004 82.4646 68.173C81.761 66.2451 81.6907 64.2679 81.8103 62.2626C81.9018 60.7604 82.0917 59.2617 82.1621 57.756C82.2324 56.2503 82.3274 54.6883 81.462 53.3127Z" fill="#5988C2"/>
<path d="M64.7689 0.035423C65.1302 -0.0471938 65.5094 0.0160148 65.8244 0.211326C67.4321 1.14713 69.0364 2.09349 70.6582 3.00114C71.1261 3.265 71.2105 3.51478 70.9642 3.99675C69.102 7.61566 67.2574 11.2404 65.4303 14.8711C65.1489 15.4269 64.9484 15.5219 64.6317 14.8711C62.7953 11.2052 60.946 7.54413 59.0838 3.88769C58.8797 3.48664 58.9219 3.26852 59.316 3.04688C61.0293 2.07941 62.725 1.09084 64.4312 0.119857C64.5344 0.0623759 64.6509 0.0332428 64.7689 0.035423ZM59.5341 3.43035L64.5755 6.31164C64.6837 6.40056 64.8155 6.4562 64.9547 6.47181C65.0939 6.48742 65.2347 6.46233 65.36 6.39959C67.0346 5.43916 68.7162 4.48225 70.5667 3.42683C68.6775 2.34327 66.9853 1.37932 65.2896 0.404819C65.1998 0.354051 65.0972 0.330359 64.9942 0.336602C64.8912 0.342844 64.7922 0.378754 64.7091 0.44L59.5341 3.43035ZM60.0196 4.26413L59.8648 4.44355C61.4374 7.56054 63.0099 10.674 64.681 13.9916C65.0328 11.638 64.7267 9.50955 64.7936 7.38816C64.8015 7.24845 64.7675 7.10956 64.6961 6.98925C64.6247 6.86893 64.519 6.77264 64.3925 6.71269C62.929 5.91058 61.4761 5.08383 60.0196 4.26413ZM65.3283 13.689H65.5324L70.4999 3.97565C68.7619 4.98181 67.2914 5.84725 65.8068 6.68103C65.6502 6.75715 65.5204 6.87889 65.4343 7.03023C65.3483 7.18157 65.3101 7.35542 65.3248 7.52888C65.3318 9.57991 65.3283 11.6345 65.3283 13.689Z" fill="#5689C5"/>
<path d="M24.2549 41.5871L23.8293 41.8932L21.5179 42.8184L21.0746 42.8712C20.4273 43.6874 20.5223 44.3558 21.3701 44.6513C21.9823 44.8659 22.5944 45.1333 23.2699 45.084C23.5021 45.1403 23.7906 45.1157 23.8293 45.4605C22.7738 45.763 21.8662 45.172 20.8811 45.07C20.8213 44.8554 20.7439 44.6654 20.459 44.7182C19.9453 43.902 20.3077 43.0014 20.2514 42.1465C20.0544 39.0998 20.1247 36.0602 20.8284 33.0558C20.9111 32.6273 21.0969 32.2253 21.3696 31.8845C21.6424 31.5437 21.9939 31.2744 22.3939 31.0998C23.5307 30.5582 24.7067 30.1031 25.912 29.7383L26.2638 30.0655C25.9788 30.1393 25.525 30.1112 25.912 30.6108C26.211 31.0013 26.5382 31.3671 26.8442 31.7506C27.2981 32.317 27.7167 33.0628 28.4309 32.0039C28.4511 31.9641 28.4793 31.9289 28.5136 31.9004C28.548 31.8719 28.5878 31.8508 28.6307 31.8383C28.6735 31.8257 28.7185 31.8221 28.7628 31.8276C28.807 31.8331 28.8497 31.8476 28.8882 31.8702C29.3385 32.1482 29.3245 31.8104 29.3561 31.5184C29.3878 31.2264 29.4335 30.8922 29.4687 30.5791L29.912 30.361C29.8416 31.1174 29.7748 31.8737 29.7044 32.6442C28.7299 32.3733 28.6842 32.3346 28.269 32.8201C27.7976 33.3689 27.4669 33.3759 27.094 32.7462C26.9147 32.4877 26.7147 32.2442 26.4959 32.018C25.138 30.361 25.138 30.361 23.2136 31.2335C23.2136 31.2335 23.1855 31.2757 23.1292 31.3566C24.3605 31.6029 24.8319 32.5175 25.0324 33.5976C25.2213 34.8097 25.2094 36.0446 24.9973 37.2528C24.7791 38.7128 24.3007 40.113 24.2549 41.5871ZM20.6665 39.1245C20.6665 39.9653 20.6665 40.8096 20.6665 41.6504C20.6665 41.8861 20.6454 42.1465 20.9163 42.2942C21.5214 42.6249 23.6815 41.5097 23.8222 40.792C24.065 39.522 24.3605 38.2555 24.5505 36.9749C24.7615 35.5677 24.8776 34.1851 24.2549 32.8447C24.1293 32.5119 23.8916 32.2333 23.5828 32.0567C23.274 31.8802 22.9133 31.8167 22.5628 31.8773C21.8416 31.9687 21.4229 32.412 21.2505 33.1719C20.8308 35.1228 20.6349 37.1151 20.6665 39.1104V39.1245Z" fill="#C52A53"/>
<path d="M106.711 65.1262C106.465 65.1051 106.433 64.9011 106.359 64.7568C105.006 62.1089 103.654 59.4575 102.303 56.8025C102.246 56.7253 102.208 56.6356 102.192 56.5409C102.175 56.4462 102.182 56.3489 102.21 56.2571C102.239 56.1653 102.288 56.0815 102.355 56.0125C102.422 55.9434 102.504 55.8911 102.595 55.8597C103.847 55.1561 105.093 54.4524 106.321 53.7031C106.456 53.6236 106.612 53.5868 106.768 53.5975C106.924 53.6082 107.074 53.6658 107.197 53.7629C108.414 54.4665 109.624 55.1701 110.845 55.8456C111.235 56.0637 111.39 56.2783 111.144 56.7568C109.782 59.4023 108.46 62.0655 107.123 64.7217C107.028 64.9081 106.933 65.0946 106.711 65.1262ZM110.662 56.2924C109.36 55.536 108.22 54.8852 107.077 54.2132C106.997 54.1461 106.898 54.1046 106.794 54.0939C106.69 54.0832 106.585 54.104 106.493 54.1534C105.304 54.857 104.104 55.529 102.796 56.2642C103.742 56.8095 104.555 57.2036 105.3 57.7278C106.261 58.4103 107.105 58.5369 108.115 57.7559C108.801 57.2212 109.659 56.8518 110.662 56.2924ZM110.405 57.1965L110.278 57.0382C109.286 57.6081 108.295 58.1792 107.306 58.7515C107.178 58.8164 107.074 58.9184 107.006 59.0441C106.938 59.1698 106.91 59.3131 106.926 59.4551C106.926 60.8412 106.926 62.2274 106.926 63.6099L107.123 63.6733L110.405 57.1965ZM106.264 63.5748L106.486 63.522C106.486 62.1664 106.486 60.8119 106.486 59.4586C106.486 59.2194 106.518 58.9661 106.25 58.8184C105.241 58.2519 104.238 57.6785 103.232 57.1086L103.095 57.2739L106.264 63.5748Z" fill="#C82753"/>
<path d="M9.02872 29.8546C8.95484 30.0059 8.88096 30.1642 8.80004 30.319C7.51947 32.8403 6.24124 35.3604 4.96536 37.8793C4.84575 38.1115 4.82112 38.495 4.47283 38.4809C4.12455 38.4668 4.08936 38.1115 3.96623 37.8723C2.71029 35.4096 1.46841 32.947 0.191357 30.4844C-0.160449 29.8054 -0.0373167 29.4289 0.645186 29.0771C1.7006 28.5353 2.75602 27.9443 3.74459 27.3181C3.94294 27.1583 4.18872 27.0688 4.4434 27.0637C4.69807 27.0586 4.94724 27.1382 5.15182 27.29C6.24241 27.9936 7.39282 28.5846 8.50453 29.2495C8.73672 29.3832 9.06741 29.4712 9.02872 29.8546ZM0.525574 29.6928L4.04363 31.7438C4.15017 31.8314 4.28154 31.8832 4.41916 31.8921C4.55678 31.9009 4.6937 31.8663 4.81057 31.7931C5.79562 31.195 6.79827 30.6251 7.7974 30.0551C8.18438 29.8335 8.35677 29.6295 7.85017 29.3515C6.85104 28.7816 5.84839 28.2047 4.85982 27.6136C4.74954 27.533 4.61647 27.4895 4.47987 27.4895C4.34326 27.4895 4.2102 27.533 4.09992 27.6136C2.97414 28.282 1.82725 28.9364 0.525574 29.6928ZM4.66632 37.049L4.8563 37.1124L8.06477 30.699L7.84313 30.5195L4.96888 32.1695C4.6804 32.3348 4.66632 32.6128 4.66632 32.9013C4.66984 34.2839 4.66632 35.6665 4.66632 37.049ZM4.01548 36.947L4.23009 36.9083C4.23009 35.5574 4.23009 34.2029 4.23009 32.8485C4.24616 32.6923 4.21481 32.535 4.14014 32.3969C4.06546 32.2589 3.95091 32.1465 3.81144 32.0745C2.82286 31.5292 1.84132 30.9734 0.617041 30.2909C1.84132 32.6796 2.92841 34.8151 4.01548 36.947Z" fill="#5888C3"/>
<path d="M26.2672 30.0658L25.9154 29.7386C26.4959 28.8732 26.4607 27.9338 26.3059 26.9523C26.0667 25.4642 26.4783 24.9259 27.9242 24.5565C28.751 24.3454 29.5918 24.4439 30.422 24.3771C31.1256 24.3208 31.1573 24.947 31.1819 25.4114C31.2382 26.414 30.9638 27.3885 30.7879 28.3666C30.7211 28.7184 30.4361 29.0702 30.5803 29.4783C30.4361 29.5908 30.2285 29.6577 30.2285 29.8864L29.9119 30.3718L29.4686 30.59C29.4259 30.5614 29.3771 30.5431 29.3261 30.5367C29.2751 30.5302 29.2233 30.5358 29.1748 30.5528C29.1263 30.5699 29.0825 30.598 29.0468 30.635C29.011 30.672 28.9844 30.7168 28.9691 30.7659C28.5117 31.7263 27.9137 31.561 27.2699 30.9629C26.9321 30.6568 26.5979 30.3648 26.2672 30.0658ZM28.1072 26.8995C27.2839 26.8081 26.8371 27.3991 27.1291 28.1731C27.2712 28.4908 27.3888 28.8189 27.4809 29.1546C27.7026 30.21 28.6313 29.9075 29.2646 30.0376C29.7782 30.1397 29.9682 29.5627 30.1054 29.1265C30.211 28.7958 30.2778 28.451 30.3974 28.1238C30.7035 27.3041 30.6085 26.8643 29.5601 27.0262C29.0726 27.0453 28.5845 27.004 28.1072 26.903V26.8995ZM28.7052 30.3015C27.3754 30.6146 27.2171 29.5979 26.8794 28.7571C26.0843 29.9673 27.2945 30.2276 27.7589 30.787C28.086 31.1704 28.4379 31.0121 28.6912 30.305L28.7052 30.3015Z" fill="#162349"/>
<path d="M48.3008 45.7773C48.2797 45.6577 48.2621 45.5345 48.241 45.4255C48.6842 45.1511 49.1099 44.8415 49.5743 44.6093C50.2181 44.2927 49.8065 44.0745 49.5426 43.8248L49.7889 43.6172C50.0322 43.6594 50.2509 43.7911 50.4019 43.9864C50.5529 44.1818 50.6254 44.4265 50.6051 44.6726C50.5816 56.634 50.5687 68.5872 50.5664 80.5322L50.1865 80.9438V44.757L48.3008 45.7773Z" fill="#121E34"/>
<path d="M30.2215 29.8861C30.2215 29.6574 30.4326 29.5906 30.5733 29.478C31.2335 29.7999 31.7823 30.3119 32.1491 30.9483C32.5159 31.5847 32.6838 32.3162 32.6313 33.0489C32.5039 35.1309 32.15 37.193 31.5759 39.1984C31.5056 39.3673 31.4387 39.5502 31.3719 39.7085C30.1933 40.1166 29.9822 41.0278 30.1195 42.1184C29.7676 42.1571 29.736 42.428 29.7043 42.6954L27.4879 44.2644C27.2382 44.2644 27.1854 44.078 27.1608 43.8774C27.44 43.6682 27.7314 43.4755 28.0332 43.3005C28.5604 43.0671 29.0079 42.6847 29.3204 42.2002C29.633 41.7158 29.797 41.1505 29.7923 40.574C29.8758 39.1439 30.1201 37.7277 30.5205 36.3523C30.9524 34.618 31.0985 32.8249 30.9532 31.0436C30.9427 30.5546 31.0025 29.9248 30.2215 29.8861ZM30.3024 39.7754C31.889 38.8748 32.6736 32.3875 31.3297 30.8466C31.794 33.9847 30.802 36.7991 30.3024 39.7754Z" fill="#C22E55"/>
<path d="M75.6888 73.76L75.2561 73.1338C75.2201 72.1915 75.1321 71.2519 74.9922 70.3194C74.7952 69.3625 75.1189 68.2895 74.4012 67.4416C74.4012 67.2903 74.3836 67.1391 74.3766 66.9878C73.3528 64.0045 72.9694 60.898 72.6387 57.7881C72.4557 56.0537 72.41 54.3087 72.2869 52.5673C72.2658 52.2155 72.3818 51.8637 72.125 51.5611C72.0652 51.2726 72.4592 51.0545 72.2482 50.7449C72.7442 49.2216 73.7961 47.9023 73.9228 46.2383C74.0776 46.8293 73.7785 47.4731 74.1268 48.043C73.1523 49.0246 72.8955 50.2911 72.7724 51.5857C72.6744 53.23 72.7404 54.8799 72.9694 56.511C73.3388 59.9798 73.4936 63.4908 74.8586 66.7802C75.0671 67.3384 75.1939 67.9237 75.235 68.5181C75.4179 70.2736 75.5446 72.0186 75.6888 73.76Z" fill="#598AC2"/>
<path d="M5.85193 57.5344L5.50012 57.7349C5.50012 56.2292 6.81588 55.9759 7.7763 55.4165C7.7763 55.5537 7.7763 55.6909 7.7763 55.8281C7.18527 56.4438 6.13337 56.5528 5.85193 57.5344Z" fill="#132139"/>
<path d="M29.2891 98.6465C31.889 100.026 34.4431 101.479 36.9409 103.041L36.6806 103.269C34.0878 101.887 31.5372 100.427 29.0464 98.8646L29.2891 98.6465Z" fill="#2C3856"/>
<path d="M33.4968 99.9514C32.8776 99.5996 32.1951 99.3322 31.6498 98.8467C31.8011 98.8186 31.9629 98.8151 32.0368 98.6392C32.676 98.8849 33.2703 99.2344 33.7958 99.6735L33.4968 99.9514Z" fill="#334064"/>
<path d="M30.9814 65.3937C28.7825 66.4703 26.6587 67.6939 24.6242 69.056C23.217 69.9812 22.83 71.5397 22.8124 73.1158C22.7702 77.8582 22.7843 82.6146 22.8124 87.3393C22.8124 89.0491 23.6005 89.4501 25.0921 88.6058C31.4246 84.9611 37.7454 81.3141 44.0545 77.6647C45.7361 76.6937 46.306 75.0894 46.3271 73.3058C46.3834 68.5318 46.3658 63.7543 46.3271 58.9803C46.3271 57.3197 45.5672 56.9222 44.0967 57.7419C42.6261 58.5616 41.1204 59.4587 39.6358 60.3206C39.6358 60.0709 39.6358 59.8176 39.6639 59.5643C41.2084 59.1351 42.4502 58.1254 43.8293 57.3795C45.6481 56.398 46.7036 56.9468 46.795 59.0506C46.8443 60.2081 46.795 61.369 46.795 62.5265C46.795 66.0762 46.8126 69.6224 46.795 73.1721C46.7704 75.4342 45.8592 77.1968 43.8117 78.3577C37.6164 81.8758 31.4211 85.3938 25.2856 89.0139C23.5864 90.013 22.4184 89.32 22.3481 87.4026C22.2812 85.6155 22.3305 83.8213 22.3305 82.0306C22.3305 79.0789 22.3058 76.1273 22.3305 73.1756C22.3586 70.9065 23.2803 69.1299 25.349 68.0111C27.2276 66.9909 29.0781 65.9003 30.9427 64.866C30.9638 65.0419 30.9743 65.2178 30.9814 65.3937Z" fill="#5B88C0"/>
<path d="M35.882 69.3976C36.3006 69.7494 36.5856 69.3378 36.9163 69.2112C37.5777 68.9719 38.0561 68.3105 38.9532 68.5603L30.1581 73.6228C30.2882 72.8946 30.7034 72.8101 30.9883 72.6377C31.9488 72.0573 32.9268 71.5085 33.8978 70.9456C34.0948 70.8295 34.3938 70.7521 34.137 70.4214C34.8652 70.3194 35.6955 70.4038 35.882 69.3976Z" fill="#5F8DC3"/>
<path d="M32.7229 69.517C32.1107 69.4818 31.6956 69.904 31.2171 70.1749C29.9119 70.9136 28.6243 71.6841 27.3156 72.4194C27.0694 72.5566 26.8231 72.8415 26.4642 72.6516C26.3833 72.2435 26.7492 72.2224 26.9568 72.0992C28.3992 71.2514 29.8521 70.4176 31.3051 69.5803C31.5725 69.4255 31.8891 69.327 31.9735 68.9717C32.2765 69.0661 32.5399 69.2577 32.7229 69.517Z" fill="#618DC4"/>
<path d="M39.0342 64.7785C39.9735 64.9263 40.5012 64.1101 41.2611 63.8322C41.7185 63.6633 42.0562 63.1673 42.7457 63.4804L39.4564 65.3696C39.291 65.1972 39.0272 65.0811 39.0342 64.7785Z" fill="#658EC2"/>
<path d="M79.9352 42.6004C79.7171 42.9803 79.4145 43.304 80.1041 43.6136C80.5966 43.8247 80.6458 44.4614 80.9343 44.8836L80.688 45.165C80.1639 44.7605 80.0231 44.0674 79.3547 43.6874C78.7426 43.3356 79.3231 42.7516 79.6854 42.3506L79.9352 42.6004Z" fill="#3C456C"/>
<path d="M83.2808 77.8123C83.1507 78.8184 82.9677 79.8211 82.9009 80.8308C82.8494 81.1932 82.9138 81.5626 83.0851 81.8862C83.2564 82.2097 83.5256 82.4708 83.8543 82.632C85.7927 83.6874 87.6925 84.7921 89.5993 85.8932C89.7998 86.0093 90.2677 86.0762 89.9933 86.4526C89.8139 86.6989 89.5781 86.3682 89.3917 86.2662C87.805 85.3761 86.2254 84.4719 84.6458 83.5748C83.1753 82.734 82.8587 82.7692 81.3459 83.9759C83.9141 85.45 86.4541 86.8994 88.9801 88.3735C89.3319 88.5881 90.1094 88.8906 89.937 89.1087C89.5852 89.5661 89.1208 88.954 88.7514 88.7569C86.345 87.399 83.9633 86.0023 81.571 84.6232C81.1841 84.4016 80.8463 84.1553 80.3221 84.4614C79.6607 84.8484 79.1366 84.3101 78.6405 83.9548C78.3731 83.7613 78.4259 83.4552 78.6405 83.216C78.898 82.8832 79.1892 82.5778 79.5095 82.3048C80.7162 81.4288 80.9167 80.2503 80.6563 78.8853C80.5834 78.33 80.5458 77.7707 80.5438 77.2107L80.9695 77.4429C80.8147 78.5264 81.2157 79.5713 81.1841 80.6513C81.1869 80.8914 81.2747 81.1228 81.4318 81.3044C81.589 81.4859 81.8053 81.6061 82.0425 81.6434C82.535 81.6892 82.3485 81.0735 82.4435 80.7358C82.7953 79.5572 82.4682 78.3118 82.7953 77.1333C82.8938 76.9503 82.936 76.697 83.2421 76.7639C83.2632 76.9609 83.2879 77.1614 83.309 77.3584C83.3301 77.5555 83.2984 77.6575 83.2808 77.8123ZM78.8516 83.4799C79.5376 84.2679 80.1286 84.1659 80.7936 83.6804C81.2159 83.3082 81.7214 83.0427 82.2676 82.9064C82.3386 82.9042 82.4083 82.887 82.4722 82.8559C82.536 82.8248 82.5926 82.7806 82.6381 82.7261C82.6836 82.6716 82.7171 82.6081 82.7363 82.5397C82.7555 82.4714 82.7601 82.3997 82.7496 82.3295C82.6792 81.8475 82.3978 82.0656 82.1375 82.1676C82.0586 82.2104 81.9671 82.2236 81.8794 82.2049C81.7917 82.1862 81.7135 82.1368 81.659 82.0656C81.0257 81.063 80.6317 81.7701 80.1709 82.2415C79.71 82.7129 79.3019 83.0577 78.8516 83.4799Z" fill="#192645"/>
<path d="M77.9897 74.0098L78.0319 74.8717C77.9721 75.1707 77.7188 75.4346 77.8701 75.7688C77.8349 76.9368 77.4514 78.1013 77.9721 79.2657C78.1867 79.7512 77.8138 80.0573 77.3951 80.2156C76.7056 80.4788 76.0548 80.8338 75.4602 81.271C74.8657 81.7038 74.3591 81.5103 73.8208 81.1901C73.2825 80.87 73.1664 80.4865 73.6695 80.0362C73.8771 79.8497 74.1022 79.6844 74.3204 79.505C75.5376 78.5375 75.7803 77.3167 75.2597 75.8954V75.4698C75.2597 75.0617 75.2597 74.6536 75.2773 74.2455C76.0618 74.4495 75.4708 75.227 75.8472 75.6034C75.8789 76.3352 75.8929 77.0705 75.9387 77.8022C75.9673 78.0237 76.0697 78.2292 76.2292 78.3855C76.3887 78.5418 76.5961 78.64 76.8182 78.6642C77.3142 78.7345 77.1067 78.1611 77.1981 77.8656C77.5499 76.6905 77.1629 75.4381 77.5499 74.2666L77.9897 74.0098ZM73.7223 80.5956C74.1796 80.8278 74.4927 81.2781 74.9993 80.9966C75.7522 80.5815 76.4066 80.0151 77.272 79.7723C77.3228 79.7579 77.37 79.733 77.4106 79.6991C77.4511 79.6652 77.4841 79.6232 77.5073 79.5757C77.5306 79.5283 77.5435 79.4765 77.5454 79.4237C77.5473 79.3709 77.5381 79.3182 77.5183 79.2693C77.4725 79.1145 77.3213 78.9843 77.2228 79.0547C76.6986 79.4381 76.4206 79.0828 76.0935 78.7521C75.8402 78.4988 75.6044 78.5692 75.4215 78.8823C75.0416 79.5507 74.3907 79.9799 73.7223 80.5956Z" fill="#192641"/>
<path d="M77.87 75.7687C77.7187 75.4345 77.972 75.1706 78.0318 74.8716C78.7296 74.9241 79.4111 75.1079 80.0406 75.4134C80.3186 75.5541 80.3573 75.723 80.104 75.927C79.6896 75.7506 79.2656 75.5979 78.8339 75.4697C78.4892 75.3887 78.0705 75.2902 77.87 75.7687Z" fill="#B74F74"/>
<path d="M75.2562 75.4556V75.8812L62.2746 83.438C62.0318 83.5788 61.7856 83.716 61.571 83.8778C60.4276 84.6834 60.4311 85.4961 61.6448 86.2032C68.8498 90.3897 76.0654 94.5621 83.2914 98.7205C84.9555 99.6739 86.7004 99.3995 88.3047 98.4883C92.6284 96.0256 96.9239 93.5173 101.23 91.0265C102.81 90.1083 102.933 89.1267 101.508 88.3035C95.4475 84.7854 89.3753 81.2885 83.2914 77.8127C83.309 77.6579 83.3266 77.5031 83.3407 77.3483L100.196 87.0194C100.832 87.3712 101.487 87.723 102.106 88.1276C103.193 88.8312 103.274 89.8374 102.352 90.7591C101.845 91.1905 101.285 91.5547 100.685 91.8427C98.398 93.2006 96.1112 94.5445 93.821 95.8955C92.2027 96.8031 90.5598 97.6545 88.9731 98.629C86.6864 100.015 84.5298 100.036 82.1621 98.6466C75.3758 94.629 68.5121 90.7415 61.68 86.8013C61.1629 86.5023 60.5894 86.2419 60.3608 85.6439C60.0301 84.789 60.3994 84.1029 61.089 83.6421C62.2781 82.847 63.52 82.1293 64.7443 81.3765L64.9377 81.2991L75.2562 75.4556Z" fill="#C02E57"/>
<path d="M48.4873 94.2211C48.9798 94.0065 49.2753 94.4076 49.6201 94.6011C55.3592 97.8846 61.0948 101.178 66.8269 104.48C67.3969 104.832 67.9773 105.152 68.5297 105.535C68.7583 105.686 69.3107 105.715 69.1066 106.095C68.9026 106.475 68.5684 106.038 68.3503 105.915C66.2394 104.73 64.1638 103.509 62.0705 102.299C57.7926 99.8289 53.517 97.3604 49.2437 94.8931C48.9517 94.7101 48.5577 94.6468 48.4873 94.2211Z" fill="#1A2544"/>
<path d="M50.8549 98.6816C51.4882 99.0334 52.03 99.336 52.5612 99.6456C55.7415 101.48 58.9195 103.316 62.0951 105.155C62.2745 105.26 62.6474 105.278 62.5067 105.612C62.366 105.946 62.1549 105.697 61.9896 105.612C58.3284 103.501 54.665 101.391 50.9992 99.2797C50.8549 99.1777 50.8162 99.0686 50.8549 98.6816Z" fill="#1E2845"/>
<path d="M26.3588 82.0621L42.5031 72.7568L42.7212 73.1368L26.5804 82.4526L26.3588 82.0621Z" fill="#5E8BC4"/>
<path d="M32.4238 75.7086L36.4309 73.3867L36.6209 73.7174C35.348 74.6049 34.0029 75.3839 32.5997 76.0464L32.4238 75.7086Z" fill="#6590C5"/>
<path d="M14.3832 95.153C14.3832 101.683 14.3832 108.212 14.3832 114.742C14.3832 115.92 14.3621 115.931 13.3278 115.343C11.6321 114.358 9.94696 113.359 8.2407 112.395C8.00583 112.292 7.80898 112.119 7.67775 111.899C7.54652 111.678 7.48749 111.423 7.50895 111.167C7.53006 98.0777 7.53709 84.9859 7.53006 71.8917C7.53006 70.7764 7.56172 70.7588 8.54677 71.3182C10.2214 72.2681 11.8713 73.2672 13.5706 74.1714C14.2355 74.5232 14.3903 74.9735 14.3903 75.6736C14.3727 82.182 14.3832 88.6622 14.3832 95.153ZM13.9153 115.146V108.11C13.9153 97.3682 13.9153 86.6276 13.9153 75.8882C13.9153 75.5364 14.1229 75.0685 13.7042 74.8328C11.8502 73.7492 9.97862 72.6938 7.98037 71.5504V98.2876C7.98037 102.462 7.98037 106.638 7.98037 110.815C7.98037 111.213 7.82909 111.656 8.33217 111.938C10.151 112.951 11.9558 114.003 13.9153 115.146Z" fill="#AD3256"/>
<path d="M68.3395 84.293C68.6913 84.0221 68.9271 84.3634 69.1698 84.5006C74.8432 87.7653 80.5132 91.036 86.1796 94.3124C86.3309 94.3969 86.4751 94.4989 86.6299 94.5798C86.7847 94.6607 86.8832 94.7276 86.7777 94.8859C86.7625 94.9169 86.7409 94.9443 86.7141 94.9662C86.6874 94.9881 86.6563 95.0039 86.6228 95.0126C86.5894 95.0213 86.5545 95.0226 86.5205 95.0166C86.4865 95.0105 86.4542 94.9971 86.4259 94.9774C86.2781 94.8824 86.1233 94.7979 85.972 94.71C80.2728 91.4265 74.5759 88.1347 68.8813 84.8348C68.6667 84.7117 68.2938 84.6976 68.3395 84.293Z" fill="#1F2B47"/>
<path d="M82.1867 89.5064L77.9193 87.0261L78.1269 86.6743L82.4119 89.137L82.1867 89.5064Z" fill="#2C374D"/>
<path d="M91.4321 86.9141L95.0064 88.944C94.9325 89.0671 94.8622 89.1902 94.7918 89.2958L91.2069 87.287C91.2843 87.1744 91.3582 87.0442 91.4321 86.9141Z" fill="#27314D"/>
<path d="M46.3588 9.12939V24.3731" stroke="#151515" stroke-miterlimit="10"/>
<path d="M57.7433 42.3504V15.3247" stroke="#151515" stroke-miterlimit="10"/>
<path d="M55.7168 17.3091L55.4882 17.0418L57.7503 15.0928L59.84 16.9468L59.6043 17.2106L57.7503 15.5607L55.7168 17.3091Z" fill="#151515"/>
<path d="M57.7468 43.7825C57.844 43.7825 57.9227 43.7037 57.9227 43.6066C57.9227 43.5094 57.844 43.4307 57.7468 43.4307C57.6497 43.4307 57.5709 43.5094 57.5709 43.6066C57.5709 43.7037 57.6497 43.7825 57.7468 43.7825Z" fill="#151515"/>
<path d="M57.7468 44.5774C57.844 44.5774 57.9227 44.4986 57.9227 44.4015C57.9227 44.3043 57.844 44.2256 57.7468 44.2256C57.6497 44.2256 57.5709 44.3043 57.5709 44.4015C57.5709 44.4986 57.6497 44.5774 57.7468 44.5774Z" fill="#151515"/>
<path d="M57.7468 45.3757C57.844 45.3757 57.9227 45.297 57.9227 45.1998C57.9227 45.1027 57.844 45.0239 57.7468 45.0239C57.6497 45.0239 57.5709 45.1027 57.5709 45.1998C57.5709 45.297 57.6497 45.3757 57.7468 45.3757Z" fill="#151515"/>
<path d="M57.7468 46.1711C57.844 46.1711 57.9227 46.0924 57.9227 45.9952C57.9227 45.8981 57.844 45.8193 57.7468 45.8193C57.6497 45.8193 57.5709 45.8981 57.5709 45.9952C57.5709 46.0924 57.6497 46.1711 57.7468 46.1711Z" fill="#151515"/>
<path d="M57.7468 46.9695C57.844 46.9695 57.9227 46.8907 57.9227 46.7936C57.9227 46.6964 57.844 46.6177 57.7468 46.6177C57.6497 46.6177 57.5709 46.6964 57.5709 46.7936C57.5709 46.8907 57.6497 46.9695 57.7468 46.9695Z" fill="#151515"/>
<path d="M57.7468 47.7683C57.844 47.7683 57.9227 47.6896 57.9227 47.5924C57.9227 47.4953 57.844 47.4165 57.7468 47.4165C57.6497 47.4165 57.5709 47.4953 57.5709 47.5924C57.5709 47.6896 57.6497 47.7683 57.7468 47.7683Z" fill="#151515"/>
<path d="M57.7468 48.5632C57.844 48.5632 57.9227 48.4845 57.9227 48.3873C57.9227 48.2902 57.844 48.2114 57.7468 48.2114C57.6497 48.2114 57.5709 48.2902 57.5709 48.3873C57.5709 48.4845 57.6497 48.5632 57.7468 48.5632Z" fill="#151515"/>
<path d="M57.7468 49.3621C57.844 49.3621 57.9227 49.2833 57.9227 49.1862C57.9227 49.089 57.844 49.0103 57.7468 49.0103C57.6497 49.0103 57.5709 49.089 57.5709 49.1862C57.5709 49.2833 57.6497 49.3621 57.7468 49.3621Z" fill="#151515"/>
<path d="M57.7468 50.157C57.844 50.157 57.9227 50.0782 57.9227 49.9811C57.9227 49.8839 57.844 49.8052 57.7468 49.8052C57.6497 49.8052 57.5709 49.8839 57.5709 49.9811C57.5709 50.0782 57.6497 50.157 57.7468 50.157Z" fill="#151515"/>
<path d="M57.7468 50.9558C57.844 50.9558 57.9227 50.8771 57.9227 50.7799C57.9227 50.6828 57.844 50.604 57.7468 50.604C57.6497 50.604 57.5709 50.6828 57.5709 50.7799C57.5709 50.8771 57.6497 50.9558 57.7468 50.9558Z" fill="#151515"/>
<path d="M57.7468 51.7541C57.844 51.7541 57.9227 51.6754 57.9227 51.5782C57.9227 51.4811 57.844 51.4023 57.7468 51.4023C57.6497 51.4023 57.5709 51.4811 57.5709 51.5782C57.5709 51.6754 57.6497 51.7541 57.7468 51.7541Z" fill="#151515"/>
<path d="M57.7468 52.5496C57.844 52.5496 57.9227 52.4708 57.9227 52.3737C57.9227 52.2765 57.844 52.1978 57.7468 52.1978C57.6497 52.1978 57.5709 52.2765 57.5709 52.3737C57.5709 52.4708 57.6497 52.5496 57.7468 52.5496Z" fill="#151515"/>
<path d="M57.7468 53.3479C57.844 53.3479 57.9227 53.2691 57.9227 53.172C57.9227 53.0748 57.844 52.9961 57.7468 52.9961C57.6497 52.9961 57.5709 53.0748 57.5709 53.172C57.5709 53.2691 57.6497 53.3479 57.7468 53.3479Z" fill="#151515"/>
<path d="M57.7468 54.1428C57.844 54.1428 57.9227 54.0641 57.9227 53.9669C57.9227 53.8698 57.844 53.791 57.7468 53.791C57.6497 53.791 57.5709 53.8698 57.5709 53.9669C57.5709 54.0641 57.6497 54.1428 57.7468 54.1428Z" fill="#151515"/>
<path d="M57.7468 54.9416C57.844 54.9416 57.9227 54.8629 57.9227 54.7657C57.9227 54.6686 57.844 54.5898 57.7468 54.5898C57.6497 54.5898 57.5709 54.6686 57.5709 54.7657C57.5709 54.8629 57.6497 54.9416 57.7468 54.9416Z" fill="#151515"/>
<path d="M57.7468 55.7405C57.844 55.7405 57.9227 55.6617 57.9227 55.5646C57.9227 55.4674 57.844 55.3887 57.7468 55.3887C57.6497 55.3887 57.5709 55.4674 57.5709 55.5646C57.5709 55.6617 57.6497 55.7405 57.7468 55.7405Z" fill="#151515"/>
<path d="M57.7468 56.5354C57.844 56.5354 57.9227 56.4566 57.9227 56.3595C57.9227 56.2623 57.844 56.1836 57.7468 56.1836C57.6497 56.1836 57.5709 56.2623 57.5709 56.3595C57.5709 56.4566 57.6497 56.5354 57.7468 56.5354Z" fill="#151515"/>
<path d="M57.7468 57.3342C57.844 57.3342 57.9227 57.2555 57.9227 57.1583C57.9227 57.0612 57.844 56.9824 57.7468 56.9824C57.6497 56.9824 57.5709 57.0612 57.5709 57.1583C57.5709 57.2555 57.6497 57.3342 57.7468 57.3342Z" fill="#151515"/>
<path d="M57.7468 58.1291C57.844 58.1291 57.9227 58.0504 57.9227 57.9532C57.9227 57.8561 57.844 57.7773 57.7468 57.7773C57.6497 57.7773 57.5709 57.8561 57.5709 57.9532C57.5709 58.0504 57.6497 58.1291 57.7468 58.1291Z" fill="#151515"/>
<path d="M57.7468 58.9275C57.844 58.9275 57.9227 58.8487 57.9227 58.7516C57.9227 58.6544 57.844 58.5757 57.7468 58.5757C57.6497 58.5757 57.5709 58.6544 57.5709 58.7516C57.5709 58.8487 57.6497 58.9275 57.7468 58.9275Z" fill="#151515"/>
<path d="M57.7468 59.7263C57.844 59.7263 57.9227 59.6476 57.9227 59.5504C57.9227 59.4533 57.844 59.3745 57.7468 59.3745C57.6497 59.3745 57.5709 59.4533 57.5709 59.5504C57.5709 59.6476 57.6497 59.7263 57.7468 59.7263Z" fill="#151515"/>
</svg>
