<svg width="68" height="12" viewBox="0 0 68 12" fill="none" xmlns="http://www.w3.org/2000/svg">
<path d="M11.3002 4.12737H7.64456C7.57183 4.13151 7.49966 4.1126 7.43836 4.07334C7.37707 4.03408 7.32979 3.97648 7.30329 3.90879L6.18389 0.265807C6.16261 0.189371 6.1168 0.121998 6.05349 0.0739939C5.99018 0.0259901 5.91285 0 5.83333 0C5.75381 0 5.67648 0.0259901 5.61317 0.0739939C5.54986 0.121998 5.50406 0.189371 5.48277 0.265807L4.36337 3.90879C4.33688 3.97648 4.2896 4.03408 4.2283 4.07334C4.16701 4.1126 4.09483 4.13151 4.02211 4.12737H0.366468C0.287134 4.13373 0.211527 4.16365 0.149395 4.21327C0.0872639 4.2629 0.0414568 4.32995 0.0178799 4.40579C-0.00569709 4.48162 -0.00596284 4.56277 0.0171169 4.63876C0.0401967 4.71475 0.0855637 4.7821 0.147369 4.83213L3.12181 7.02189C3.18039 7.07103 3.22302 7.13643 3.2443 7.20977C3.26558 7.28312 3.26454 7.36112 3.24132 7.43388L1.82846 11.1749C1.8025 11.2483 1.80085 11.328 1.82375 11.4024C1.84666 11.4767 1.89291 11.5418 1.95569 11.5879C2.01847 11.6341 2.09445 11.6589 2.17243 11.6587C2.25041 11.6585 2.32627 11.6333 2.38882 11.5869L5.57573 9.20238C5.61247 9.17569 5.65416 9.15655 5.69839 9.14609C5.74262 9.13562 5.78849 9.13405 5.83333 9.14145C5.87807 9.13571 5.92351 9.13884 5.96703 9.15066C6.01055 9.16248 6.05131 9.18276 6.08696 9.21033L9.27386 11.5948C9.33641 11.6413 9.41227 11.6665 9.49025 11.6667C9.56824 11.6669 9.64422 11.642 9.707 11.5959C9.76977 11.5497 9.81603 11.4847 9.83893 11.4103C9.86184 11.3359 9.86019 11.2562 9.83422 11.1828L8.42535 7.43255C8.40213 7.3598 8.40109 7.2818 8.42237 7.20845C8.44364 7.1351 8.48628 7.06971 8.54486 7.02057L11.5193 4.83213C11.5811 4.7821 11.6265 4.71475 11.6495 4.63876C11.6726 4.56277 11.6724 4.48162 11.6488 4.40579C11.6252 4.32995 11.5794 4.2629 11.5173 4.21327C11.4551 4.16365 11.3795 4.13373 11.3002 4.12737Z" fill="#F7BC00"/>
<path d="M25.3002 4.12737H21.6446C21.5718 4.13151 21.4997 4.1126 21.4384 4.07334C21.3771 4.03408 21.3298 3.97648 21.3033 3.90879L20.1839 0.265807C20.1626 0.189371 20.1168 0.121998 20.0535 0.0739939C19.9902 0.0259901 19.9129 0 19.8333 0C19.7538 0 19.6765 0.0259901 19.6132 0.0739939C19.5499 0.121998 19.5041 0.189371 19.4828 0.265807L18.3634 3.90879C18.3369 3.97648 18.2896 4.03408 18.2283 4.07334C18.167 4.1126 18.0948 4.13151 18.0221 4.12737H14.3665C14.2871 4.13373 14.2115 4.16365 14.1494 4.21327C14.0873 4.2629 14.0415 4.32995 14.0179 4.40579C13.9943 4.48162 13.994 4.56277 14.0171 4.63876C14.0402 4.71475 14.0856 4.7821 14.1474 4.83213L17.1218 7.02189C17.1804 7.07103 17.223 7.13643 17.2443 7.20977C17.2656 7.28312 17.2645 7.36112 17.2413 7.43388L15.8285 11.1749C15.8025 11.2483 15.8008 11.328 15.8238 11.4024C15.8467 11.4767 15.8929 11.5418 15.9557 11.5879C16.0185 11.6341 16.0944 11.6589 16.1724 11.6587C16.2504 11.6585 16.3263 11.6333 16.3888 11.5869L19.5757 9.20238C19.6125 9.17568 19.6542 9.15655 19.6984 9.14609C19.7426 9.13562 19.7885 9.13405 19.8333 9.14145C19.8781 9.13571 19.9235 9.13884 19.967 9.15066C20.0106 9.16248 20.0513 9.18276 20.087 9.21033L23.2739 11.5948C23.3364 11.6413 23.4123 11.6665 23.4903 11.6667C23.5682 11.6669 23.6442 11.642 23.707 11.5959C23.7698 11.5497 23.816 11.4847 23.8389 11.4103C23.8618 11.3359 23.8602 11.2562 23.8342 11.1828L22.4253 7.43255C22.4021 7.3598 22.4011 7.2818 22.4224 7.20845C22.4436 7.1351 22.4863 7.06971 22.5449 7.02057L25.5193 4.83213C25.5811 4.7821 25.6265 4.71475 25.6495 4.63876C25.6726 4.56277 25.6724 4.48162 25.6488 4.40579C25.6252 4.32995 25.5794 4.2629 25.5173 4.21327C25.4551 4.16365 25.3795 4.13373 25.3002 4.12737Z" fill="#F7BC00"/>
<path d="M39.3002 4.12737H35.6446C35.5718 4.13151 35.4997 4.1126 35.4384 4.07334C35.3771 4.03408 35.3298 3.97648 35.3033 3.90879L34.1839 0.265807C34.1626 0.189371 34.1168 0.121998 34.0535 0.0739939C33.9902 0.0259901 33.9129 0 33.8333 0C33.7538 0 33.6765 0.0259901 33.6132 0.0739939C33.5499 0.121998 33.5041 0.189371 33.4828 0.265807L32.3634 3.90879C32.3369 3.97648 32.2896 4.03408 32.2283 4.07334C32.167 4.1126 32.0948 4.13151 32.0221 4.12737H28.3665C28.2871 4.13373 28.2115 4.16365 28.1494 4.21327C28.0873 4.2629 28.0415 4.32995 28.0179 4.40579C27.9943 4.48162 27.994 4.56277 28.0171 4.63876C28.0402 4.71475 28.0856 4.7821 28.1474 4.83213L31.1218 7.02189C31.1804 7.07103 31.223 7.13643 31.2443 7.20977C31.2656 7.28312 31.2645 7.36112 31.2413 7.43388L29.8285 11.1749C29.8025 11.2483 29.8008 11.328 29.8238 11.4024C29.8467 11.4767 29.8929 11.5418 29.9557 11.5879C30.0185 11.6341 30.0944 11.6589 30.1724 11.6587C30.2504 11.6585 30.3263 11.6333 30.3888 11.5869L33.5757 9.20238C33.6125 9.17568 33.6542 9.15655 33.6984 9.14609C33.7426 9.13562 33.7885 9.13405 33.8333 9.14145C33.8781 9.13571 33.9235 9.13884 33.967 9.15066C34.0106 9.16248 34.0513 9.18276 34.087 9.21033L37.2739 11.5948C37.3364 11.6413 37.4123 11.6665 37.4903 11.6667C37.5682 11.6669 37.6442 11.642 37.707 11.5959C37.7698 11.5497 37.816 11.4847 37.8389 11.4103C37.8618 11.3359 37.8602 11.2562 37.8342 11.1828L36.4253 7.43255C36.4021 7.3598 36.4011 7.2818 36.4224 7.20845C36.4436 7.1351 36.4863 7.06971 36.5449 7.02057L39.5193 4.83213C39.5811 4.7821 39.6265 4.71475 39.6495 4.63876C39.6726 4.56277 39.6724 4.48162 39.6488 4.40579C39.6252 4.32995 39.5794 4.2629 39.5173 4.21327C39.4551 4.16365 39.3795 4.13373 39.3002 4.12737Z" fill="#F7BC00"/>
<path d="M53.3002 4.12737H49.6446C49.5718 4.13151 49.4997 4.1126 49.4384 4.07334C49.3771 4.03408 49.3298 3.97648 49.3033 3.90879L48.1839 0.265807C48.1626 0.189371 48.1168 0.121998 48.0535 0.0739939C47.9902 0.0259901 47.9129 0 47.8333 0C47.7538 0 47.6765 0.0259901 47.6132 0.0739939C47.5499 0.121998 47.5041 0.189371 47.4828 0.265807L46.3634 3.90879C46.3369 3.97648 46.2896 4.03408 46.2283 4.07334C46.167 4.1126 46.0948 4.13151 46.0221 4.12737H42.3665C42.2871 4.13373 42.2115 4.16365 42.1494 4.21327C42.0873 4.2629 42.0415 4.32995 42.0179 4.40579C41.9943 4.48162 41.994 4.56277 42.0171 4.63876C42.0402 4.71475 42.0856 4.7821 42.1474 4.83213L45.1218 7.02189C45.1804 7.07103 45.223 7.13643 45.2443 7.20977C45.2656 7.28312 45.2645 7.36112 45.2413 7.43388L43.8285 11.1749C43.8025 11.2483 43.8008 11.328 43.8238 11.4024C43.8467 11.4767 43.8929 11.5418 43.9557 11.5879C44.0185 11.6341 44.0944 11.6589 44.1724 11.6587C44.2504 11.6585 44.3263 11.6333 44.3888 11.5869L47.5757 9.20238C47.6125 9.17568 47.6542 9.15655 47.6984 9.14609C47.7426 9.13562 47.7885 9.13405 47.8333 9.14145C47.8781 9.13571 47.9235 9.13884 47.967 9.15066C48.0106 9.16248 48.0513 9.18276 48.087 9.21033L51.2739 11.5948C51.3364 11.6413 51.4123 11.6665 51.4903 11.6667C51.5682 11.6669 51.6442 11.642 51.707 11.5959C51.7698 11.5497 51.816 11.4847 51.8389 11.4103C51.8618 11.3359 51.8602 11.2562 51.8342 11.1828L50.4253 7.43255C50.4021 7.3598 50.4011 7.2818 50.4224 7.20845C50.4436 7.1351 50.4863 7.06971 50.5449 7.02057L53.5193 4.83213C53.5811 4.7821 53.6265 4.71475 53.6495 4.63876C53.6726 4.56277 53.6724 4.48162 53.6488 4.40579C53.6252 4.32995 53.5794 4.2629 53.5173 4.21327C53.4551 4.16365 53.3795 4.13373 53.3002 4.12737Z" fill="#F7BC00"/>
<path d="M62.1831 0.267615L63.3023 3.91248C63.3509 4.05828 63.4969 4.13117 63.6429 4.13117H67.2924C67.6573 4.13117 67.8033 4.61716 67.5114 4.83585L64.5431 7.02277C64.4214 7.11997 64.3728 7.29006 64.4214 7.43585L65.8326 11.1779C65.9299 11.5181 65.5649 11.8097 65.273 11.591L62.0858 9.20969C61.9641 9.11249 61.7938 9.11249 61.6478 9.20969L58.4363 11.591C58.1443 11.8097 57.755 11.5181 57.8767 11.1779L59.2391 7.43585C59.2878 7.29006 59.2391 7.11997 59.1175 7.02277L56.1492 4.83585C55.8573 4.61716 56.0276 4.13117 56.3682 4.13117H60.0177C60.188 4.13117 60.3097 4.08258 60.3583 3.91248L61.5018 0.243316C61.5992 -0.0968713 62.0858 -0.0725722 62.1831 0.267615ZM61.8425 2.62487C61.8392 2.95721 61.8392 7.66459 61.8392 7.89609C61.8846 7.93308 62.5528 8.42914 63.8439 9.38426C64.0142 9.51179 64.227 9.34174 64.1702 9.14335L63.3741 7.05164C63.2892 6.86454 63.3741 6.74271 63.479 6.67861L65.1493 5.51497C65.3195 5.38743 65.2344 5.10402 65.0216 5.10402H63.0607C62.9756 5.10402 62.752 5.07561 62.6914 4.85711L62.0419 2.7807C62.0138 2.68234 61.9269 2.62926 61.8425 2.62487Z" fill="#F7BC00"/>
</svg>
