<svg width="72" height="72" viewBox="0 0 72 72" fill="none" xmlns="http://www.w3.org/2000/svg">
<rect width="72" height="72" rx="7" fill="#2863F5"/>
<g clip-path="url(#clip0_1380_4)">
<path d="M41.2678 54.6618H23.119C22.1441 54.698 21.1899 54.374 20.4386 53.7516C19.6872 53.1292 19.1913 52.252 19.0454 51.2874C19.0092 51.0549 18.9939 50.8196 18.9998 50.5844C18.9998 40.8615 18.9998 31.1411 18.9998 21.4232C18.9839 20.8803 19.0795 20.3399 19.2805 19.8354C19.4816 19.3309 19.7839 18.8729 20.1688 18.4898C20.5537 18.1067 21.0131 17.8065 21.5186 17.6077C22.024 17.409 22.5648 17.316 23.1076 17.3344H46.8918C47.4345 17.317 47.9749 17.411 48.4798 17.6107C48.9847 17.8104 49.4433 18.1115 49.8272 18.4954C50.2111 18.8793 50.5122 19.3379 50.7119 19.8428C50.9116 20.3477 51.0056 20.8881 50.9882 21.4308C50.9882 26.2441 50.9882 31.0575 50.9882 35.8708V36.2508C50.0838 36.1596 49.206 36.0038 48.3282 36.0038C47.4504 36.0038 46.5688 36.1596 45.6682 36.2508C45.6625 36.2207 45.6625 36.1897 45.6682 36.1596C45.6949 35.9606 45.6768 35.7581 45.615 35.567C45.5533 35.3759 45.4496 35.2011 45.3115 35.0553C45.1734 34.9095 45.0044 34.7965 44.8169 34.7246C44.6294 34.6527 44.4282 34.6236 44.228 34.6396C41.9252 34.6396 39.6186 34.6396 37.3158 34.6396H33.9186C32.9572 34.6396 32.3378 35.1602 32.3302 35.9658C32.3226 36.7714 32.9572 37.311 33.9034 37.311H43.0804C42.5522 37.691 42.0848 37.9988 41.6478 38.3484C39.9491 39.6945 38.7124 41.5369 38.11 43.619C38.1066 43.677 38.091 43.7335 38.0641 43.785C38.0373 43.8365 37.9998 43.8816 37.9542 43.9176C37.9086 43.9535 37.8559 43.9793 37.7995 43.9933C37.7432 44.0074 37.6845 44.0093 37.6274 43.999C36.3658 43.999 35.1004 43.999 33.8274 43.999C32.9382 43.999 32.3264 44.5424 32.3074 45.3214C32.2884 46.1004 32.9268 46.6666 33.8274 46.6666H37.6274C37.6434 48.1794 37.9755 49.6721 38.6025 51.049C39.2294 52.4259 40.1373 53.6565 41.2678 54.6618ZM38.9916 28.02C40.7396 28.02 42.4914 28.02 44.2394 28.02C44.4225 28.0338 44.6065 28.0097 44.7799 27.9492C44.9532 27.8886 45.1122 27.7929 45.2469 27.6681C45.3815 27.5432 45.489 27.3919 45.5624 27.2236C45.6359 27.0553 45.6738 26.8736 45.6738 26.69C45.6738 26.5064 45.6359 26.3247 45.5624 26.1564C45.489 25.9881 45.3815 25.8368 45.2469 25.7119C45.1122 25.5871 44.9532 25.4914 44.7799 25.4308C44.6065 25.3703 44.4225 25.3461 44.2394 25.36C43.7416 25.36 43.24 25.36 42.7422 25.36H33.8198C33.5269 25.3344 33.2334 25.4022 32.9815 25.5538C32.7296 25.7053 32.5322 25.9328 32.4176 26.2036C32.3349 26.4118 32.306 26.6375 32.3335 26.8599C32.3611 27.0823 32.4442 27.2941 32.5752 27.4759C32.7062 27.6576 32.8809 27.8034 33.0832 27.8999C33.2854 27.9963 33.5087 28.0402 33.7324 28.0276C35.4918 28.02 37.2398 28.02 38.9916 28.02ZM26.9798 25.3296C26.5618 25.3296 26.1476 25.3296 25.7296 25.3296C25.5465 25.3157 25.3625 25.3399 25.1891 25.4004C25.0158 25.461 24.8568 25.5567 24.7221 25.6815C24.5875 25.8064 24.48 25.9577 24.4066 26.126C24.3331 26.2943 24.2952 26.476 24.2952 26.6596C24.2952 26.8432 24.3331 27.0249 24.4066 27.1932C24.48 27.3615 24.5875 27.5128 24.7221 27.6377C24.8568 27.7625 25.0158 27.8582 25.1891 27.9188C25.3625 27.9793 25.5465 28.0034 25.7296 27.9896C26.5783 27.9896 27.4244 27.9896 28.268 27.9896C28.4511 28.0034 28.6351 27.9793 28.8085 27.9188C28.9818 27.8582 29.1408 27.7625 29.2755 27.6377C29.4101 27.5128 29.5176 27.3615 29.591 27.1932C29.6645 27.0249 29.7024 26.8432 29.7024 26.6596C29.7024 26.476 29.6645 26.2943 29.591 26.126C29.5176 25.9577 29.4101 25.8064 29.2755 25.6815C29.1408 25.5567 28.9818 25.461 28.8085 25.4004C28.6351 25.3399 28.4511 25.3157 28.268 25.3296C27.8424 25.322 27.4092 25.3296 26.9798 25.3296ZM27.0064 34.6624C26.577 34.6624 26.1476 34.6624 25.7144 34.6624C25.3617 34.6594 25.0222 34.7966 24.7706 35.0439C24.5191 35.2912 24.376 35.6283 24.373 35.981C24.37 36.3337 24.5072 36.6732 24.7545 36.9248C25.0018 37.1763 25.3389 37.3194 25.6916 37.3224C26.5707 37.3401 27.4459 37.3401 28.3174 37.3224C28.4921 37.3211 28.6648 37.2855 28.8257 37.2175C28.9865 37.1495 29.1325 37.0505 29.2551 36.9261C29.3777 36.8017 29.4746 36.6544 29.5403 36.4926C29.606 36.3307 29.6392 36.1576 29.6379 35.9829C29.6367 35.8082 29.601 35.6355 29.533 35.4747C29.465 35.3138 29.366 35.1678 29.2416 35.0452C29.1173 34.9226 28.9699 34.8257 28.8081 34.76C28.6463 34.6943 28.4731 34.6611 28.2984 34.6624C27.869 34.6548 27.4358 34.6624 27.0064 34.6624ZM26.9798 46.6666C27.4092 46.6666 27.8386 46.6666 28.268 46.6666C28.4511 46.6804 28.6351 46.6563 28.8085 46.5958C28.9818 46.5352 29.1408 46.4395 29.2755 46.3147C29.4101 46.1898 29.5176 46.0385 29.591 45.8702C29.6645 45.7019 29.7024 45.5202 29.7024 45.3366C29.7024 45.153 29.6645 44.9713 29.591 44.803C29.5176 44.6347 29.4101 44.4834 29.2755 44.3585C29.1408 44.2337 28.9818 44.138 28.8085 44.0774C28.6351 44.0169 28.4511 43.9927 28.268 44.0066C27.4193 44.0066 26.5719 44.0066 25.7258 44.0066C25.5427 43.9927 25.3587 44.0169 25.1853 44.0774C25.012 44.138 24.853 44.2337 24.7183 44.3585C24.5837 44.4834 24.4762 44.6347 24.4028 44.803C24.3293 44.9713 24.2914 45.153 24.2914 45.3366C24.2914 45.5202 24.3293 45.7019 24.4028 45.8702C24.4762 46.0385 24.5837 46.1898 24.7183 46.3147C24.853 46.4395 25.012 46.5352 25.1853 46.5958C25.3587 46.6563 25.5427 46.6804 25.7258 46.6666C26.1438 46.6742 26.5618 46.6666 26.9798 46.6666Z" fill="white"/>
<path d="M56.2932 47.1416C56.2087 48.4549 55.8007 49.7268 55.1056 50.8442C54.4105 51.9617 53.4498 52.8898 52.3092 53.5461C51.1685 54.2023 49.8832 54.5663 48.5678 54.6056C47.2525 54.6449 45.9478 54.3582 44.77 53.7712C43.5922 53.1842 42.5779 52.315 41.8173 51.241C41.0568 50.1671 40.5736 48.9217 40.4109 47.6158C40.2482 46.31 40.411 44.9841 40.8847 43.7564C41.3585 42.5286 42.1285 41.4371 43.1262 40.579C45.7216 38.299 49.9054 38.0102 52.668 39.9786C52.5825 40.0061 52.4998 40.0417 52.421 40.085C51.281 40.921 50.103 41.757 48.9554 42.6082C48.8856 42.6712 48.7949 42.7061 48.7008 42.7061C48.6067 42.7061 48.516 42.6712 48.4462 42.6082C47.8643 42.2426 47.1976 42.0341 46.5111 42.0031C45.8246 41.9721 45.1418 42.1196 44.5293 42.4312C43.9168 42.7428 43.3956 43.2079 43.0165 43.781C42.6374 44.3542 42.4133 45.0158 42.3662 45.7014C42.3123 46.2291 42.3733 46.7622 42.5452 47.2641C42.7171 47.7659 42.9957 48.2246 43.3618 48.6084C44.1218 49.4216 44.8818 50.212 45.714 50.9644C46.3889 51.576 47.2559 51.9334 48.1658 51.975C49.0757 52.0166 49.9716 51.7399 50.6996 51.1924C52.3982 49.9878 54.0702 48.749 55.7536 47.5254L56.2932 47.1416Z" fill="white"/>
<path d="M48.4424 46.26L52.117 43.6C53.0024 42.9578 53.8878 42.308 54.777 41.6696C54.9166 41.5476 55.08 41.4558 55.2569 41.4001C55.4338 41.3444 55.6203 41.326 55.8046 41.3461C55.989 41.3661 56.1671 41.4241 56.3279 41.5165C56.4887 41.6089 56.6286 41.7336 56.7388 41.8827C56.8489 42.0319 56.927 42.2023 56.968 42.3831C57.0089 42.564 57.012 42.7513 56.9769 42.9334C56.9418 43.1155 56.8694 43.2883 56.7641 43.441C56.6589 43.5937 56.5231 43.7229 56.3654 43.8204C53.9841 45.5659 51.5939 47.3037 49.1948 49.034C49.0606 49.1509 48.9043 49.2395 48.7351 49.2947C48.566 49.3499 48.3874 49.3705 48.2101 49.3553C48.0329 49.34 47.8605 49.2892 47.7032 49.206C47.5459 49.1227 47.407 49.0087 47.2948 48.8706C46.6716 48.2474 46.0522 47.6229 45.4366 46.9972C45.1846 46.7452 45.0431 46.4035 45.0431 46.0472C45.0431 45.6909 45.1846 45.3492 45.4366 45.0972C45.6885 44.8452 46.0303 44.7037 46.3866 44.7037C46.7429 44.7037 47.0846 44.8452 47.3366 45.0972C47.6976 45.4734 48.0472 45.8458 48.4424 46.26Z" fill="white"/>
</g>
<defs>
<clipPath id="clip0_1380_4">
<rect width="38" height="38" fill="white" transform="translate(19 17)"/>
</clipPath>
</defs>
</svg>
