<svg width="22" height="22" viewBox="0 0 22 22" fill="none" xmlns="http://www.w3.org/2000/svg">
<path d="M11 6.55556V21M11 6.55556H6C5.26329 6.55556 4.55674 6.2629 4.03581 5.74197C3.51488 5.22103 3.22222 4.51449 3.22222 3.77778C3.22222 3.04107 3.51488 2.33452 4.03581 1.81359C4.55674 1.29266 5.26329 1 6 1C9.88889 1 11 6.55556 11 6.55556ZM11 6.55556H16C16.7367 6.55556 17.4432 6.2629 17.9642 5.74197C18.4851 5.22103 18.7778 4.51449 18.7778 3.77778C18.7778 3.04107 18.4851 2.33452 17.9642 1.81359C17.4432 1.29266 16.7367 1 16 1C12.1111 1 11 6.55556 11 6.55556ZM1 13.2222H21M4.55556 21H17.4444C18.689 21 19.3113 21 19.7867 20.7578C20.2048 20.5448 20.5448 20.2048 20.7578 19.7867C21 19.3113 21 18.689 21 17.4444V10.1111C21 8.86656 21 8.24427 20.7578 7.76891C20.5448 7.35077 20.2048 7.01081 19.7867 6.79777C19.3113 6.55556 18.689 6.55556 17.4444 6.55556H4.55556C3.311 6.55556 2.68871 6.55556 2.21336 6.79777C1.79521 7.01081 1.45526 7.35077 1.24221 7.76891C1 8.24427 1 8.86656 1 10.1111V17.4444C1 18.689 1 19.3113 1.24221 19.7867C1.45526 20.2048 1.79521 20.5448 2.21336 20.7578C2.68871 21 3.31099 21 4.55556 21Z" stroke="#2863F5" stroke-width="1.5" stroke-linecap="round" stroke-linejoin="round"/>
</svg>
