<svg width="23" height="21" viewBox="0 0 23 21" fill="none" xmlns="http://www.w3.org/2000/svg">
<path d="M12.0961 5.44629H5.07373V6.6167H12.0961V5.44629Z" fill="black"/>
<path d="M12.0961 9.73779H5.07373V10.9082H12.0961V9.73779Z" fill="black"/>
<path d="M9.36519 14.0293H5.07373V15.1997H9.36519V14.0293Z" fill="black"/>
<path d="M20.2326 2.67638C16.7568 3.15526 13.1246 11.5634 11.4865 14.5812C11.0751 15.3394 12.0319 15.9722 12.4554 15.2464C12.7606 14.7248 14.4251 11.4395 14.4251 11.4395C16.2382 11.4994 16.9069 10.2333 16.1822 9.44698C18.619 9.49727 19.8268 8.15618 19.1357 7.34238C19.8626 7.57253 20.492 7.41856 21.427 6.90882C23.4218 5.82064 23.3289 2.17838 20.2326 2.67638Z" fill="black"/>
<path d="M15.6096 12.4786V18.5321C15.6096 18.7115 15.4633 18.8575 15.2842 18.8579H1.88592C1.70683 18.8575 1.56092 18.7115 1.56057 18.5321V1.88628C1.56097 1.70679 1.70688 1.56092 1.88592 1.56052H15.2842C15.4633 1.56092 15.6096 1.70684 15.6096 1.88628V4.90864C16.1201 4.22097 16.639 3.61255 17.1701 3.10735V1.88632C17.1693 0.844301 16.3266 0.000800496 15.2842 0H1.88592C0.843901 0.000800496 0.000400248 0.844301 0 1.88632V18.5322C0.000400248 19.5742 0.843901 20.4177 1.88592 20.4184H15.2842C16.3266 20.4177 17.1693 19.5742 17.1701 18.5322V11.4857C16.8089 11.9616 16.271 12.3045 15.6096 12.4786Z" fill="black"/>
</svg>
