<svg width="24" height="25" viewBox="0 0 24 25" fill="none" xmlns="http://www.w3.org/2000/svg">
<path d="M10.4297 24.4796C9.99504 24.4193 9.55764 24.3748 9.12564 24.2909C5.04324 23.5131 2.05884 21.3239 0.172438 17.7234C0.101524 17.5857 0.0592399 17.4358 0.0479991 17.2822C0.0367584 17.1286 0.0567814 16.9744 0.106925 16.8283C0.157069 16.6822 0.236351 16.5472 0.340245 16.4309C0.444139 16.3145 0.57061 16.2192 0.712438 16.1504C0.854266 16.0815 1.00867 16.0405 1.16684 16.0295C1.32501 16.0186 1.48384 16.0381 1.63428 16.0868C1.78471 16.1354 1.92379 16.2124 2.04358 16.3133C2.16337 16.4142 2.26152 16.537 2.33244 16.6747C3.07798 18.1683 4.20793 19.4497 5.61294 20.395C7.45683 21.6858 9.71813 22.2881 11.9822 22.0912C16.1159 21.7242 19.0022 19.6373 20.5682 15.917C22.1882 12.0788 20.8382 7.49339 17.4848 4.93195C16.3326 4.03972 14.9901 3.40779 13.555 3.08202C12.1199 2.75626 10.6281 2.74483 9.18792 3.04858C7.74771 3.35232 6.3952 3.96361 5.22857 4.83808C4.06193 5.71255 3.11044 6.82827 2.44314 8.10425C2.40264 8.18028 2.36484 8.25632 2.32164 8.33235C2.25676 8.47953 2.16159 8.61229 2.04195 8.72246C1.92231 8.83263 1.78074 8.91788 1.62594 8.97299C1.47113 9.02809 1.30636 9.05189 1.14174 9.0429C0.977116 9.03392 0.816124 8.99235 0.66865 8.92076C0.521177 8.84916 0.390335 8.74904 0.284162 8.62655C0.177989 8.50406 0.0987272 8.36178 0.0512443 8.20846C0.00376144 8.05515 -0.0109395 7.89402 0.00804449 7.73498C0.0270284 7.57595 0.0792964 7.42236 0.161638 7.28365C0.652444 6.28199 1.28895 5.35403 2.05164 4.5282C3.91595 2.45455 6.46958 1.0807 9.26874 0.645407C12.3532 0.139496 15.5204 0.791849 18.1278 2.47012C20.7351 4.14839 22.5874 6.7269 23.3087 9.68254C23.4491 10.2646 23.5085 10.8676 23.6057 11.4575C23.6057 11.5204 23.6354 11.5781 23.6516 11.6384V13.3268C23.6138 13.602 23.5814 13.8799 23.5382 14.1578C23.1712 16.6622 21.9996 18.9901 20.1903 20.8101C18.381 22.63 16.0264 23.849 13.4618 24.2935C13.0298 24.3695 12.5924 24.4193 12.1577 24.4796H10.4297Z" fill="#2863F5"/>
<path d="M13.7319 11.3134L11.9796 9.61453C11.8366 9.48711 11.7282 9.32732 11.6641 9.14938C11.6 8.97145 11.5823 8.78089 11.6124 8.59467C11.6457 8.37806 11.7405 8.17472 11.886 8.00743C12.0316 7.84015 12.2223 7.71551 12.4367 7.64747C12.6511 7.57944 12.8807 7.5707 13.1 7.62223C13.3192 7.67376 13.5193 7.78353 13.6779 7.93924C14.3556 8.58681 15.0279 9.25011 15.6948 9.89243C16.0242 10.2123 16.359 10.5295 16.683 10.8546C16.9101 11.0665 17.0908 11.3207 17.2143 11.6021C17.3377 11.8834 17.4013 12.1861 17.4013 12.4919C17.4013 12.7977 17.3377 13.1004 17.2143 13.3817C17.0908 13.6631 16.9101 13.9173 16.683 14.1292C15.6912 15.0992 14.6958 16.0658 13.6968 17.0288C13.5842 17.1385 13.4505 17.2255 13.3033 17.285C13.1561 17.3445 12.9982 17.3752 12.8388 17.3755C12.6793 17.3757 12.5214 17.3454 12.374 17.2864C12.2265 17.2274 12.0925 17.1407 11.9796 17.0314C11.8667 16.9221 11.777 16.7923 11.7158 16.6493C11.6545 16.5064 11.6229 16.3531 11.6226 16.1983C11.6224 16.0434 11.6535 15.8901 11.7143 15.7469C11.7751 15.6038 11.8643 15.4737 11.9769 15.364C12.4926 14.8606 13.011 14.3599 13.5294 13.8565L13.7238 13.652H6.86041C6.60494 13.6506 6.35662 13.57 6.15166 13.4219C5.94669 13.2738 5.79581 13.066 5.72101 12.8288C5.63954 12.5936 5.64125 12.3387 5.72586 12.1046C5.81048 11.8705 5.97316 11.6704 6.18811 11.5363C6.42123 11.4039 6.68498 11.3309 6.95491 11.3239C9.11491 11.3082 11.2506 11.3239 13.3971 11.3239L13.7319 11.3134Z" fill="#2863F5"/>
</svg>
