<svg width="41" height="31" viewBox="0 0 41 31" fill="none" xmlns="http://www.w3.org/2000/svg">
<path d="M22.8635 30.1559H18.2967C18.1215 30.1559 17.9504 30.1559 17.7753 30.1559C17.5723 30.1598 17.3712 30.1155 17.1887 30.0266C17.0061 29.9377 16.8473 29.8067 16.7252 29.6444C16.6031 29.4822 16.5213 29.2933 16.4864 29.0933C16.4515 28.8932 16.4646 28.6878 16.5246 28.4938C16.6114 27.9854 16.878 27.5251 17.2759 27.1968C17.6737 26.8685 18.1762 26.6941 18.6919 26.7054C19.5718 26.7054 20.4558 26.7054 21.3399 26.7054C21.6624 26.7059 21.9806 26.7794 22.2706 26.9206C22.5606 27.0617 22.8148 27.2667 23.0142 27.5201C23.0489 27.5621 23.0916 27.5967 23.1399 27.6219C23.1882 27.6471 23.241 27.6624 23.2953 27.6668L27.2021 27.7035C27.855 27.7031 28.501 27.5696 29.1006 27.3111C29.7002 27.0526 30.2408 26.6746 30.6893 26.2002C31.3599 25.5087 31.9229 24.7204 32.3596 23.8618C33.2379 22.3113 33.8298 20.6153 34.1073 18.8551C34.5074 16.1838 34.1405 13.4537 33.0493 10.9828C31.9581 8.51192 30.1875 6.4018 27.9436 4.89813C26.1991 3.70525 24.2026 2.93148 22.1098 2.63715C18.98 2.13541 15.7729 2.72819 13.0292 4.31557C11.2194 5.30283 9.6523 6.68086 8.44167 8.34953C7.23104 10.0182 6.40733 11.9356 6.0304 13.9624C5.33898 17.2915 5.88808 20.7586 7.57438 23.7111C7.7074 23.9395 7.79587 24.1911 7.83511 24.4525C7.84793 24.7155 7.77223 24.9752 7.6201 25.1901C7.46797 25.405 7.2482 25.5627 6.9959 25.638C6.75899 25.7386 6.4943 25.7529 6.24791 25.6785C6.00153 25.6041 5.78905 25.4456 5.64746 25.2306C5.41405 24.8664 5.20317 24.4882 5.01602 24.0981C5.00095 24.0506 4.969 24.0103 4.92621 23.9848C4.88342 23.9593 4.83276 23.9503 4.78381 23.9596C4.18463 24.0151 3.5805 23.9425 3.01156 23.7465C2.44263 23.5505 1.92191 23.2357 1.484 22.823C1.02794 22.4255 0.661674 21.9354 0.409521 21.3855C0.157367 20.8355 0.0250981 20.2382 0.0214957 19.6332C-0.00294734 17.694 -0.011095 15.7549 0.0214957 13.8158C0.0418405 12.6512 0.520148 11.5416 1.35281 10.7273C2.18547 9.9129 3.30544 9.45936 4.47012 9.4649C4.62237 9.48382 4.7765 9.45009 4.90692 9.36931C5.03735 9.28854 5.13622 9.16558 5.18712 9.02085C6.95814 5.5555 9.90176 2.83132 13.4937 1.33353C15.9961 0.250791 18.7311 -0.183558 21.4458 0.0706372C25.3067 0.381259 28.9345 2.04299 31.6915 4.76369C33.0396 6.07105 34.1506 7.60245 34.975 9.28972C35.028 9.39972 35.0646 9.47305 35.2235 9.4649C35.8138 9.41781 36.4076 9.49026 36.9692 9.67792C37.5309 9.86558 38.049 10.1646 38.4924 10.5571C38.9358 10.9496 39.2956 11.4275 39.5501 11.9622C39.8046 12.4969 39.9486 13.0774 39.9736 13.6691C40.0469 15.7223 40.0469 17.7769 39.9736 19.8328C39.9158 20.9628 39.4228 22.0266 38.5981 22.8012C37.7734 23.5758 36.6808 24.0012 35.5494 23.9881C35.3896 23.9631 35.226 23.9961 35.0885 24.0814C34.951 24.1666 34.8485 24.2983 34.7998 24.4525C34.3596 25.4533 33.7913 26.3927 33.1092 27.2472C32.0807 28.5513 30.6639 29.4944 29.0639 29.94C28.4376 30.0946 27.7942 30.1685 27.1492 30.16L22.8635 30.1559Z" fill="white"/>
<path d="M28.6605 10.8256C28.0345 10.1368 27.2689 9.58945 26.4147 9.21994C25.5604 8.85043 24.6373 8.66731 23.7067 8.68279C21.3072 8.68279 18.9036 8.68279 16.5041 8.68279C16.2556 8.68279 16.0112 8.68279 15.7668 8.71131C13.9803 8.83048 12.3112 9.64336 11.1158 10.9764C9.92047 12.3094 9.29364 14.0569 9.36915 15.8458C9.44466 17.6346 10.2165 19.3231 11.52 20.5506C12.8234 21.7782 14.5551 22.4475 16.3452 22.4157H20.0117C21.2339 22.4157 22.456 22.4157 23.6578 22.4157C24.0344 22.4219 24.4108 22.3932 24.7822 22.3301C27.4587 21.8168 29.3245 20.2932 30.1718 17.7023C30.5992 16.5309 30.684 15.262 30.4163 14.0441C30.1487 12.8263 29.5396 11.7099 28.6605 10.8256ZM14.1046 17.4619C13.6907 17.4627 13.2859 17.341 12.941 17.1122C12.596 16.8834 12.3265 16.5577 12.1663 16.176C12.0061 15.7944 11.9623 15.3739 12.0405 14.9675C12.1187 14.561 12.3154 14.1868 12.6058 13.8919C12.8962 13.5969 13.2674 13.3945 13.6726 13.31C14.0778 13.2255 14.4989 13.2628 14.8829 13.4171C15.267 13.5714 15.5968 13.8359 15.8309 14.1772C16.065 14.5185 16.193 14.9215 16.1986 15.3354C16.2035 15.6132 16.1529 15.8893 16.0498 16.1473C15.9467 16.4054 15.7932 16.6403 15.5982 16.8383C15.4032 17.0364 15.1707 17.1935 14.9142 17.3006C14.6578 17.4076 14.3825 17.4625 14.1046 17.4619ZM25.9188 17.4619C25.5038 17.4635 25.0977 17.342 24.7518 17.1128C24.4059 16.8837 24.1357 16.557 23.9754 16.1743C23.8152 15.7915 23.772 15.3699 23.8513 14.9626C23.9307 14.5553 24.1291 14.1807 24.4214 13.8861C24.7136 13.5916 25.0867 13.3903 25.4933 13.3078C25.9 13.2253 26.322 13.2652 26.706 13.4225C27.0899 13.5798 27.4187 13.8474 27.6505 14.1915C27.8824 14.5356 28.007 14.9408 28.0086 15.3557C28.0103 15.6317 27.9573 15.9053 27.8528 16.1608C27.7483 16.4163 27.5943 16.6485 27.3997 16.8443C27.2051 17.04 26.9737 17.1954 26.7188 17.3014C26.464 17.4073 26.1907 17.4619 25.9147 17.4619H25.9188Z" fill="white"/>
</svg>
