<svg width="41" height="30" viewBox="0 0 41 30" fill="none" xmlns="http://www.w3.org/2000/svg">
<path d="M22.8635 29.5863H18.2967C18.1215 29.5863 17.9504 29.5863 17.7753 29.5863C17.5723 29.5901 17.3712 29.547 17.1887 29.4607C17.0061 29.3743 16.8473 29.2472 16.7252 29.0896C16.6031 28.9321 16.5213 28.7487 16.4864 28.5544C16.4515 28.3602 16.4646 28.1607 16.5246 27.9723C16.6114 27.4786 16.878 27.0317 17.2759 26.7129C17.6737 26.3941 18.1762 26.2248 18.6919 26.2357C19.5718 26.2357 20.4558 26.2357 21.3399 26.2357C21.6624 26.2362 21.9806 26.3077 22.2706 26.4447C22.5606 26.5817 22.8148 26.7808 23.0142 27.0269C23.0489 27.0677 23.0916 27.1013 23.1399 27.1257C23.1882 27.1502 23.241 27.165 23.2953 27.1693L27.2021 27.2049C27.855 27.2045 28.501 27.0749 29.1006 26.8239C29.7002 26.5729 30.2408 26.2059 30.6893 25.7452C31.3599 25.0737 31.9229 24.3083 32.3596 23.4746C33.2379 21.969 33.8298 20.3222 34.1073 18.613C34.5074 16.0191 34.1405 13.3682 33.0493 10.9689C31.9581 8.56964 30.1875 6.52068 27.9436 5.0606C26.1991 3.9023 24.2026 3.15095 22.1098 2.86516C18.98 2.37795 15.7729 2.95356 13.0292 4.49493C11.2194 5.45357 9.6523 6.79165 8.44167 8.41195C7.23104 10.0323 6.40733 11.8941 6.0304 13.8621C5.33898 17.0948 5.88808 20.4613 7.57438 23.3283C7.7074 23.5501 7.79587 23.7944 7.83511 24.0482C7.84793 24.3036 7.77223 24.5557 7.6201 24.7644C7.46797 24.9731 7.2482 25.1262 6.9959 25.1993C6.75899 25.297 6.4943 25.3109 6.24791 25.2386C6.00153 25.1664 5.78905 25.0125 5.64746 24.8038C5.41405 24.4501 5.20317 24.0828 5.01602 23.7041C5.00095 23.6579 4.969 23.6188 4.92621 23.594C4.88342 23.5692 4.83276 23.5605 4.78381 23.5696C4.18463 23.6235 3.5805 23.5529 3.01156 23.3626C2.44263 23.1723 1.92191 22.8667 1.484 22.4659C1.02794 22.0799 0.661674 21.6041 0.409521 21.07C0.157367 20.536 0.0250981 19.956 0.0214957 19.3686C-0.00294734 17.4856 -0.011095 15.6027 0.0214957 13.7197C0.0418405 12.589 0.520148 11.5115 1.35281 10.7208C2.18547 9.93001 3.30544 9.48962 4.47012 9.495C4.62237 9.51337 4.7765 9.48061 4.90692 9.40218C5.03735 9.32375 5.13622 9.20435 5.18712 9.06382C6.95814 5.69892 9.90176 3.0537 13.4937 1.59932C15.9961 0.547965 18.7311 0.126206 21.4458 0.373033C25.3067 0.674651 28.9345 2.28822 31.6915 4.93006C33.0396 6.19952 34.1506 7.68653 34.975 9.3249C35.028 9.43171 35.0646 9.50291 35.2235 9.495C35.8138 9.44927 36.4076 9.51962 36.9692 9.70185C37.5309 9.88407 38.049 10.1744 38.4924 10.5555C38.9358 10.9366 39.2956 11.4007 39.5501 11.9199C39.8046 12.4391 39.9486 13.0028 39.9736 13.5773C40.0469 15.571 40.0469 17.5661 39.9736 19.5624C39.9158 20.6596 39.4228 21.6926 38.5981 22.4447C37.7734 23.1969 36.6808 23.6099 35.5494 23.5973C35.3896 23.5729 35.226 23.605 35.0885 23.6878C34.951 23.7705 34.8485 23.8984 34.7998 24.0482C34.3596 25.02 33.7913 25.9322 33.1092 26.7619C32.0807 28.0282 30.6639 28.9439 29.0639 29.3766C28.4376 29.5267 27.7942 29.5985 27.1492 29.5902L22.8635 29.5863Z" fill="#2863F5"/>
<path d="M28.6607 10.8162C28.0348 10.1474 27.2691 9.61587 26.4149 9.25708C25.5607 8.89828 24.6375 8.72047 23.7069 8.7355C21.3074 8.7355 18.9039 8.7355 16.5044 8.7355C16.2559 8.7355 16.0114 8.7355 15.767 8.76319C13.9805 8.87891 12.3114 9.66822 11.1161 10.9626C9.92072 12.257 9.29388 13.9538 9.36939 15.6908C9.4449 17.4279 10.2168 19.0674 11.5202 20.2593C12.8236 21.4513 14.5553 22.1012 16.3455 22.0703H20.0119C21.2341 22.0703 22.4562 22.0703 23.658 22.0703C24.0347 22.0764 24.4111 22.0486 24.7824 21.9873C27.4589 21.4888 29.3247 20.0094 30.1721 17.4935C30.5994 16.3561 30.6843 15.124 30.4166 13.9414C30.1489 12.7589 29.5399 11.6748 28.6607 10.8162ZM14.1049 17.2601C13.691 17.2609 13.2861 17.1427 12.9412 16.9206C12.5963 16.6984 12.3268 16.3821 12.1665 16.0115C12.0063 15.641 11.9626 15.2327 12.0408 14.838C12.119 14.4433 12.3157 14.08 12.6061 13.7936C12.8965 13.5072 13.2676 13.3106 13.6728 13.2286C14.078 13.1466 14.4991 13.1828 14.8832 13.3326C15.2672 13.4824 15.5971 13.7392 15.8312 14.0707C16.0653 14.4021 16.1932 14.7934 16.1988 15.1952C16.2037 15.465 16.1531 15.7331 16.05 15.9837C15.9469 16.2343 15.7934 16.4624 15.5984 16.6547C15.4034 16.8469 15.1709 16.9995 14.9145 17.1035C14.658 17.2075 14.3828 17.2607 14.1049 17.2601ZM25.919 17.2601C25.5041 17.2617 25.098 17.1438 24.752 16.9212C24.4061 16.6987 24.136 16.3815 23.9757 16.0099C23.8154 15.6382 23.7722 15.2287 23.8516 14.8333C23.931 14.4378 24.1293 14.074 24.4216 13.788C24.7139 13.502 25.0869 13.3066 25.4936 13.2264C25.9002 13.1463 26.3222 13.185 26.7062 13.3378C27.0902 13.4905 27.4189 13.7504 27.6508 14.0846C27.8826 14.4187 28.0073 14.8121 28.0089 15.215C28.0105 15.483 27.9575 15.7487 27.853 15.9968C27.7485 16.2448 27.5945 16.4704 27.3999 16.6604C27.2053 16.8505 26.9739 17.0013 26.7191 17.1042C26.4642 17.2072 26.1909 17.2601 25.9149 17.2601H25.919Z" fill="#2863F5"/>
</svg>
