<svg width="72" height="72" viewBox="0 0 72 72" fill="none" xmlns="http://www.w3.org/2000/svg">
<path d="M0 7C0 3.13401 3.13401 0 7 0H65C68.866 0 72 3.13401 72 7V36V65C72 68.866 68.866 72 65 72H7C3.13401 72 0 68.866 0 65V7Z" fill="#2863F5"/>
<g clip-path="url(#clip0_1380_5)">
<path d="M28.3164 41.5138H23.4866C22.9546 41.5138 22.8748 41.4302 22.909 40.9058C23.08 38.66 25.056 36.5168 27.3474 36.152C28.0833 36.0188 28.8388 36.0382 29.5669 36.2092C30.295 36.3801 30.9802 36.6989 31.5799 37.1458C32.1796 37.5926 32.6811 38.158 33.0532 38.8068C33.4252 39.4556 33.66 40.1739 33.7428 40.9172C33.7998 41.3466 33.663 41.51 33.2146 41.51L28.3164 41.5138Z" fill="white"/>
<path d="M45.177 41.5138H40.427C39.7506 41.5138 39.667 41.4036 39.7696 40.7538C39.9464 39.4852 40.5647 38.3196 41.5158 37.4618C42.4669 36.6039 43.69 36.1088 44.97 36.0634C46.25 36.0181 47.505 36.4253 48.5145 37.2137C49.524 38.002 50.2232 39.1209 50.4894 40.3738C50.5198 40.5296 50.5502 40.6892 50.5654 40.8488C50.6148 41.4188 50.5312 41.5062 49.9688 41.5062H45.177V41.5138Z" fill="white"/>
<path d="M41.4302 36.038C40.4675 36.7063 39.6907 37.6086 39.173 38.66C39.1392 38.7052 39.0957 38.7423 39.0458 38.7686C38.9958 38.7949 38.9406 38.8097 38.8842 38.812C37.4605 38.812 36.0355 38.812 34.6092 38.812C34.5524 38.8122 34.4963 38.7997 34.4451 38.7753C34.3938 38.751 34.3486 38.7155 34.3128 38.6714C33.7928 37.6116 33.0073 36.7043 32.0328 36.038C33.15 34.3508 34.6624 33.4008 36.6802 33.378C38.698 33.3552 40.2864 34.3242 41.4302 36.038Z" fill="white"/>
<path d="M23.3156 49.8244C23.3688 50.516 23.4106 51.1316 23.4638 51.7472C23.5018 52.1956 23.3004 52.5072 22.9242 52.53C22.548 52.5528 22.2972 52.3172 22.263 51.884C22.1604 50.6984 22.0692 49.5166 21.9818 48.331C21.9653 48.2382 21.9714 48.1428 21.9994 48.0528C22.0274 47.9628 22.0767 47.8809 22.1429 47.8139C22.2092 47.7469 22.2906 47.6967 22.3802 47.6677C22.4699 47.6387 22.5652 47.6316 22.6582 47.647C23.8438 47.7255 25.0294 47.8167 26.215 47.9206C26.6824 47.9586 26.9066 48.2208 26.8648 48.6084C26.823 48.996 26.519 49.167 26.063 49.1214C25.4751 49.0574 24.8833 49.0358 24.2922 49.0568C24.4442 49.1898 24.5924 49.3266 24.7482 49.4368C27.5686 51.7994 31.0612 53.214 34.7308 53.48C36.3746 53.5921 38.026 53.4822 39.6404 53.1532C40.1078 53.0658 40.4004 53.2178 40.4726 53.5902C40.5448 53.9626 40.332 54.24 39.8798 54.3502C35.0757 55.3704 30.0632 54.4585 25.9262 51.8118C25.4778 51.5306 25.0446 51.2152 24.619 50.896C24.1934 50.5768 23.7944 50.2158 23.3156 49.8244Z" fill="white"/>
<path d="M49.832 48.673C50.5122 48.6236 51.124 48.5818 51.732 48.5286C52.1842 48.4906 52.492 48.6806 52.5262 49.0568C52.5604 49.433 52.3134 49.6952 51.8574 49.7332L48.3386 50.0106C48.246 50.0271 48.1508 50.0214 48.0608 49.994C47.9707 49.9667 47.8885 49.9184 47.8207 49.8532C47.7529 49.788 47.7014 49.7077 47.6706 49.6188C47.6397 49.5299 47.6304 49.435 47.6432 49.3418C47.7268 48.1448 47.8142 46.9478 47.9206 45.7546C47.9624 45.2948 48.2398 45.0744 48.6274 45.1314C49.015 45.1884 49.1594 45.481 49.1214 45.9142C49.0682 46.4956 49.0226 47.0542 48.9694 47.723C49.0422 47.6726 49.112 47.6181 49.1784 47.5596C51.3865 45.052 52.8281 41.9631 53.3318 38.66C53.6559 36.5514 53.5967 34.4016 53.157 32.314C53.0696 31.877 53.2254 31.592 53.5864 31.5084C53.9474 31.4248 54.2438 31.6376 54.3464 32.086C54.7701 34.1253 54.8574 36.2201 54.6048 38.2876C54.2099 41.546 52.9562 44.641 50.972 47.2556C50.6148 47.7344 50.2386 48.16 49.832 48.673Z" fill="white"/>
<path d="M47.7268 22.9622C45.6694 21.1096 43.2029 19.77 40.5288 19.0528C37.8548 18.3355 35.049 18.2611 32.3406 18.8354C31.8808 18.9266 31.5806 18.7632 31.516 18.387C31.4514 18.0108 31.668 17.741 32.124 17.6536C37.9 16.5554 43.1212 17.779 47.78 21.4156C48.0688 21.6398 48.3462 21.8868 48.6958 22.1756C48.6426 21.4878 48.6046 20.8798 48.5514 20.2756C48.5096 19.8006 48.7072 19.4928 49.0948 19.4624C49.4824 19.432 49.718 19.698 49.756 20.1578L50.0296 23.6348C50.0495 23.7305 50.0458 23.8295 50.0187 23.9234C49.9917 24.0173 49.9421 24.1032 49.8743 24.1736C49.8066 24.244 49.7226 24.2968 49.6298 24.3274C49.537 24.358 49.4382 24.3655 49.3418 24.3492C48.1676 24.2656 46.9972 24.1782 45.823 24.0794C45.3328 24.0376 45.0972 23.7754 45.1504 23.3764C45.2036 22.9774 45.4962 22.8292 45.956 22.8748C46.4158 22.9204 46.9706 22.9584 47.476 22.9964C47.5603 22.9906 47.6441 22.9792 47.7268 22.9622Z" fill="white"/>
<path d="M22.1756 23.3194C21.484 23.3726 20.8684 23.4106 20.2756 23.4638C19.8196 23.5056 19.5156 23.3156 19.4814 22.9432C19.4472 22.5708 19.66 22.32 20.1312 22.263C21.3016 22.1642 22.4733 22.0717 23.6462 21.9856C23.7389 21.9677 23.8345 21.9723 23.9251 21.9988C24.0156 22.0253 24.0986 22.0731 24.167 22.1381C24.2354 22.2032 24.2872 22.2836 24.3183 22.3728C24.3493 22.4619 24.3586 22.5571 24.3454 22.6506C24.2618 23.8489 24.1693 25.0446 24.068 26.2378C24.0262 26.6976 23.7488 26.9218 23.3612 26.861C22.9736 26.8002 22.8254 26.5152 22.8672 26.082C22.9204 25.5044 22.9622 24.942 23.0192 24.2694C22.9384 24.3282 22.861 24.3917 22.7874 24.4594C20.5962 26.9572 19.1644 30.0291 18.6606 33.3134C18.3371 35.4232 18.395 37.5739 18.8316 39.6632C18.919 40.1002 18.7632 40.389 18.406 40.4726C18.0488 40.5562 17.7448 40.3472 17.646 39.895C16.506 33.8416 17.8664 28.4418 21.826 23.7146L22.1756 23.3194Z" fill="white"/>
<path d="M36.76 27.2182C37.3409 27.225 37.9067 27.4036 38.3862 27.7315C38.8657 28.0594 39.2373 28.522 39.4542 29.0609C39.6711 29.5998 39.7236 30.1908 39.6051 30.7595C39.4865 31.3281 39.2022 31.849 38.788 32.2563C38.3738 32.6636 37.8483 32.9391 37.2778 33.0481C36.7072 33.1572 36.1171 33.0948 35.5819 32.8689C35.0468 32.643 34.5905 32.2636 34.2706 31.7787C33.9508 31.2938 33.7816 30.7251 33.7846 30.1442C33.7876 29.7566 33.8669 29.3735 34.0181 29.0166C34.1693 28.6597 34.3894 28.3361 34.6657 28.0644C34.9421 27.7926 35.2693 27.578 35.6286 27.4328C35.988 27.2876 36.3724 27.2147 36.76 27.2182Z" fill="white"/>
<path d="M42.2168 32.8498C42.2138 32.2673 42.3836 31.6971 42.7047 31.2111C43.0258 30.7252 43.4838 30.3453 44.0208 30.1197C44.5577 29.894 45.1496 29.8326 45.7214 29.9433C46.2932 30.054 46.8194 30.3318 47.2334 30.7415C47.6474 31.1512 47.9306 31.6745 48.0472 32.2452C48.1638 32.8159 48.1085 33.4083 47.8884 33.9476C47.6683 34.4868 47.2932 34.9487 46.8106 35.2748C46.3279 35.6009 45.7595 35.7766 45.177 35.7796C44.7896 35.7841 44.4051 35.7117 44.0459 35.5664C43.6867 35.4211 43.3599 35.206 43.0845 34.9334C42.8091 34.6609 42.5906 34.3363 42.4417 33.9787C42.2927 33.621 42.2163 33.2373 42.2168 32.8498Z" fill="white"/>
<path d="M31.2614 32.8232C31.2695 33.4048 31.1053 33.9757 30.7894 34.464C30.4734 34.9524 30.02 35.3362 29.4862 35.5672C28.9524 35.7982 28.3622 35.8659 27.7899 35.7619C27.2177 35.6578 26.6891 35.3867 26.2707 34.9826C25.8524 34.5786 25.5631 34.0597 25.4392 33.4914C25.3154 32.9231 25.3626 32.3309 25.5749 31.7894C25.7872 31.2479 26.1551 30.7814 26.6321 30.4487C27.1092 30.116 27.6741 29.9321 28.2556 29.92C28.6446 29.9094 29.0318 29.9765 29.3946 30.1173C29.7573 30.2582 30.0883 30.47 30.3682 30.7403C30.6481 31.0107 30.8713 31.3341 31.0247 31.6918C31.178 32.0494 31.2585 32.4341 31.2614 32.8232Z" fill="white"/>
<path d="M17.931 44.3828C17.931 43.8736 17.931 43.3682 17.931 42.8628C17.931 42.5512 18.064 42.403 18.3718 42.403H21.4536C21.5132 42.3931 21.5743 42.3976 21.6319 42.4161C21.6894 42.4345 21.7417 42.4665 21.7844 42.5092C21.8271 42.5519 21.8591 42.6042 21.8775 42.6617C21.896 42.7193 21.9005 42.7804 21.8906 42.84C21.8906 43.8812 21.8906 44.9186 21.8906 45.9598C21.9005 46.0182 21.8967 46.0782 21.8793 46.1349C21.8619 46.1916 21.8315 46.2434 21.7905 46.2863C21.7495 46.3291 21.6991 46.3617 21.6432 46.3816C21.5874 46.4015 21.5276 46.408 21.4688 46.4006H18.349C18.064 46.4006 17.9234 46.2562 17.931 45.9598C17.9386 45.4202 17.931 44.8996 17.931 44.3828Z" fill="white"/>
<path d="M27.5944 17.9272C27.8573 17.9242 28.1181 17.9735 28.3617 18.0724C28.6053 18.1712 28.8267 18.3176 29.0132 18.5029C29.1996 18.6883 29.3472 18.9089 29.4475 19.1519C29.5477 19.395 29.5985 19.6555 29.597 19.9184C29.5745 20.4339 29.3539 20.9209 28.9812 21.2777C28.6084 21.6346 28.1123 21.8338 27.5963 21.8338C27.0803 21.8338 26.5842 21.6346 26.2114 21.2777C25.8387 20.9209 25.6181 20.4339 25.5956 19.9184C25.5951 19.6561 25.6465 19.3963 25.7469 19.154C25.8472 18.9117 25.9946 18.6917 26.1804 18.5066C26.3662 18.3215 26.5868 18.175 26.8295 18.0756C27.0722 17.9761 27.3321 17.9257 27.5944 17.9272Z" fill="white"/>
<path d="M52.0816 25.4284C52.9214 26.88 53.7346 28.286 54.5706 29.7376H49.5964L52.0816 25.4284Z" fill="white"/>
<path d="M44.4094 50.06C44.6724 50.057 44.9335 50.1063 45.1773 50.2051C45.4211 50.3039 45.6428 50.4502 45.8295 50.6355C46.0162 50.8208 46.1642 51.0414 46.2649 51.2845C46.3655 51.5275 46.4168 51.7881 46.4158 52.0512C46.3933 52.5667 46.1727 53.0537 45.8 53.4106C45.4272 53.7674 44.9311 53.9666 44.4151 53.9666C43.8991 53.9666 43.403 53.7674 43.0302 53.4106C42.6575 53.0537 42.4369 52.5667 42.4144 52.0512C42.4134 51.7891 42.4643 51.5294 42.5643 51.2871C42.6642 51.0448 42.8112 50.8248 42.9967 50.6396C43.1822 50.4545 43.4026 50.3079 43.645 50.2084C43.8875 50.1089 44.1473 50.0585 44.4094 50.06Z" fill="white"/>
</g>
<defs>
<clipPath id="clip0_1380_5">
<rect width="38" height="38" fill="white" transform="translate(17 17)"/>
</clipPath>
</defs>
</svg>
