<svg width="72" height="72" viewBox="0 0 72 72" fill="none" xmlns="http://www.w3.org/2000/svg">
<rect width="72" height="72" rx="7" fill="#2863F5"/>
<g clip-path="url(#clip0_1380_6)">
<path d="M14.5368 36.2816C14.5148 25.5192 22.2852 16.42 32.5988 14.836C38.1194 13.9387 43.7721 15.2359 48.3491 18.4506C52.9261 21.6653 56.0644 26.5424 57.0936 32.04C57.2845 33.1755 57.405 34.3216 57.4544 35.472C57.5248 36.5412 56.9352 37.2584 56.0464 37.298C55.1576 37.3376 54.524 36.748 54.48 35.6348C54.1148 28.6828 51.0392 23.3148 44.954 19.8828C33.91 13.6436 19.9356 20.38 17.8412 32.876C17.4229 35.3158 17.5001 37.8148 18.0682 40.2241C18.6363 42.6335 19.6836 44.9038 21.1478 46.8997C22.612 48.8956 24.4631 50.5763 26.5906 51.8416C28.7182 53.1069 31.0788 53.9308 33.5316 54.2644C34.2708 54.3656 35.0188 54.3788 35.7668 54.436C36.7876 54.5108 37.3728 55.118 37.32 56.02C37.2672 56.922 36.5764 57.4588 35.56 57.428C32.5391 57.3776 29.5652 56.672 26.8436 55.36C19.9312 51.906 15.8964 46.318 14.7128 38.6796C14.7128 38.5564 14.7128 38.4332 14.6864 38.31L14.5368 36.2816Z" fill="white"/>
<path d="M38.2 36C38.564 35.9939 38.9243 36.0738 39.2516 36.2332C44.2031 37.8729 49.156 39.5259 54.1104 41.192C55.36 41.632 55.9628 42.314 55.9716 43.3348C55.9804 44.3556 55.3468 45.0948 54.1368 45.5348C52.4384 46.1024 50.74 46.6832 49.0328 47.22C48.5984 47.3398 48.2026 47.5708 47.8847 47.8903C47.5668 48.2097 47.3377 48.6066 47.22 49.0416C46.6832 50.7532 46.1068 52.4472 45.5348 54.1456C45.1344 55.338 44.3512 55.976 43.3348 55.9584C42.3184 55.9408 41.61 55.316 41.2272 54.1632C39.52 49.0372 37.8216 43.92 36.1452 38.8248C36.031 38.5006 35.9973 38.1536 36.047 37.8135C36.0967 37.4734 36.2283 37.1505 36.4305 36.8725C36.6326 36.5946 36.8993 36.37 37.2076 36.218C37.5159 36.066 37.8564 35.9912 38.2 36Z" fill="white"/>
<path d="M24.56 35.9648C24.5392 33.3472 25.4168 30.8017 27.0462 28.753C28.6756 26.7043 30.9583 25.2763 33.5134 24.7074C36.0685 24.1385 38.7414 24.4631 41.0861 25.627C43.4308 26.7909 45.3055 28.7237 46.3972 31.1028C46.5474 31.3396 46.6482 31.6043 46.6936 31.8811C46.739 32.1578 46.728 32.4408 46.6612 32.7132C46.5806 33.0029 46.4086 33.2588 46.1707 33.4428C45.9328 33.6267 45.6419 33.7289 45.3412 33.734C45.0127 33.7592 44.6851 33.6743 44.4102 33.4926C44.1353 33.311 43.9288 33.0429 43.8232 32.7308C43.2978 31.4616 42.4718 30.3391 41.4163 29.4601C40.3607 28.581 39.1073 27.9717 37.764 27.6846C36.4207 27.3976 35.0277 27.4414 33.7051 27.8123C32.3824 28.1832 31.1698 28.87 30.1715 29.8136C29.1733 30.7573 28.4194 31.9294 27.9748 33.2291C27.5302 34.5288 27.4083 35.9172 27.6194 37.2745C27.8305 38.6318 28.3684 39.9175 29.1868 41.0207C30.0052 42.124 31.0795 43.0118 32.3172 43.6076C32.4536 43.6736 32.5988 43.7352 32.7352 43.8056C33.6768 44.2808 34.0024 45.0288 33.6152 45.8384C33.228 46.648 32.48 46.9164 31.4988 46.5204C29.4288 45.6433 27.665 44.1726 26.4301 42.2939C25.1951 40.4153 24.5444 38.2129 24.56 35.9648Z" fill="white"/>
</g>
<defs>
<clipPath id="clip0_1380_6">
<rect width="44" height="44" fill="white" transform="translate(14 14)"/>
</clipPath>
</defs>
</svg>
