<svg width="28" height="21" viewBox="0 0 28 21" fill="none" xmlns="http://www.w3.org/2000/svg">
<path d="M14.6767 1.10066C13.2265 0.558315 10.1492 2.27957 7.60254 4.5315H5.71607C4.46528 4.5315 3.26573 5.02844 2.3813 5.91287C1.49686 6.79731 1 7.99679 1 9.24761V11.6056C1 12.8563 1.49686 14.056 2.3813 14.9405C3.26573 15.8249 4.46528 16.3217 5.71607 16.3217H7.60254C10.0903 18.609 13.1675 20.295 14.6767 19.7644C17.1526 18.8448 17.5652 13.8694 17.5652 10.4266C17.5652 6.98385 17.1526 2.0203 14.6767 1.10066Z" stroke="black" stroke-width="1.5" stroke-linecap="round" stroke-linejoin="round"/>
<path d="M24.2397 3.71826C26.0072 5.48695 27.0002 7.88518 27.0002 10.3856C27.0002 12.8861 26.0072 15.2843 24.2397 17.053" stroke="black" stroke-width="1.5" stroke-linecap="round" stroke-linejoin="round"/>
<path d="M21.7388 14.6003C22.8439 13.4947 23.4647 11.9955 23.4647 10.4324C23.4647 8.86921 22.8439 7.37014 21.7388 6.26465" stroke="black" stroke-width="1.5" stroke-linecap="round" stroke-linejoin="round"/>
</svg>
