<svg width="23" height="25" viewBox="0 0 23 25" fill="none" xmlns="http://www.w3.org/2000/svg">
<path d="M22.424 0.645391C22.424 0.294745 22.1079 0.0101636 21.7185 0.0101636H17.0498C17.0309 0.00846967 17.0149 0 16.9952 0H9.50999C9.49024 0 9.47425 0.00846967 9.45543 0.0101636H3.09344C3.0671 0.00931664 3.03606 0.00846969 3.00501 0.00846969C1.55539 0.00846969 0.373861 1.04177 0.318359 2.33425V2.33848V22.9952C0.424659 24.1225 1.46696 25 2.73785 25C2.79712 25 2.85544 24.9983 2.91377 24.9941H2.90624H21.7204C22.1098 24.9941 22.4259 24.7095 22.4259 24.3588C22.4259 24.0082 22.1098 23.7236 21.7204 23.7236H3.09438C3.07275 23.7245 3.04735 23.7253 3.02195 23.7253C2.34746 23.7253 1.79339 23.262 1.73036 22.6691V22.6641V21.6282C1.73036 21.2395 2.27973 20.899 2.90436 20.899L21.7204 20.9473C21.9151 20.9473 22.0919 20.8761 22.2189 20.7609C22.2349 20.7465 22.2424 20.7262 22.2566 20.7101C22.3008 20.6669 22.3384 20.6169 22.3676 20.5636L22.3694 20.5602C22.3845 20.5187 22.3967 20.4713 22.4014 20.4213V20.4187C22.4118 20.3891 22.4202 20.3535 22.4249 20.3163V20.3137V20.312L22.424 0.645391ZM21.0129 19.6776L6.43201 19.6404V1.28062H8.80352V10.1298C8.80352 10.1298 8.80352 10.1298 8.80352 10.1306C8.80352 10.4812 9.1196 10.765 9.50811 10.765C9.67838 10.765 9.83454 10.7108 9.95589 10.6202L9.95495 10.621L13.2568 8.19104L16.5531 10.5659C16.6725 10.6523 16.8259 10.7048 16.9933 10.7048C17.3828 10.7048 17.6988 10.4203 17.6998 10.0696V1.28062H21.012L21.0129 19.6776ZM16.2897 1.28062V8.7475L13.6933 6.87739C13.5738 6.79016 13.4205 6.73764 13.2531 6.73764C13.0828 6.73764 12.9266 6.79185 12.8043 6.88332L12.8053 6.88248L10.2146 8.78985V1.28062H16.2897ZM1.72848 19.8597V2.33933C1.7915 1.74222 2.34652 1.27892 3.02101 1.27892C3.04641 1.27892 3.07181 1.27977 3.09626 1.28062H3.0925H5.02095V19.6361L2.90436 19.6311C2.47822 19.6328 2.07372 19.7166 1.7106 19.8665L1.72848 19.8597Z" fill="black"/>
</svg>
