<svg width="18" height="13" viewBox="0 0 18 13" fill="none" xmlns="http://www.w3.org/2000/svg">
<path d="M6.33479 12.25C6.50537 12.2507 6.67478 12.22 6.83348 12.1592C6.99261 12.0983 7.13835 12.0081 7.26197 11.8932L7.26271 11.8925L16.8575 2.89582C17.1067 2.66213 17.25 2.34161 17.25 2.00372C17.25 1.66583 17.1067 1.3453 16.8575 1.11161L16.6874 1.29303L16.8575 1.11161C16.6088 0.878431 16.2748 0.75 15.9296 0.75C15.5844 0.75 15.2503 0.878431 15.0016 1.11161L15.0015 1.11172L6.33494 9.24783L2.99864 6.11L2.99837 6.10975C2.74968 5.87656 2.41564 5.74813 2.07045 5.74813C1.72525 5.74813 1.39121 5.87656 1.14253 6.10975C0.893297 6.34344 0.75 6.66396 0.75 7.00185C0.75 7.33974 0.893297 7.66026 1.14253 7.89395L5.40686 11.8925L5.40761 11.8932C5.53123 12.0081 5.67697 12.0983 5.8361 12.1592C5.99479 12.22 6.1642 12.2507 6.33479 12.25ZM6.33479 12.25C6.33434 12.25 6.33389 12.25 6.33343 12.25L6.33479 12L6.33614 12.25C6.33569 12.25 6.33524 12.25 6.33479 12.25Z" fill="#5D5D5D" stroke="#5D5D5D" stroke-width="0.5"/>
</svg>
