<svg width="25" height="24" viewBox="0 0 25 24" fill="none" xmlns="http://www.w3.org/2000/svg">
<path d="M12.4261 2.91016C9.00472 2.91016 6.22419 5.60015 6.22419 8.91015V11.8002C6.22419 12.4102 5.95544 13.3401 5.63501 13.8601L4.44631 15.7701C3.71242 16.9501 4.21891 18.2601 5.56266 18.7001C10.0177 20.1401 14.8242 20.1401 19.2792 18.7001C20.53 18.3001 21.0778 16.8701 20.3956 15.7701L19.2069 13.8601C18.8968 13.3401 18.628 12.4102 18.628 11.8002V8.91015C18.628 5.61015 15.8372 2.91016 12.4261 2.91016Z" stroke="black" stroke-width="1.5" stroke-miterlimit="10" stroke-linecap="round"/>
<path d="M14.3401 3.20141C14.0197 3.11141 13.6889 3.04141 13.3478 3.00141C12.3555 2.88141 11.4046 2.95141 10.5156 3.20141C10.8154 2.46141 11.5596 1.94141 12.4279 1.94141C13.2962 1.94141 14.0404 2.46141 14.3401 3.20141Z" stroke="black" stroke-width="1.5" stroke-miterlimit="10" stroke-linecap="round" stroke-linejoin="round"/>
<path d="M15.53 19.0586C15.53 20.7086 14.1346 22.0586 12.4291 22.0586C11.5815 22.0586 10.7959 21.7186 10.2377 21.1786C9.67957 20.6386 9.32812 19.8786 9.32812 19.0586" stroke="black" stroke-width="1.5" stroke-miterlimit="10"/>
</svg>
