<svg width="226" height="135" viewBox="0 0 226 135" fill="none" xmlns="http://www.w3.org/2000/svg">
<path d="M138.139 25.498C137.723 24.6164 137.34 23.7347 136.891 22.8946C136.38 21.9797 135.743 21.1979 134.662 20.8818C134.395 20.7879 134.106 20.775 133.832 20.8445C133.557 20.9141 133.309 21.063 133.119 21.2727C132.635 21.7788 132.233 22.3568 131.926 22.9861C130.928 24.8617 129.963 26.7581 128.952 28.6296C128.26 30.0016 127.342 31.2473 126.237 32.3142C126.11 31.5934 126.11 30.8559 126.237 30.135C126.336 29.112 126.553 28.1014 126.39 27.0576C126.153 25.5687 125.243 24.6787 123.737 24.5623C123.107 24.5243 122.475 24.5466 121.849 24.6288C120.926 24.7494 119.998 24.8118 119.071 24.8908C118.984 24.8908 118.871 24.9158 118.792 24.7079C118.905 24.4126 119.208 24.213 119.483 23.9842C120.822 22.8156 122.394 22.0005 123.945 21.1729C125.38 20.4077 126.856 19.6799 128.274 18.9147C128.681 18.6889 129.069 18.4317 129.435 18.1453C130.52 17.3344 130.266 16.3446 129.796 15.5919C129.379 14.9446 128.788 14.4274 128.091 14.0989C127.642 13.8785 127.206 13.6373 126.756 13.4293C126.307 13.2214 125.925 13.08 125.284 12.8263C126.688 12.4375 128.175 12.4577 129.568 12.8845C132.895 13.9284 135.311 16.1159 137.099 19.0644C138.275 20.9898 138.649 23.3001 138.139 25.498Z" fill="#F47637"/>
<path d="M104.05 10.9923C105.041 9.27841 106.644 8.00348 108.537 7.42405C111.433 6.46151 114.562 6.46151 117.458 7.42405C119.284 8.00035 120.842 9.21351 121.849 10.8425C121.521 11.0172 121.284 10.7469 121.017 10.6513C120.127 10.2833 119.202 10.0047 118.256 9.8195C117.729 9.73013 117.187 9.77884 116.684 9.9609C115.619 10.331 115.233 10.9964 115.436 12.1276C115.752 14.0032 116.459 15.7665 117.025 17.5714C117.529 19.0832 117.931 20.6267 118.231 22.1918C118.35 22.8622 118.321 23.5504 118.148 24.2088C117.636 23.6141 117.112 23.0319 116.617 22.4247C116.09 21.6982 115.483 21.0328 114.808 20.441C114.325 19.9948 113.692 19.7447 113.034 19.7393C112.376 19.7339 111.739 19.9737 111.248 20.4118C110.733 20.8328 110.272 21.3162 109.876 21.8508C109.238 22.7309 108.521 23.5508 107.734 24.3003C107.65 23.4506 107.691 22.5931 107.855 21.7551C108.263 19.8719 108.79 18.0162 109.431 16.199C109.764 15.1552 110.063 14.1197 110.392 13.055C110.518 12.6414 110.582 12.2109 110.579 11.7783C110.579 10.7511 110.246 10.277 109.256 9.94842C108.415 9.72623 107.526 9.77128 106.711 10.0773C105.821 10.3393 104.969 10.7012 104.05 10.9923Z" fill="#108DCD"/>
<path d="M103.875 63.9786C104.964 64.3945 105.829 64.6898 106.694 64.9975C107.383 65.2623 108.13 65.3342 108.857 65.2055C109.888 65.0017 110.745 64.5442 110.587 63.1012C110.468 62.2526 110.268 61.4171 109.992 60.6059C109.422 58.7303 108.811 56.863 108.25 54.9957C107.818 53.6425 107.638 52.2218 107.717 50.8037C108.249 51.2532 108.73 51.7594 109.152 52.3133C109.66 53.0112 110.216 53.6727 110.816 54.2929C112.296 55.6902 113.727 55.6902 115.203 54.2929C115.72 53.7775 116.194 53.2212 116.621 52.6294C117.099 51.9935 117.634 51.4019 118.218 50.8619C118.386 51.504 118.386 52.1786 118.218 52.8207C117.842 54.8444 117.3 56.8335 116.596 58.7677C116.114 60.0761 115.732 61.419 115.453 62.7851C115.203 64.2906 115.868 65.1265 117.386 65.2803C118.663 65.3926 119.79 64.8645 120.946 64.4486C121.254 64.3405 121.549 64.1907 122.036 63.9828C121.852 64.4037 121.594 64.7883 121.275 65.1181C119.939 66.6239 118.144 67.6471 116.168 68.0293C113.66 68.5982 111.045 68.4789 108.599 67.6841C106.678 67.0395 105.176 65.8376 103.875 63.9786Z" fill="#F47537"/>
<path d="M87.6599 25.2307C87.1651 23.3191 87.407 21.2914 88.3378 19.5499C89.6883 16.8509 91.877 14.6622 94.5759 13.3117C96.3796 12.3808 98.458 12.1299 100.431 12.6048L97.8073 13.8524C97.1476 14.1687 96.5762 14.643 96.1438 15.2331C95.312 16.3352 95.4451 17.2334 96.5347 18.0735C97.3467 18.6527 98.2081 19.1593 99.109 19.5873C100.731 20.4191 102.386 21.2009 103.958 22.1366C105.166 22.7903 106.253 23.6454 107.173 24.6651C106.107 24.6607 105.044 24.5759 103.991 24.4115C103.364 24.3257 102.731 24.302 102.099 24.3408C100.481 24.4489 99.4916 25.4636 99.3668 27.0855C99.267 28.4247 99.6122 29.7305 99.6496 31.0571C99.6496 31.3566 99.6912 31.6518 99.7162 32.0012C99.2712 31.9346 99.0799 31.5853 98.8511 31.3441C97.6701 30.0175 96.8508 28.4538 96.0273 26.8942C95.2663 25.4553 94.5344 23.9831 93.7733 22.565C93.4892 21.9987 93.1157 21.4819 92.6671 21.0346C92.4733 20.8275 92.2227 20.6823 91.9468 20.6172C91.6708 20.5521 91.3817 20.5699 91.1159 20.6686C90.6439 20.8323 90.2092 21.0884 89.8372 21.4218C89.4652 21.7552 89.1633 22.1594 88.9491 22.6107C88.4875 23.4508 88.1008 24.3283 87.6599 25.2307Z" fill="#F36C38"/>
<path d="M107.414 50.6579C106.969 51.2186 106.443 51.7105 105.854 52.1176C104.294 53.188 102.652 54.1335 100.943 54.9455C100.086 55.3614 99.221 55.7981 98.3602 56.2223C97.8029 56.5841 97.2207 56.9126 96.6967 57.3202C95.815 58.0064 95.6819 58.7924 96.2226 59.7822C96.6299 60.4748 97.2354 61.0296 97.9609 61.375C98.797 61.8359 99.6657 62.2348 100.56 62.5685C100.523 62.9595 100.248 62.8014 100.099 62.8222C96.8838 63.2838 94.2472 62.0237 91.8933 59.9943C90.4764 58.7759 89.3303 57.2742 88.5289 55.586C87.6462 53.8521 87.4061 51.8616 87.851 49.9675C88.2211 50.1422 88.217 50.4873 88.3209 50.741C88.6061 51.4567 88.941 52.1515 89.3232 52.8204C89.6538 53.4399 90.1396 53.963 90.733 54.3384C91.7394 54.9414 92.5296 54.8166 93.2699 53.9225C93.918 53.0396 94.4754 52.0936 94.9334 51.0987C95.7651 49.51 96.5179 47.8798 97.4286 46.3369C97.5659 46.1082 97.7281 45.9002 97.8778 45.6798C98.3829 44.7409 99.0471 43.8966 99.8407 43.1846C99.9717 43.9009 99.9717 44.635 99.8407 45.3513C99.7367 46.4367 99.5038 47.5097 99.6993 48.6159C99.7715 49.2343 100.063 49.8063 100.521 50.2282C100.979 50.6501 101.572 50.894 102.195 50.9157C103.122 50.9886 104.055 50.9467 104.973 50.7909C105.781 50.6734 106.598 50.6288 107.414 50.6579Z" fill="#108DCD"/>
<path d="M98.0484 41.6567C98.5308 42.0726 98.9966 42.4885 99.4582 42.9043C99.3293 43.2703 99.0424 43.1289 98.8552 43.1289C97.3292 43.0754 95.8197 42.7951 94.3762 42.2972C92.7585 41.8148 91.1449 41.3323 89.5729 40.7085C88.8077 40.6461 88.109 40.2927 87.3313 40.2552C85.9797 40.1845 85.2977 40.7667 85.1604 42.1183C85.0232 43.4699 85.5223 44.6136 85.9589 45.7822C86.151 46.1313 86.2805 46.5113 86.3415 46.9051C84.7024 45.883 83.459 44.3346 82.8149 42.5134C81.7357 39.4777 81.7357 36.1628 82.8149 33.1271C83.3264 31.63 84.6988 29.6504 86.4039 28.7979C86.0255 29.7585 85.6636 30.6402 85.3767 31.5468C85.1602 32.2173 85.0962 32.9278 85.1895 33.6262C85.3185 34.6617 85.9049 35.664 87.427 35.4103C88.2171 35.2813 88.9615 34.9944 89.76 34.9029C92.8999 33.8008 95.9981 32.5574 99.5165 32.6655C99.0673 33.0814 98.6348 33.4972 98.1732 33.8923C97.6201 34.3706 97.017 34.7865 96.4806 35.2813C94.5842 37.0488 94.5717 38.5876 96.4473 40.3509C96.9464 40.8042 97.5161 41.2076 98.0484 41.6567Z" fill="url(#paint0_linear_122_1558)"/>
<path d="M143.275 42.2358C142.667 44.1202 141.436 45.742 139.785 46.8354C139.582 46.5027 139.819 46.2906 139.914 46.066C140.292 45.215 140.586 44.3292 140.792 43.421C141 42.6053 140.879 41.7404 140.455 41.0131C140.327 40.7801 140.137 40.5862 139.907 40.4522C139.677 40.3182 139.415 40.249 139.149 40.2521C138.297 40.2229 137.523 40.5681 136.7 40.6679C134.241 41.5719 131.734 42.3356 129.189 42.9552C128.248 43.1096 127.3 43.2165 126.349 43.2755C126.71 42.5768 127.367 42.1734 127.937 41.6868C128.627 41.1721 129.285 40.6166 129.908 40.0233C131.264 38.5719 131.273 37.1663 129.908 35.719C129.315 35.1402 128.685 34.6012 128.02 34.1054C127.467 33.648 126.939 33.1655 126.265 32.575C127.342 32.4677 128.429 32.5522 129.476 32.8245C131.445 33.3054 133.388 33.8856 135.298 34.5629C135.897 34.7542 136.496 34.9538 137.091 35.1534C137.61 35.2532 138.13 35.3738 138.654 35.4487C139.686 35.5942 140.318 35.2241 140.675 34.251C140.907 33.6224 140.947 32.9395 140.792 32.288C140.593 31.4479 140.329 30.6248 140.002 29.8261C139.826 29.5534 139.732 29.2358 139.731 28.9111C140.63 29.4074 141.4 30.1083 141.977 30.9572C143.125 32.4502 143.62 34.2135 143.844 36.0434C144.113 38.1243 143.919 40.2389 143.275 42.2358Z" fill="url(#paint1_linear_122_1558)"/>
<path d="M137.818 54.9828C136.64 57.8953 134.479 60.3028 131.709 61.7865C130.187 62.8345 127.301 63.4001 125.471 62.8012C125.596 62.5351 125.887 62.5184 126.091 62.4186C126.839 62.0651 127.609 61.7407 128.332 61.3373C129.11 60.9381 129.712 60.2636 130.021 59.4451C130.16 59.1404 130.194 58.7984 130.119 58.4721C130.044 58.1458 129.863 57.8534 129.605 57.6402C128.809 56.9867 127.935 56.4362 127.001 56.0017C125.338 55.1366 123.674 54.3589 122.053 53.4232C120.754 52.7305 119.577 51.8316 118.568 50.7616C119.794 50.587 120.855 50.8406 121.895 50.9696C122.487 51.047 123.086 51.0665 123.683 51.0278C124.406 51.0114 125.094 50.709 125.595 50.1868C126.096 49.6646 126.37 48.9651 126.357 48.2414C126.319 47.3473 126.294 46.4532 126.199 45.559C126.12 44.8104 125.816 44.012 126.336 43.2842C128.831 46.0997 130.204 49.5597 131.925 52.8202C132.192 53.1945 132.441 53.5854 132.732 53.9431C133.564 54.9828 134.512 55.0798 135.577 54.2342C136.152 53.7801 136.614 53.1995 136.928 52.5374C137.124 52.1215 137.344 51.7057 137.527 51.2898C137.699 50.8644 137.907 50.454 138.147 50.063C138.401 51.7306 138.492 53.3941 137.818 54.9828Z" fill="#108DCD"/>
<path d="M115.781 3.08995C115.785 3.48991 115.708 3.88653 115.557 4.25663C115.405 4.62674 115.181 4.96293 114.898 5.24556C114.615 5.52819 114.279 5.7516 113.908 5.90274C113.538 6.05388 113.141 6.12972 112.741 6.12584C111.948 6.08927 111.2 5.74617 110.654 5.16882C110.109 4.59147 109.809 3.82497 109.818 3.0308C109.826 2.23664 110.143 1.47683 110.701 0.911463C111.258 0.346099 112.014 0.0193282 112.808 0C113.208 0.00200132 113.603 0.0841615 113.971 0.241624C114.338 0.399087 114.67 0.628654 114.948 0.916743C115.225 1.20483 115.441 1.54559 115.585 1.91887C115.728 2.29215 115.795 2.69036 115.781 3.08995Z" fill="#189CD8"/>
<path d="M91.4315 13.1831C91.4216 13.781 91.2346 14.3624 90.8942 14.854C90.5538 15.3456 90.0753 15.7252 89.5191 15.9448C88.963 16.1645 88.3542 16.2143 87.7698 16.088C87.1853 15.9616 86.6515 15.6648 86.2357 15.2351C85.8199 14.8054 85.5409 14.262 85.4339 13.6737C85.3269 13.0854 85.3968 12.4786 85.6347 11.93C85.8725 11.3814 86.2677 10.9157 86.7703 10.5917C87.2728 10.2677 87.8602 10.1 88.458 10.1098C88.8571 10.1096 89.2521 10.1896 89.6195 10.3453C89.9869 10.5009 90.3193 10.7289 90.5967 11.0157C90.8742 11.3025 91.0911 11.6421 91.2345 12.0145C91.3779 12.3869 91.4449 12.7843 91.4315 13.1831Z" fill="#F47F34"/>
<path d="M140.543 62.5313C140.551 62.9292 140.478 63.3246 140.327 63.693C140.177 64.0614 139.952 64.3951 139.668 64.6734C139.383 64.9517 139.045 65.1687 138.673 65.3109C138.301 65.4532 137.904 65.5178 137.507 65.5007C137.109 65.503 136.714 65.4255 136.346 65.2727C135.978 65.12 135.645 64.8951 135.365 64.6113C135.086 64.3276 134.866 63.9907 134.719 63.6206C134.572 63.2505 134.5 62.8547 134.508 62.4565C134.519 61.652 134.849 60.8848 135.425 60.3233C136.002 59.7619 136.777 59.4522 137.582 59.4621C137.98 59.4619 138.374 59.5419 138.74 59.6974C139.107 59.8529 139.438 60.0808 139.715 60.3673C139.991 60.6538 140.207 60.9931 140.349 61.3649C140.491 61.7368 140.557 62.1335 140.543 62.5313Z" fill="#1493D2"/>
<path d="M115.802 72.5583C115.802 73.3591 115.484 74.127 114.918 74.6933C114.352 75.2595 113.584 75.5776 112.783 75.5776C111.982 75.5776 111.214 75.2595 110.648 74.6933C110.082 74.127 109.764 73.3591 109.764 72.5583C109.764 71.7576 110.082 70.9896 110.648 70.4234C111.214 69.8572 111.982 69.5391 112.783 69.5391C113.584 69.5391 114.352 69.8572 114.918 70.4234C115.484 70.9896 115.802 71.7576 115.802 72.5583Z" fill="#F47D35"/>
<path d="M91.4109 62.5111C91.4199 62.9104 91.3466 63.3073 91.1956 63.6771C91.0447 64.0469 90.8192 64.3817 90.5332 64.6606C90.2473 64.9395 89.907 65.1566 89.5336 65.2984C89.1601 65.4401 88.7615 65.5035 88.3625 65.4846C87.9637 65.4875 87.5685 65.4101 87.2002 65.257C86.832 65.1038 86.4984 64.8781 86.2194 64.5932C85.9403 64.3083 85.7215 63.9701 85.5759 63.5988C85.4304 63.2275 85.3612 62.8307 85.3724 62.432C85.3756 62.0336 85.4578 61.6398 85.6142 61.2733C85.7705 60.9068 85.998 60.5749 86.2834 60.2969C86.5688 60.0188 86.9064 59.8001 87.2769 59.6534C87.6473 59.5066 88.0432 59.4347 88.4415 59.4419C88.8402 59.4411 89.2349 59.5207 89.6021 59.6759C89.9693 59.8311 90.3014 60.0588 90.5786 60.3453C90.8558 60.6318 91.0724 60.9713 91.2154 61.3434C91.3584 61.7155 91.4249 62.1127 91.4109 62.5111Z" fill="#1597D4"/>
<path d="M78.0073 40.9388C77.609 40.9422 77.2141 40.8658 76.8459 40.714C76.4776 40.5623 76.1435 40.3383 75.8632 40.0554C75.583 39.7724 75.3622 39.4361 75.214 39.0664C75.0659 38.6967 74.9933 38.3011 75.0005 37.9029C75.0005 37.5048 75.0793 37.1107 75.2324 36.7433C75.3854 36.3758 75.6098 36.0423 75.8924 35.762C76.175 35.4817 76.5104 35.2602 76.8791 35.1101C77.2477 34.9601 77.6425 34.8845 78.0405 34.8878C78.8236 34.9208 79.5633 35.2562 80.1042 35.8235C80.645 36.3907 80.9448 37.1456 80.9405 37.9293C80.9362 38.7131 80.6281 39.4646 80.0811 40.0259C79.534 40.5871 78.7906 40.9144 78.0073 40.9388Z" fill="url(#paint2_linear_122_1558)"/>
<path d="M137.532 16.1409C136.936 16.1343 136.355 15.9514 135.863 15.6153C135.37 15.2793 134.988 14.805 134.765 14.2522C134.542 13.6995 134.488 13.0931 134.608 12.5094C134.729 11.9257 135.02 11.3909 135.445 10.9723C135.869 10.5537 136.408 10.2701 136.993 10.1572C137.578 10.0443 138.184 10.1072 138.734 10.3379C139.283 10.5687 139.752 10.9569 140.082 11.4538C140.411 11.9506 140.586 12.5339 140.584 13.1299C140.583 13.5285 140.503 13.923 140.349 14.2905C140.194 14.6581 139.969 14.9914 139.685 15.2713C139.401 15.5512 139.065 15.7722 138.695 15.9214C138.326 16.0707 137.93 16.1453 137.532 16.1409Z" fill="#F47936"/>
<path d="M150.698 39.1587C150.212 40.2608 149.371 40.947 148.082 40.9054C146.419 40.947 145.171 39.9447 144.926 38.4102C144.813 37.6883 144.97 36.9501 145.366 36.3365C145.763 35.7228 146.371 35.2767 147.076 35.0831C148.323 34.6174 149.355 35.0083 150.191 35.9149C150.604 36.3346 150.875 36.8733 150.966 37.4552C151.057 38.0371 150.963 38.6329 150.698 39.1587Z" fill="url(#paint3_linear_122_1558)"/>
<path d="M0.903 104.248C0.903 102.82 1.225 101.539 1.869 100.405C2.513 99.2571 3.388 98.3611 4.494 97.7171C5.614 97.0731 6.853 96.7511 8.211 96.7511C9.807 96.7511 11.2 97.1361 12.39 97.9061C13.58 98.6761 14.448 99.7681 14.994 101.182H12.705C12.299 100.3 11.711 99.6211 10.941 99.1451C10.185 98.6691 9.275 98.4311 8.211 98.4311C7.189 98.4311 6.272 98.6691 5.46 99.1451C4.648 99.6211 4.011 100.3 3.549 101.182C3.087 102.05 2.856 103.072 2.856 104.248C2.856 105.41 3.087 106.432 3.549 107.314C4.011 108.182 4.648 108.854 5.46 109.33C6.272 109.806 7.189 110.044 8.211 110.044C9.275 110.044 10.185 109.813 10.941 109.351C11.711 108.875 12.299 108.196 12.705 107.314H14.994C14.448 108.714 13.58 109.799 12.39 110.569C11.2 111.325 9.807 111.703 8.211 111.703C6.853 111.703 5.614 111.388 4.494 110.758C3.388 110.114 2.513 109.225 1.869 108.091C1.225 106.957 0.903 105.676 0.903 104.248ZM19.7497 96.0371V111.577H17.8387V96.0371H19.7497ZM33.5066 105.382C33.5066 105.746 33.4856 106.131 33.4436 106.537H24.2456C24.3156 107.671 24.7006 108.56 25.4006 109.204C26.1146 109.834 26.9756 110.149 27.9836 110.149C28.8096 110.149 29.4956 109.96 30.0416 109.582C30.6016 109.19 30.9936 108.672 31.2176 108.028H33.2756C32.9676 109.134 32.3516 110.037 31.4276 110.737C30.5036 111.423 29.3556 111.766 27.9836 111.766C26.8916 111.766 25.9116 111.521 25.0436 111.031C24.1896 110.541 23.5176 109.848 23.0276 108.952C22.5376 108.042 22.2926 106.992 22.2926 105.802C22.2926 104.612 22.5306 103.569 23.0066 102.673C23.4826 101.777 24.1476 101.091 25.0016 100.615C25.8696 100.125 26.8636 99.8801 27.9836 99.8801C29.0756 99.8801 30.0416 100.118 30.8816 100.594C31.7216 101.07 32.3656 101.728 32.8136 102.568C33.2756 103.394 33.5066 104.332 33.5066 105.382ZM31.5326 104.983C31.5326 104.255 31.3716 103.632 31.0496 103.114C30.7276 102.582 30.2866 102.183 29.7266 101.917C29.1806 101.637 28.5716 101.497 27.8996 101.497C26.9336 101.497 26.1076 101.805 25.4216 102.421C24.7496 103.037 24.3646 103.891 24.2666 104.983H31.5326ZM35.3151 105.781C35.3151 104.605 35.5531 103.576 36.0291 102.694C36.5051 101.798 37.1561 101.105 37.9821 100.615C38.8221 100.125 39.7531 99.8801 40.7751 99.8801C41.7831 99.8801 42.6581 100.097 43.4001 100.531C44.1421 100.965 44.6951 101.511 45.0591 102.169V100.069H46.9911V111.577H45.0591V109.435C44.6811 110.107 44.1141 110.667 43.3581 111.115C42.6161 111.549 41.7481 111.766 40.7541 111.766C39.7321 111.766 38.8081 111.514 37.9821 111.01C37.1561 110.506 36.5051 109.799 36.0291 108.889C35.5531 107.979 35.3151 106.943 35.3151 105.781ZM45.0591 105.802C45.0591 104.934 44.8841 104.178 44.5341 103.534C44.1841 102.89 43.7081 102.4 43.1061 102.064C42.5181 101.714 41.8671 101.539 41.1531 101.539C40.4391 101.539 39.7881 101.707 39.2001 102.043C38.6121 102.379 38.1431 102.869 37.7931 103.513C37.4431 104.157 37.2681 104.913 37.2681 105.781C37.2681 106.663 37.4431 107.433 37.7931 108.091C38.1431 108.735 38.6121 109.232 39.2001 109.582C39.7881 109.918 40.4391 110.086 41.1531 110.086C41.8671 110.086 42.5181 109.918 43.1061 109.582C43.7081 109.232 44.1841 108.735 44.5341 108.091C44.8841 107.433 45.0591 106.67 45.0591 105.802ZM52.1315 101.938C52.4675 101.28 52.9435 100.769 53.5595 100.405C54.1895 100.041 54.9525 99.8591 55.8485 99.8591V101.833H55.3445C53.2025 101.833 52.1315 102.995 52.1315 105.319V111.577H50.2205V100.069H52.1315V101.938ZM59.9655 102.211C60.3575 101.525 60.9315 100.965 61.6875 100.531C62.4435 100.097 63.3045 99.8801 64.2705 99.8801C65.3065 99.8801 66.2375 100.125 67.0635 100.615C67.8895 101.105 68.5405 101.798 69.0165 102.694C69.4925 103.576 69.7305 104.605 69.7305 105.781C69.7305 106.943 69.4925 107.979 69.0165 108.889C68.5405 109.799 67.8825 110.506 67.0425 111.01C66.2165 111.514 65.2925 111.766 64.2705 111.766C63.2765 111.766 62.4015 111.549 61.6455 111.115C60.9035 110.681 60.3435 110.128 59.9655 109.456V111.577H58.0545V96.0371H59.9655V102.211ZM67.7775 105.781C67.7775 104.913 67.6025 104.157 67.2525 103.513C66.9025 102.869 66.4265 102.379 65.8245 102.043C65.2365 101.707 64.5855 101.539 63.8715 101.539C63.1715 101.539 62.5205 101.714 61.9185 102.064C61.3305 102.4 60.8545 102.897 60.4905 103.555C60.1405 104.199 59.9655 104.948 59.9655 105.802C59.9655 106.67 60.1405 107.433 60.4905 108.091C60.8545 108.735 61.3305 109.232 61.9185 109.582C62.5205 109.918 63.1715 110.086 63.8715 110.086C64.5855 110.086 65.2365 109.918 65.8245 109.582C66.4265 109.232 66.9025 108.735 67.2525 108.091C67.6025 107.433 67.7775 106.663 67.7775 105.781ZM74.1569 101.938C74.4929 101.28 74.9689 100.769 75.5849 100.405C76.2149 100.041 76.9779 99.8591 77.8739 99.8591V101.833H77.3699C75.2279 101.833 74.1569 102.995 74.1569 105.319V111.577H72.2459V100.069H74.1569V101.938ZM85.0989 111.766C84.0209 111.766 83.0409 111.521 82.1589 111.031C81.2909 110.541 80.6049 109.848 80.1009 108.952C79.6109 108.042 79.3659 106.992 79.3659 105.802C79.3659 104.626 79.6179 103.59 80.1219 102.694C80.6399 101.784 81.3399 101.091 82.2219 100.615C83.1039 100.125 84.0909 99.8801 85.1829 99.8801C86.2749 99.8801 87.2619 100.125 88.1439 100.615C89.0259 101.091 89.7189 101.777 90.2229 102.673C90.7409 103.569 90.9999 104.612 90.9999 105.802C90.9999 106.992 90.7339 108.042 90.2019 108.952C89.6839 109.848 88.9769 110.541 88.0809 111.031C87.1849 111.521 86.1909 111.766 85.0989 111.766ZM85.0989 110.086C85.7849 110.086 86.4289 109.925 87.0309 109.603C87.6329 109.281 88.1159 108.798 88.4799 108.154C88.8579 107.51 89.0469 106.726 89.0469 105.802C89.0469 104.878 88.8649 104.094 88.5009 103.45C88.1369 102.806 87.6609 102.33 87.0729 102.022C86.4849 101.7 85.8479 101.539 85.1619 101.539C84.4619 101.539 83.8179 101.7 83.2299 102.022C82.6559 102.33 82.1939 102.806 81.8439 103.45C81.4939 104.094 81.3189 104.878 81.3189 105.802C81.3189 106.74 81.4869 107.531 81.8229 108.175C82.1729 108.819 82.6349 109.302 83.2089 109.624C83.7829 109.932 84.4129 110.086 85.0989 110.086ZM98.5315 111.766C97.4535 111.766 96.4735 111.521 95.5915 111.031C94.7235 110.541 94.0375 109.848 93.5335 108.952C93.0435 108.042 92.7985 106.992 92.7985 105.802C92.7985 104.626 93.0505 103.59 93.5545 102.694C94.0725 101.784 94.7725 101.091 95.6545 100.615C96.5365 100.125 97.5235 99.8801 98.6155 99.8801C99.7075 99.8801 100.695 100.125 101.577 100.615C102.459 101.091 103.152 101.777 103.656 102.673C104.174 103.569 104.433 104.612 104.433 105.802C104.433 106.992 104.167 108.042 103.635 108.952C103.117 109.848 102.41 110.541 101.514 111.031C100.618 111.521 99.6235 111.766 98.5315 111.766ZM98.5315 110.086C99.2175 110.086 99.8615 109.925 100.464 109.603C101.066 109.281 101.549 108.798 101.913 108.154C102.291 107.51 102.48 106.726 102.48 105.802C102.48 104.878 102.298 104.094 101.934 103.45C101.57 102.806 101.094 102.33 100.506 102.022C99.9175 101.7 99.2805 101.539 98.5945 101.539C97.8945 101.539 97.2505 101.7 96.6625 102.022C96.0885 102.33 95.6265 102.806 95.2765 103.45C94.9265 104.094 94.7515 104.878 94.7515 105.802C94.7515 106.74 94.9195 107.531 95.2555 108.175C95.6055 108.819 96.0675 109.302 96.6415 109.624C97.2155 109.932 97.8455 110.086 98.5315 110.086ZM113.371 111.577L108.856 106.495V111.577H106.945V96.0371H108.856V105.172L113.287 100.069H115.954L110.536 105.802L115.975 111.577H113.371ZM122.637 104.248C122.637 102.82 122.959 101.539 123.603 100.405C124.247 99.2571 125.122 98.3611 126.228 97.7171C127.348 97.0731 128.587 96.7511 129.945 96.7511C131.541 96.7511 132.934 97.1361 134.124 97.9061C135.314 98.6761 136.182 99.7681 136.728 101.182H134.439C134.033 100.3 133.445 99.6211 132.675 99.1451C131.919 98.6691 131.009 98.4311 129.945 98.4311C128.923 98.4311 128.006 98.6691 127.194 99.1451C126.382 99.6211 125.745 100.3 125.283 101.182C124.821 102.05 124.59 103.072 124.59 104.248C124.59 105.41 124.821 106.432 125.283 107.314C125.745 108.182 126.382 108.854 127.194 109.33C128.006 109.806 128.923 110.044 129.945 110.044C131.009 110.044 131.919 109.813 132.675 109.351C133.445 108.875 134.033 108.196 134.439 107.314H136.728C136.182 108.714 135.314 109.799 134.124 110.569C132.934 111.325 131.541 111.703 129.945 111.703C128.587 111.703 127.348 111.388 126.228 110.758C125.122 110.114 124.247 109.225 123.603 108.091C122.959 106.957 122.637 105.676 122.637 104.248ZM145.285 99.8591C146.153 99.8591 146.937 100.048 147.637 100.426C148.337 100.79 148.883 101.343 149.275 102.085C149.681 102.827 149.884 103.73 149.884 104.794V111.577H147.994V105.067C147.994 103.919 147.707 103.044 147.133 102.442C146.559 101.826 145.775 101.518 144.781 101.518C143.773 101.518 142.968 101.833 142.366 102.463C141.778 103.093 141.484 104.01 141.484 105.214V111.577H139.573V96.0371H141.484V101.707C141.862 101.119 142.38 100.664 143.038 100.342C143.71 100.02 144.459 99.8591 145.285 99.8591ZM153.993 98.2001C153.629 98.2001 153.321 98.0741 153.069 97.8221C152.817 97.5701 152.691 97.2621 152.691 96.8981C152.691 96.5341 152.817 96.2261 153.069 95.9741C153.321 95.7221 153.629 95.5961 153.993 95.5961C154.343 95.5961 154.637 95.7221 154.875 95.9741C155.127 96.2261 155.253 96.5341 155.253 96.8981C155.253 97.2621 155.127 97.5701 154.875 97.8221C154.637 98.0741 154.343 98.2001 153.993 98.2001ZM154.917 100.069V111.577H153.006V100.069H154.917ZM160.085 96.0371V111.577H158.174V96.0371H160.085ZM162.628 105.781C162.628 104.605 162.866 103.576 163.342 102.694C163.818 101.798 164.469 101.105 165.295 100.615C166.135 100.125 167.073 99.8801 168.109 99.8801C169.005 99.8801 169.838 100.09 170.608 100.51C171.378 100.916 171.966 101.455 172.372 102.127V96.0371H174.304V111.577H172.372V109.414C171.994 110.1 171.434 110.667 170.692 111.115C169.95 111.549 169.082 111.766 168.088 111.766C167.066 111.766 166.135 111.514 165.295 111.01C164.469 110.506 163.818 109.799 163.342 108.889C162.866 107.979 162.628 106.943 162.628 105.781ZM172.372 105.802C172.372 104.934 172.197 104.178 171.847 103.534C171.497 102.89 171.021 102.4 170.419 102.064C169.831 101.714 169.18 101.539 168.466 101.539C167.752 101.539 167.101 101.707 166.513 102.043C165.925 102.379 165.456 102.869 165.106 103.513C164.756 104.157 164.581 104.913 164.581 105.781C164.581 106.663 164.756 107.433 165.106 108.091C165.456 108.735 165.925 109.232 166.513 109.582C167.101 109.918 167.752 110.086 168.466 110.086C169.18 110.086 169.831 109.918 170.419 109.582C171.021 109.232 171.497 108.735 171.847 108.091C172.197 107.433 172.372 106.67 172.372 105.802ZM179.444 101.938C179.78 101.28 180.256 100.769 180.872 100.405C181.502 100.041 182.265 99.8591 183.161 99.8591V101.833H182.657C180.515 101.833 179.444 102.995 179.444 105.319V111.577H177.533V100.069H179.444V101.938ZM195.867 105.382C195.867 105.746 195.846 106.131 195.804 106.537H186.606C186.676 107.671 187.061 108.56 187.761 109.204C188.475 109.834 189.336 110.149 190.344 110.149C191.17 110.149 191.856 109.96 192.402 109.582C192.962 109.19 193.354 108.672 193.578 108.028H195.636C195.328 109.134 194.712 110.037 193.788 110.737C192.864 111.423 191.716 111.766 190.344 111.766C189.252 111.766 188.272 111.521 187.404 111.031C186.55 110.541 185.878 109.848 185.388 108.952C184.898 108.042 184.653 106.992 184.653 105.802C184.653 104.612 184.891 103.569 185.367 102.673C185.843 101.777 186.508 101.091 187.362 100.615C188.23 100.125 189.224 99.8801 190.344 99.8801C191.436 99.8801 192.402 100.118 193.242 100.594C194.082 101.07 194.726 101.728 195.174 102.568C195.636 103.394 195.867 104.332 195.867 105.382ZM193.893 104.983C193.893 104.255 193.732 103.632 193.41 103.114C193.088 102.582 192.647 102.183 192.087 101.917C191.541 101.637 190.932 101.497 190.26 101.497C189.294 101.497 188.468 101.805 187.782 102.421C187.11 103.037 186.725 103.891 186.627 104.983H193.893ZM203.996 99.8591C205.396 99.8591 206.53 100.286 207.398 101.14C208.266 101.98 208.7 103.198 208.7 104.794V111.577H206.81V105.067C206.81 103.919 206.523 103.044 205.949 102.442C205.375 101.826 204.591 101.518 203.597 101.518C202.589 101.518 201.784 101.833 201.182 102.463C200.594 103.093 200.3 104.01 200.3 105.214V111.577H198.389V100.069H200.3V101.707C200.678 101.119 201.189 100.664 201.833 100.342C202.491 100.02 203.212 99.8591 203.996 99.8591ZM212.116 96.9401H214.237L212.221 101.707H210.877L212.116 96.9401ZM220.49 111.766C219.608 111.766 218.817 111.619 218.117 111.325C217.417 111.017 216.864 110.597 216.458 110.065C216.052 109.519 215.828 108.896 215.786 108.196H217.76C217.816 108.77 218.082 109.239 218.558 109.603C219.048 109.967 219.685 110.149 220.469 110.149C221.197 110.149 221.771 109.988 222.191 109.666C222.611 109.344 222.821 108.938 222.821 108.448C222.821 107.944 222.597 107.573 222.149 107.335C221.701 107.083 221.008 106.838 220.07 106.6C219.216 106.376 218.516 106.152 217.97 105.928C217.438 105.69 216.976 105.347 216.584 104.899C216.206 104.437 216.017 103.835 216.017 103.093C216.017 102.505 216.192 101.966 216.542 101.476C216.892 100.986 217.389 100.601 218.033 100.321C218.677 100.027 219.412 99.8801 220.238 99.8801C221.512 99.8801 222.541 100.202 223.325 100.846C224.109 101.49 224.529 102.372 224.585 103.492H222.674C222.632 102.89 222.387 102.407 221.939 102.043C221.505 101.679 220.917 101.497 220.175 101.497C219.489 101.497 218.943 101.644 218.537 101.938C218.131 102.232 217.928 102.617 217.928 103.093C217.928 103.471 218.047 103.786 218.285 104.038C218.537 104.276 218.845 104.472 219.209 104.626C219.587 104.766 220.105 104.927 220.763 105.109C221.589 105.333 222.261 105.557 222.779 105.781C223.297 105.991 223.738 106.313 224.102 106.747C224.48 107.181 224.676 107.748 224.69 108.448C224.69 109.078 224.515 109.645 224.165 110.149C223.815 110.653 223.318 111.052 222.674 111.346C222.044 111.626 221.316 111.766 220.49 111.766Z" fill="#231F20"/>
<path d="M55.732 128.221C55.732 128.645 55.632 129.045 55.432 129.421C55.232 129.797 54.912 130.105 54.472 130.345C54.032 130.577 53.468 130.693 52.78 130.693H51.268V134.077H49.9V125.737H52.78C53.42 125.737 53.96 125.849 54.4 126.073C54.848 126.289 55.18 126.585 55.396 126.961C55.62 127.337 55.732 127.757 55.732 128.221ZM52.78 129.577C53.3 129.577 53.688 129.461 53.944 129.229C54.2 128.989 54.328 128.653 54.328 128.221C54.328 127.309 53.812 126.853 52.78 126.853H51.268V129.577H52.78ZM58.4047 132.973H61.2247V134.077H57.0367V125.737H58.4047V132.973ZM67.3968 132.373H63.9048L63.3048 134.077H61.8768L64.8648 125.725H66.4488L69.4368 134.077H67.9968L67.3968 132.373ZM67.0128 131.257L65.6568 127.381L64.2888 131.257H67.0128ZM70.2799 129.889C70.2799 129.073 70.4679 128.341 70.8439 127.693C71.2279 127.045 71.7439 126.541 72.3919 126.181C73.0479 125.813 73.7639 125.629 74.5399 125.629C75.4279 125.629 76.2159 125.849 76.9039 126.289C77.5999 126.721 78.1039 127.337 78.4159 128.137H76.7719C76.5559 127.697 76.2559 127.369 75.8719 127.153C75.4879 126.937 75.0439 126.829 74.5399 126.829C73.9879 126.829 73.4959 126.953 73.0639 127.201C72.6319 127.449 72.2919 127.805 72.0439 128.269C71.8039 128.733 71.6839 129.273 71.6839 129.889C71.6839 130.505 71.8039 131.045 72.0439 131.509C72.2919 131.973 72.6319 132.333 73.0639 132.589C73.4959 132.837 73.9879 132.961 74.5399 132.961C75.0439 132.961 75.4879 132.853 75.8719 132.637C76.2559 132.421 76.5559 132.093 76.7719 131.653H78.4159C78.1039 132.453 77.5999 133.069 76.9039 133.501C76.2159 133.933 75.4279 134.149 74.5399 134.149C73.7559 134.149 73.0399 133.969 72.3919 133.609C71.7439 133.241 71.2279 132.733 70.8439 132.085C70.4679 131.437 70.2799 130.705 70.2799 129.889ZM81.3852 126.841V129.289H84.2652V130.405H81.3852V132.961H84.6252V134.077H80.0172V125.725H84.6252V126.841H81.3852ZM95.0942 125.737V134.077H93.7262V128.365L91.1822 134.077H90.2342L87.6782 128.365V134.077H86.3102V125.737H87.7862L90.7142 132.277L93.6302 125.737H95.0942ZM98.2602 126.841V129.289H101.14V130.405H98.2602V132.961H101.5V134.077H96.8922V125.725H101.5V126.841H98.2602ZM110.037 134.077H108.669L104.553 127.849V134.077H103.185V125.725H104.553L108.669 131.941V125.725H110.037V134.077ZM117.222 125.737V126.853H115.002V134.077H113.634V126.853H111.402V125.737H117.222ZM124.472 134.161C123.912 134.161 123.408 134.065 122.96 133.873C122.512 133.673 122.16 133.393 121.904 133.033C121.648 132.673 121.52 132.253 121.52 131.773H122.984C123.016 132.133 123.156 132.429 123.404 132.661C123.66 132.893 124.016 133.009 124.472 133.009C124.944 133.009 125.312 132.897 125.576 132.673C125.84 132.441 125.972 132.145 125.972 131.785C125.972 131.505 125.888 131.277 125.72 131.101C125.56 130.925 125.356 130.789 125.108 130.693C124.868 130.597 124.532 130.493 124.1 130.381C123.556 130.237 123.112 130.093 122.768 129.949C122.432 129.797 122.144 129.565 121.904 129.253C121.664 128.941 121.544 128.525 121.544 128.005C121.544 127.525 121.664 127.105 121.904 126.745C122.144 126.385 122.48 126.109 122.912 125.917C123.344 125.725 123.844 125.629 124.412 125.629C125.22 125.629 125.88 125.833 126.392 126.241C126.912 126.641 127.2 127.193 127.256 127.897H125.744C125.72 127.593 125.576 127.333 125.312 127.117C125.048 126.901 124.7 126.793 124.268 126.793C123.876 126.793 123.556 126.893 123.308 127.093C123.06 127.293 122.936 127.581 122.936 127.957C122.936 128.213 123.012 128.425 123.164 128.593C123.324 128.753 123.524 128.881 123.764 128.977C124.004 129.073 124.332 129.177 124.748 129.289C125.3 129.441 125.748 129.593 126.092 129.745C126.444 129.897 126.74 130.133 126.98 130.453C127.228 130.765 127.352 131.185 127.352 131.713C127.352 132.137 127.236 132.537 127.004 132.913C126.78 133.289 126.448 133.593 126.008 133.825C125.576 134.049 125.064 134.161 124.472 134.161ZM130.334 126.841V129.289H133.214V130.405H130.334V132.961H133.574V134.077H128.966V125.725H133.574V126.841H130.334ZM139.591 134.077L137.671 130.741H136.627V134.077H135.259V125.737H138.139C138.779 125.737 139.319 125.849 139.759 126.073C140.207 126.297 140.539 126.597 140.755 126.973C140.979 127.349 141.091 127.769 141.091 128.233C141.091 128.777 140.931 129.273 140.611 129.721C140.299 130.161 139.815 130.461 139.159 130.621L141.223 134.077H139.591ZM136.627 129.649H138.139C138.651 129.649 139.035 129.521 139.291 129.265C139.555 129.009 139.687 128.665 139.687 128.233C139.687 127.801 139.559 127.465 139.303 127.225C139.047 126.977 138.659 126.853 138.139 126.853H136.627V129.649ZM150.029 125.737L146.897 134.077H145.313L142.169 125.737H143.633L146.105 132.673L148.589 125.737H150.029ZM152.541 125.737V134.077H151.173V125.737H152.541ZM153.882 129.889C153.882 129.073 154.07 128.341 154.446 127.693C154.83 127.045 155.346 126.541 155.994 126.181C156.65 125.813 157.366 125.629 158.142 125.629C159.03 125.629 159.818 125.849 160.506 126.289C161.202 126.721 161.706 127.337 162.018 128.137H160.374C160.158 127.697 159.858 127.369 159.474 127.153C159.09 126.937 158.646 126.829 158.142 126.829C157.59 126.829 157.098 126.953 156.666 127.201C156.234 127.449 155.894 127.805 155.646 128.269C155.406 128.733 155.286 129.273 155.286 129.889C155.286 130.505 155.406 131.045 155.646 131.509C155.894 131.973 156.234 132.333 156.666 132.589C157.098 132.837 157.59 132.961 158.142 132.961C158.646 132.961 159.09 132.853 159.474 132.637C159.858 132.421 160.158 132.093 160.374 131.653H162.018C161.706 132.453 161.202 133.069 160.506 133.501C159.818 133.933 159.03 134.149 158.142 134.149C157.358 134.149 156.642 133.969 155.994 133.609C155.346 133.241 154.83 132.733 154.446 132.085C154.07 131.437 153.882 130.705 153.882 129.889ZM164.987 126.841V129.289H167.867V130.405H164.987V132.961H168.227V134.077H163.619V125.725H168.227V126.841H164.987ZM172.66 134.161C172.1 134.161 171.596 134.065 171.148 133.873C170.7 133.673 170.348 133.393 170.092 133.033C169.836 132.673 169.708 132.253 169.708 131.773H171.172C171.204 132.133 171.344 132.429 171.592 132.661C171.848 132.893 172.204 133.009 172.66 133.009C173.132 133.009 173.5 132.897 173.764 132.673C174.028 132.441 174.16 132.145 174.16 131.785C174.16 131.505 174.076 131.277 173.908 131.101C173.748 130.925 173.544 130.789 173.296 130.693C173.056 130.597 172.72 130.493 172.288 130.381C171.744 130.237 171.3 130.093 170.956 129.949C170.62 129.797 170.332 129.565 170.092 129.253C169.852 128.941 169.732 128.525 169.732 128.005C169.732 127.525 169.852 127.105 170.092 126.745C170.332 126.385 170.668 126.109 171.1 125.917C171.532 125.725 172.032 125.629 172.6 125.629C173.408 125.629 174.068 125.833 174.58 126.241C175.1 126.641 175.388 127.193 175.444 127.897H173.932C173.908 127.593 173.764 127.333 173.5 127.117C173.236 126.901 172.888 126.793 172.456 126.793C172.064 126.793 171.744 126.893 171.496 127.093C171.248 127.293 171.124 127.581 171.124 127.957C171.124 128.213 171.2 128.425 171.352 128.593C171.512 128.753 171.712 128.881 171.952 128.977C172.192 129.073 172.52 129.177 172.936 129.289C173.488 129.441 173.936 129.593 174.28 129.745C174.632 129.897 174.928 130.133 175.168 130.453C175.416 130.765 175.54 131.185 175.54 131.713C175.54 132.137 175.424 132.537 175.192 132.913C174.968 133.289 174.636 133.593 174.196 133.825C173.764 134.049 173.252 134.161 172.66 134.161Z" fill="#231F20"/>
<defs>
<linearGradient id="paint0_linear_122_1558" x1="81.9998" y1="37.839" x2="99.5081" y2="37.839" gradientUnits="userSpaceOnUse">
<stop offset="0.45" stop-color="#48B74F"/>
<stop offset="1" stop-color="#A8AB36"/>
</linearGradient>
<linearGradient id="paint1_linear_122_1558" x1="126.282" y1="37.8649" x2="143.957" y2="37.8649" gradientUnits="userSpaceOnUse">
<stop stop-color="#A8AB36"/>
<stop offset="0.54" stop-color="#48B74F"/>
</linearGradient>
<linearGradient id="paint2_linear_122_1558" x1="75.0005" y1="37.9154" x2="81.0348" y2="37.9154" gradientUnits="userSpaceOnUse">
<stop offset="0.45" stop-color="#48B74F"/>
<stop offset="1" stop-color="#A8AB36"/>
</linearGradient>
<linearGradient id="paint3_linear_122_1558" x1="144.888" y1="37.8986" x2="150.989" y2="37.8986" gradientUnits="userSpaceOnUse">
<stop stop-color="#A8AB36"/>
<stop offset="0.54" stop-color="#48B74F"/>
</linearGradient>
</defs>
</svg>
