<svg width="72" height="72" viewBox="0 0 72 72" fill="none" xmlns="http://www.w3.org/2000/svg">
<path d="M0 7C0 3.13401 3.13401 0 7 0H65C68.866 0 72 3.13401 72 7V65C72 68.866 68.866 72 65 72H7C3.13401 72 0 68.866 0 65V7Z" fill="#2863F5"/>
<path d="M54.9164 51.0708C54.6618 51.6598 54.3274 52.1804 53.651 52.3438C53.4127 52.3964 53.1691 52.4206 52.9252 52.416C50.6832 52.416 48.4425 52.416 46.203 52.416C44.8996 52.416 44.2118 51.7168 44.2118 50.402V34.1988C44.2118 32.8992 44.9186 32.1848 46.2144 32.181C48.369 32.181 50.5236 32.2076 52.6744 32.181C53.7536 32.162 54.5364 32.5116 54.9164 33.568V51.0708Z" fill="white"/>
<path d="M31.4134 44.645C31.4134 42.6994 31.4438 40.7538 31.4134 38.812C31.3946 38.5447 31.4336 38.2765 31.5278 38.0256C31.622 37.7747 31.769 37.5471 31.9591 37.3582C32.1491 37.1692 32.3776 37.0234 32.629 36.9307C32.8804 36.838 33.1488 36.8005 33.416 36.8208C35.6542 36.8398 37.8962 36.8208 40.1382 36.8208C41.4074 36.8208 42.1332 37.5466 42.1332 38.812C42.1332 42.688 42.1332 46.5653 42.1332 50.4438C42.1332 51.6978 41.4226 52.4084 40.1648 52.4122C37.8848 52.4122 35.6352 52.3894 33.3704 52.4122C33.1097 52.4288 32.8485 52.3899 32.6041 52.2979C32.3596 52.2059 32.1375 52.063 31.9524 51.8787C31.7674 51.6943 31.6236 51.4728 31.5307 51.2287C31.4378 50.9846 31.3978 50.7235 31.4134 50.4628C31.44 48.54 31.4134 46.5906 31.4134 44.645Z" fill="white"/>
<path d="M19.66 33.8492C24.7777 33.5955 29.8267 32.5614 34.632 30.7826C38.849 29.2786 42.8693 27.2716 46.6058 24.8052C47.077 24.4974 47.0846 24.3872 46.6894 23.9996C46.2296 23.5512 45.766 23.1104 45.3176 22.6544C44.8046 22.1338 44.9148 21.6778 45.6178 21.5144C48.1942 20.876 50.7706 20.2427 53.347 19.6144C54.0614 19.4396 54.4148 19.7968 54.2552 20.5264C53.6852 23.118 53.1089 25.7071 52.5262 28.2936C52.3514 29.0536 51.8916 29.1828 51.3216 28.6204C50.7516 28.058 50.2576 27.5602 49.7256 27.0282C49.376 26.6824 49.2658 26.6672 48.8668 26.9446C45.8345 29.0056 42.6128 30.773 39.2452 32.2228C35.2647 33.9787 31.0952 35.2704 26.8192 36.0722C24.1737 36.5882 21.4851 36.8516 18.7898 36.8588C17.8968 36.8588 17.3496 36.456 17.1368 35.7188C17.0794 35.5169 17.0657 35.3051 17.0965 35.0974C17.1273 34.8898 17.202 34.6911 17.3156 34.5146C17.4292 34.3381 17.5791 34.1878 17.7554 34.0737C17.9316 33.9596 18.13 33.8844 18.3376 33.853C18.7779 33.8253 19.2195 33.824 19.66 33.8492Z" fill="white"/>
<path d="M29.2854 46.7464C29.2854 47.989 29.2512 49.2354 29.2854 50.478C29.3022 50.7387 29.2632 50.9999 29.1709 51.2443C29.0786 51.4887 28.9352 51.7106 28.7504 51.8951C28.5655 52.0797 28.3433 52.2226 28.0987 52.3144C27.8542 52.4062 27.5928 52.4447 27.3322 52.4274C25.0522 52.397 22.8026 52.4274 20.5378 52.4274C19.28 52.416 18.5808 51.7054 18.577 50.44C18.577 47.9523 18.577 45.4645 18.577 42.9768C18.577 41.7266 19.3028 41.0122 20.5568 41.0122H27.3512C28.571 41.0122 29.2778 41.7114 29.2854 42.9122C29.293 44.113 29.2854 45.4772 29.2854 46.7464Z" fill="white"/>
</svg>
