<svg width="10" height="9" viewBox="0 0 10 9" fill="none" xmlns="http://www.w3.org/2000/svg">
<path d="M6.67666 7.51262C6.67666 8.0649 6.22895 8.51262 5.67666 8.51262H5.06537C4.51308 8.51262 4.06537 8.0649 4.06537 7.51262V3.63721C4.06537 3.08492 4.51308 2.63721 5.06537 2.63721H5.67666C6.22895 2.63721 6.67666 3.08492 6.67666 3.63721V7.51262Z" fill="black"/>
<path d="M3.41253 7.51313C3.41253 8.06541 2.96482 8.51313 2.41253 8.51313H1.80124C1.24895 8.51313 0.801239 8.06541 0.801239 7.51313V5.59619C0.801239 5.04391 1.24895 4.59619 1.80124 4.59619H2.41253C2.96482 4.59619 3.41253 5.04391 3.41253 5.59619V7.51313Z" fill="black"/>
<rect x="7.3295" width="2.61129" height="8.51281" rx="1" fill="#7C7C7C"/>
</svg>
