<svg width="18" height="18" viewBox="0 0 18 18" fill="none" xmlns="http://www.w3.org/2000/svg">
<path d="M17.7679 7.45528C17.8598 7.37809 17.9272 7.27418 17.9615 7.15694C17.9958 7.0397 17.9954 6.91451 17.9603 6.7975C17.9253 6.68049 17.8573 6.57704 17.7649 6.50048C17.6726 6.42392 17.5603 6.37775 17.4424 6.36795H12.0108C11.9027 6.37433 11.7955 6.34515 11.7044 6.28458C11.6133 6.22401 11.5431 6.13515 11.5037 6.03071L9.8405 0.410103C9.80887 0.292173 9.74081 0.188225 9.64675 0.114162C9.55268 0.040099 9.43778 0 9.31963 0C9.20147 0 9.08657 0.040099 8.99251 0.114162C8.89844 0.188225 8.83039 0.292173 8.79876 0.410103L7.13553 6.03071C7.09616 6.13515 7.02592 6.22401 6.93484 6.28458C6.84377 6.34515 6.73653 6.37433 6.62848 6.36795H1.19685C1.07897 6.37775 0.966635 6.42392 0.874318 6.50048C0.782002 6.57704 0.713941 6.68049 0.67891 6.7975C0.643879 6.91451 0.643484 7.0397 0.677776 7.15694C0.712069 7.27418 0.779476 7.37809 0.871307 7.45528L5.29079 10.8338C5.37783 10.9096 5.44118 11.0105 5.47279 11.1237C5.5044 11.2368 5.50286 11.3572 5.46836 11.4694L3.36911 17.2413C3.33053 17.3545 3.32808 17.4775 3.36211 17.5922C3.39615 17.707 3.46487 17.8073 3.55814 17.8785C3.65142 17.9497 3.76431 17.988 3.88018 17.9877C3.99605 17.9874 4.10877 17.9486 4.20171 17.8769L8.93687 14.198C8.99146 14.1568 9.05341 14.1272 9.11913 14.1111C9.18484 14.095 9.253 14.0925 9.31963 14.1039C9.3861 14.0951 9.45361 14.0999 9.51828 14.1182C9.58295 14.1364 9.6435 14.1677 9.69647 14.2102L14.4316 17.8892C14.5246 17.9608 14.6373 17.9997 14.7532 18C14.869 18.0003 14.9819 17.962 15.0752 17.8908C15.1685 17.8196 15.2372 17.7192 15.2712 17.6045C15.3053 17.4897 15.3028 17.3667 15.2642 17.2535L13.1709 11.4674C13.1364 11.3551 13.1349 11.2348 13.1665 11.1216C13.1981 11.0084 13.2614 10.9076 13.3485 10.8317L17.7679 7.45528ZM11.6142 10.8767L12.798 14.1019C12.8201 14.1675 12.8215 14.2386 12.802 14.305C12.7824 14.3714 12.743 14.4297 12.6894 14.4714C12.6358 14.513 12.5707 14.5359 12.5037 14.5367C12.4367 14.5376 12.3711 14.5163 12.3166 14.4759C10.3923 13.0016 9.39328 12.2359 9.31963 12.1786C9.25123 12.2359 8.25619 13.0016 6.3345 14.4759C6.28028 14.5194 6.21388 14.5434 6.14533 14.5443C6.07678 14.5452 6.00981 14.523 5.95454 14.4809C5.89927 14.4389 5.8587 14.3794 5.83898 14.3114C5.81925 14.2434 5.82144 14.1706 5.8452 14.1039L7.02899 10.8787C7.05609 10.8304 7.07366 10.7769 7.08069 10.7215C7.08771 10.666 7.08406 10.6097 7.06993 10.5557C7.0558 10.5017 7.03148 10.4512 6.99838 10.407C6.96528 10.3628 6.92405 10.3259 6.87707 10.2983L4.38717 8.50378C4.33176 8.45896 4.29098 8.39761 4.27031 8.32802C4.24965 8.25842 4.25011 8.18393 4.27163 8.11461C4.29314 8.04529 4.33468 7.98449 4.39063 7.94041C4.44657 7.89633 4.51423 7.8711 4.58446 7.86814H7.50448C7.62352 7.8758 7.74166 7.84248 7.8405 7.77335C7.93935 7.70422 8.01336 7.60317 8.051 7.48594L9.00987 4.29343C9.02858 4.22579 9.06748 4.16602 9.121 4.1227C9.17452 4.07937 9.23991 4.05471 9.30779 4.05226H9.34528C9.41074 4.0576 9.47305 4.08358 9.52384 4.12669C9.57463 4.16981 9.61146 4.22799 9.62939 4.29343L10.5981 7.49411C10.6358 7.61135 10.7098 7.7124 10.8086 7.78153C10.9075 7.85065 11.0256 7.88398 11.1446 7.87631H14.0647C14.1349 7.87928 14.2025 7.90451 14.2585 7.94858C14.3144 7.99266 14.356 8.05347 14.3775 8.12279C14.399 8.19211 14.3995 8.2666 14.3788 8.33619C14.3581 8.40579 14.3174 8.46714 14.262 8.51195L11.7661 10.2962C11.7192 10.3238 11.6779 10.3608 11.6448 10.4049C11.6117 10.4491 11.5874 10.4997 11.5733 10.5536C11.5591 10.6076 11.5555 10.664 11.5625 10.7194C11.5695 10.7749 11.5871 10.8283 11.6142 10.8767Z" fill="#9F0DA4"/>
</svg>
