<svg width="32" height="25" viewBox="0 0 32 25" fill="none" xmlns="http://www.w3.org/2000/svg">
<path d="M24.5518 24.5526C25.9791 24.5526 27.1362 23.3955 27.1362 21.9682C27.1362 20.5409 25.9791 19.3838 24.5518 19.3838C23.1245 19.3838 21.9674 20.5409 21.9674 21.9682C21.9674 23.3955 23.1245 24.5526 24.5518 24.5526Z" fill="white"/>
<path d="M12.922 24.5526C14.3493 24.5526 15.5064 23.3955 15.5064 21.9682C15.5064 20.5409 14.3493 19.3838 12.922 19.3838C11.4947 19.3838 10.3376 20.5409 10.3376 21.9682C10.3376 23.3955 11.4947 24.5526 12.922 24.5526Z" fill="white"/>
<path d="M30.6907 4.8766L27.6783 15.9222C27.4895 16.6125 26.863 17.0908 26.1489 17.0908H10.0546C9.32743 17.0908 8.69323 16.5956 8.51645 15.89L5.12973 2.34188L4.94038 1.5844H4.15959H1.2922C1.13119 1.5844 1 1.45321 1 1.2922C1 1.13119 1.13119 1 1.2922 1H4.15959C4.88695 1 5.52046 1.49525 5.69618 2.1997L5.69633 2.20028L9.08447 15.749L9.27387 16.5064H10.0546H26.1489H26.9154L27.1146 15.7662L30.0451 4.8766H30.6907Z" fill="white" stroke="white" stroke-width="2"/>
<path d="M18.0908 0V10.3376" stroke="white" stroke-width="1.5" stroke-miterlimit="10"/>
<path d="M23.2596 5.16895H12.922" stroke="white" stroke-width="1.5" stroke-miterlimit="10"/>
</svg>
