<svg width="21" height="24" viewBox="0 0 21 24" fill="none" xmlns="http://www.w3.org/2000/svg">
<path d="M14.8604 1H7.20943C6.7659 1 6.32237 1.22177 5.98972 1.55441C5.65707 1.88706 5.4353 2.3306 5.4353 2.77413V16.9671C5.4353 17.4107 5.65707 17.8542 5.98972 18.1869C6.32237 18.5195 6.7659 18.7413 7.20943 18.7413H18.076C18.5195 18.7413 18.963 18.5195 19.2957 18.1869C19.6283 17.8542 19.8501 17.4107 19.8501 16.9671V5.98973L14.8604 1Z" stroke="black" stroke-width="1.5" stroke-linecap="round" stroke-linejoin="round"/>
<path d="M1 7.20996V21.403C1 21.8465 1.22177 22.29 1.55441 22.6227C1.88706 22.9553 2.3306 23.1771 2.77413 23.1771H13.6407" stroke="black" stroke-width="1.5" stroke-linecap="round" stroke-linejoin="round"/>
</svg>
