<svg width="23" height="23" viewBox="0 0 23 23" fill="none" xmlns="http://www.w3.org/2000/svg">
<path d="M18.2936 16.5715L18.7031 19.8895C18.8081 20.761 17.8736 21.37 17.1281 20.9185L12.7286 18.304C12.2456 18.304 11.7731 18.2725 11.3111 18.2095C12.0881 17.296 12.5501 16.141 12.5501 14.8915C12.5501 11.9095 9.96706 9.4945 6.77503 9.4945C5.55703 9.4945 4.43353 9.841 3.49903 10.45C3.46753 10.1875 3.45703 9.925 3.45703 9.652C3.45703 4.87449 7.60453 1 12.7286 1C17.8526 1 22.0001 4.87449 22.0001 9.652C22.0001 12.487 20.5406 14.9965 18.2936 16.5715Z" stroke="#292D32" stroke-width="1.5" stroke-linecap="round" stroke-linejoin="round"/>
<path d="M12.55 14.8915C12.55 16.141 12.088 17.2961 11.311 18.2096C10.2715 19.4696 8.623 20.278 6.775 20.278L4.0345 21.9055C3.5725 22.189 2.9845 21.8005 3.0475 21.265L3.31 19.1966C1.903 18.2201 1 16.6555 1 14.8915C1 13.0435 1.987 11.4161 3.499 10.4501C4.4335 9.84113 5.557 9.49463 6.775 9.49463C9.967 9.49463 12.55 11.9095 12.55 14.8915Z" stroke="#292D32" stroke-width="1.5" stroke-linecap="round" stroke-linejoin="round"/>
</svg>
