<svg width="89" height="16" viewBox="0 0 89 16" fill="none" xmlns="http://www.w3.org/2000/svg">
<path d="M14.8628 5.42861H10.0547C9.95901 5.43406 9.86408 5.40918 9.78346 5.35754C9.70284 5.30591 9.64066 5.23015 9.60581 5.14112L8.13349 0.349609C8.1055 0.249075 8.04525 0.16046 7.96198 0.097322C7.87872 0.034184 7.777 0 7.67241 0C7.56782 0 7.46611 0.034184 7.38284 0.097322C7.29957 0.16046 7.23933 0.249075 7.21133 0.349609L5.73902 5.14112C5.70417 5.23015 5.64199 5.30591 5.56136 5.35754C5.48074 5.40918 5.38582 5.43406 5.29017 5.42861H0.482005C0.377659 5.43698 0.278215 5.47633 0.196495 5.5416C0.114776 5.60686 0.0545269 5.69506 0.0235168 5.7948C-0.00749322 5.89455 -0.00784275 6.00128 0.0225134 6.10122C0.0528696 6.20117 0.11254 6.28975 0.19383 6.35555L4.10603 9.23569C4.18308 9.30033 4.23915 9.38633 4.26713 9.48281C4.29512 9.57928 4.29375 9.68187 4.26321 9.77757L2.40492 14.698C2.37077 14.7945 2.3686 14.8994 2.39873 14.9972C2.42886 15.095 2.48969 15.1806 2.57226 15.2413C2.65483 15.302 2.75477 15.3346 2.85733 15.3344C2.9599 15.3341 3.05968 15.301 3.14195 15.2399L7.33359 12.1036C7.38191 12.0685 7.43676 12.0433 7.49493 12.0296C7.5531 12.0158 7.61343 12.0137 7.67241 12.0235C7.73126 12.0159 7.79102 12.02 7.84826 12.0356C7.90551 12.0511 7.95911 12.0778 8.006 12.1141L12.1976 15.2503C12.2799 15.3115 12.3797 15.3446 12.4823 15.3448C12.5848 15.3451 12.6848 15.3124 12.7673 15.2517C12.8499 15.191 12.9107 15.1055 12.9409 15.0077C12.971 14.9098 12.9688 14.805 12.9347 14.7085L11.0816 9.77582C11.0511 9.68013 11.0497 9.57754 11.0777 9.48106C11.1057 9.38459 11.1618 9.29858 11.2388 9.23395L15.151 6.35555C15.2323 6.28975 15.292 6.20117 15.3223 6.10122C15.3527 6.00128 15.3523 5.89455 15.3213 5.7948C15.2903 5.69506 15.2301 5.60686 15.1483 5.5416C15.0666 5.47633 14.9672 5.43698 14.8628 5.42861Z" fill="#FFD630"/>
<path d="M33.2766 5.42861H28.4685C28.3728 5.43406 28.2779 5.40918 28.1973 5.35754C28.1167 5.30591 28.0545 5.23015 28.0196 5.14112L26.5473 0.349609C26.5193 0.249075 26.4591 0.16046 26.3758 0.097322C26.2925 0.034184 26.1908 0 26.0862 0C25.9816 0 25.8799 0.034184 25.7967 0.097322C25.7134 0.16046 25.6532 0.249075 25.6252 0.349609L24.1528 5.14112C24.118 5.23015 24.0558 5.30591 23.9752 5.35754C23.8946 5.40918 23.7996 5.43406 23.704 5.42861H18.8958C18.7915 5.43698 18.692 5.47633 18.6103 5.5416C18.5286 5.60686 18.4683 5.69506 18.4373 5.7948C18.4063 5.89455 18.406 6.00128 18.4363 6.10122C18.4667 6.20117 18.5264 6.28975 18.6076 6.35555L22.5198 9.23569C22.5969 9.30033 22.653 9.38633 22.681 9.48281C22.7089 9.57928 22.7076 9.68187 22.677 9.77757L20.8187 14.698C20.7846 14.7945 20.7824 14.8994 20.8125 14.9972C20.8427 15.095 20.9035 15.1806 20.9861 15.2413C21.0686 15.302 21.1686 15.3346 21.2712 15.3344C21.3737 15.3341 21.4735 15.301 21.5558 15.2399L25.7474 12.1036C25.7957 12.0685 25.8506 12.0433 25.9087 12.0296C25.9669 12.0158 26.0272 12.0137 26.0862 12.0235C26.1451 12.0159 26.2048 12.02 26.2621 12.0356C26.3193 12.0511 26.3729 12.0778 26.4198 12.1141L30.6115 15.2503C30.6937 15.3115 30.7935 15.3446 30.8961 15.3448C30.9986 15.3451 31.0986 15.3124 31.1811 15.2517C31.2637 15.191 31.3246 15.1055 31.3547 15.0077C31.3848 14.9098 31.3826 14.805 31.3485 14.7085L29.4954 9.77582C29.4649 9.68013 29.4635 9.57754 29.4915 9.48106C29.5195 9.38459 29.5756 9.29858 29.6526 9.23395L33.5648 6.35555C33.6461 6.28975 33.7058 6.20117 33.7361 6.10122C33.7665 6.00128 33.7661 5.89455 33.7351 5.7948C33.7041 5.69506 33.6439 5.60686 33.5622 5.5416C33.4804 5.47633 33.381 5.43698 33.2766 5.42861Z" fill="#FFD630"/>
<path d="M51.6905 5.42861H46.8823C46.7866 5.43406 46.6917 5.40918 46.6111 5.35754C46.5305 5.30591 46.4683 5.23015 46.4334 5.14112L44.9611 0.349609C44.9331 0.249075 44.8729 0.16046 44.7896 0.097322C44.7064 0.034184 44.6046 0 44.5001 0C44.3955 0 44.2937 0.034184 44.2105 0.097322C44.1272 0.16046 44.067 0.249075 44.039 0.349609L42.5667 5.14112C42.5318 5.23015 42.4696 5.30591 42.389 5.35754C42.3084 5.40918 42.2135 5.43406 42.1178 5.42861H37.3096C37.2053 5.43698 37.1059 5.47633 37.0241 5.5416C36.9424 5.60686 36.8822 5.69506 36.8512 5.7948C36.8201 5.89455 36.8198 6.00128 36.8502 6.10122C36.8805 6.20117 36.9402 6.28975 37.0215 6.35555L40.9337 9.23569C41.0107 9.30033 41.0668 9.38633 41.0948 9.48281C41.1228 9.57928 41.1214 9.68187 41.0909 9.77757L39.2326 14.698C39.1984 14.7945 39.1962 14.8994 39.2264 14.9972C39.2565 15.095 39.3173 15.1806 39.3999 15.2413C39.4825 15.302 39.5824 15.3346 39.685 15.3344C39.7875 15.3341 39.8873 15.301 39.9696 15.2399L44.1612 12.1036C44.2095 12.0685 44.2644 12.0433 44.3226 12.0296C44.3807 12.0158 44.4411 12.0137 44.5001 12.0235C44.5589 12.0159 44.6187 12.02 44.6759 12.0356C44.7331 12.0511 44.7867 12.0778 44.8336 12.1141L49.0253 15.2503C49.1075 15.3115 49.2073 15.3446 49.3099 15.3448C49.4125 15.3451 49.5124 15.3124 49.595 15.2517C49.6775 15.191 49.7384 15.1055 49.7685 15.0077C49.7986 14.9098 49.7965 14.805 49.7623 14.7085L47.9093 9.77582C47.8787 9.68013 47.8773 9.57754 47.9053 9.48106C47.9333 9.38459 47.9894 9.29858 48.0664 9.23395L51.9786 6.35555C52.0599 6.28975 52.1196 6.20117 52.15 6.10122C52.1803 6.00128 52.18 5.89455 52.1489 5.7948C52.1179 5.69506 52.0577 5.60686 51.976 5.5416C51.8942 5.47633 51.7948 5.43698 51.6905 5.42861Z" fill="#FFD630"/>
<path d="M70.1043 5.42861H65.2961C65.2005 5.43406 65.1055 5.40918 65.0249 5.35754C64.9443 5.30591 64.8821 5.23015 64.8473 5.14112L63.3749 0.349609C63.347 0.249075 63.2867 0.16046 63.2034 0.097322C63.1202 0.034184 63.0185 0 62.9139 0C62.8093 0 62.7076 0.034184 62.6243 0.097322C62.541 0.16046 62.4808 0.249075 62.4528 0.349609L60.9805 5.14112C60.9456 5.23015 60.8834 5.30591 60.8028 5.35754C60.7222 5.40918 60.6273 5.43406 60.5316 5.42861H55.7235C55.6191 5.43698 55.5197 5.47633 55.438 5.5416C55.3562 5.60686 55.296 5.69506 55.265 5.7948C55.234 5.89455 55.2336 6.00128 55.264 6.10122C55.2943 6.20117 55.354 6.28975 55.4353 6.35555L59.3475 9.23569C59.4245 9.30033 59.4806 9.38633 59.5086 9.48281C59.5366 9.57928 59.5352 9.68187 59.5047 9.77757L57.6464 14.698C57.6122 14.7945 57.6101 14.8994 57.6402 14.9972C57.6703 15.095 57.7311 15.1806 57.8137 15.2413C57.8963 15.302 57.9962 15.3346 58.0988 15.3344C58.2014 15.3341 58.3011 15.301 58.3834 15.2399L62.575 12.1036C62.6234 12.0685 62.6782 12.0433 62.7364 12.0296C62.7946 12.0158 62.8549 12.0137 62.9139 12.0235C62.9727 12.0159 63.0325 12.02 63.0897 12.0356C63.147 12.0511 63.2006 12.0778 63.2475 12.1141L67.4391 15.2503C67.5214 15.3115 67.6211 15.3446 67.7237 15.3448C67.8263 15.3451 67.9262 15.3124 68.0088 15.2517C68.0914 15.191 68.1522 15.1055 68.1823 15.0077C68.2124 14.9098 68.2103 14.805 68.1761 14.7085L66.3231 9.77582C66.2925 9.68013 66.2912 9.57754 66.3191 9.48106C66.3471 9.38459 66.4032 9.29858 66.4803 9.23395L70.3925 6.35555C70.4737 6.28975 70.5334 6.20117 70.5638 6.10122C70.5941 6.00128 70.5938 5.89455 70.5628 5.7948C70.5318 5.69506 70.4715 5.60686 70.3898 5.5416C70.3081 5.47633 70.2086 5.43698 70.1043 5.42861Z" fill="#FFD630"/>
<path d="M81.7874 0.351987L83.2595 5.14597C83.3235 5.33773 83.5155 5.43361 83.7075 5.43361H88.5076C88.9876 5.43361 89.1796 6.07281 88.7956 6.36045L84.8915 9.23684C84.7315 9.36468 84.6675 9.5884 84.7315 9.78016L86.5875 14.702C86.7155 15.1494 86.2355 15.5329 85.8515 15.2453L81.6594 12.1132C81.4994 11.9854 81.2754 11.9854 81.0834 12.1132L76.8594 15.2453C76.4754 15.5329 75.9633 15.1494 76.1233 14.702L77.9154 9.78016C77.9794 9.5884 77.9154 9.36468 77.7554 9.23684L73.8513 6.36045C73.4673 6.07281 73.6913 5.43361 74.1393 5.43361H78.9394C79.1634 5.43361 79.3234 5.36969 79.3874 5.14597L80.8914 0.320027C81.0194 -0.127412 81.6594 -0.0954521 81.7874 0.351987ZM81.3394 3.45241C81.3352 3.88953 81.3352 10.081 81.3352 10.3855C81.3949 10.4341 82.2738 11.0866 83.9719 12.3428C84.1958 12.5106 84.4758 12.2869 84.4011 12.026L83.3539 9.27481C83.2423 9.02874 83.3539 8.86849 83.492 8.78418L85.6888 7.25367C85.9127 7.08593 85.8008 6.71316 85.5208 6.71316H82.9418C82.8298 6.71316 82.5358 6.67581 82.456 6.38841L81.6018 3.65737C81.5648 3.528 81.4505 3.45819 81.3394 3.45241Z" fill="#FFD630"/>
</svg>
