<svg width="26" height="25" viewBox="0 0 26 25" fill="none" xmlns="http://www.w3.org/2000/svg">
<path d="M20.0489 4.65773C19.7592 4.41101 19.3538 4.43245 19.0081 4.56762C18.4766 2.06283 16.3723 0.0261037 13.4885 0.000183231C10.97 -0.0223445 8.65981 2.03555 7.88369 4.44507C7.77091 4.36704 7.62068 4.32972 7.49216 4.33976C7.11421 4.36935 6.81172 4.6751 6.65864 5.00555C6.4947 5.35948 6.42739 5.79294 6.64167 6.1428C6.84768 6.47922 7.24463 6.59389 7.62842 6.581C7.67388 7.0815 7.79534 7.57602 8.00962 8.05006C8.09213 8.23218 8.40793 8.14478 8.38934 7.94719C8.25295 6.49401 8.5051 4.97434 9.14687 3.71129C10.7196 3.55794 11.7427 5.30981 13.3187 5.34008C14.9916 5.3721 16.353 4.23513 17.9963 4.09426C18.3824 5.28918 18.3793 6.63854 17.91 7.83659C17.7142 8.33681 18.518 8.55055 18.7119 8.05766C18.8692 7.65786 18.9789 7.25304 19.0486 6.84849C19.2797 7.12465 19.6794 6.86843 19.853 6.66745C20.0905 6.39237 20.2403 6.02161 20.2955 5.66524C20.3486 5.32257 20.3362 4.90228 20.0489 4.65773Z" fill="#2A2A2A"/>
<path d="M22.5364 12.3586C22.5116 11.4882 22.3904 10.6316 22.5235 9.76288C22.5503 9.5889 22.5129 9.37543 22.3315 9.29075C19.2703 7.86498 15.6896 9.66435 12.8413 10.9265C10.7718 8.71493 6.9977 7.80921 4.08822 8.56592C3.98047 8.5282 3.85073 8.54815 3.75587 8.63052C3.33544 8.99531 3.48472 9.78907 3.53168 10.2798C3.59953 10.9881 3.71353 11.7213 3.87231 12.4144C3.87869 12.4426 3.89199 12.4659 3.90814 12.4862C3.87068 12.6105 3.92388 12.7498 4.03462 12.8343C4.99517 13.5664 5.68783 14.1516 6.17801 15.3257C7.12038 17.5835 6.11477 19.6914 3.76659 20.287C3.59261 20.3311 3.46667 20.5013 3.46789 20.6792C3.47129 21.1564 3.33164 21.9731 3.80934 22.2656C3.91777 22.332 4.05321 22.3194 4.15445 22.2545C6.09387 22.3304 8.02719 22.1785 9.88003 22.8698C10.5795 23.1308 11.2633 23.4325 11.9307 23.7666C12.1608 23.8818 12.3821 24.0113 12.5976 24.1515C12.6736 24.1968 12.7378 24.2545 12.79 24.3245C12.7934 24.3295 12.7957 24.3329 12.7989 24.3377C12.8297 24.5025 13.01 24.6387 13.1784 24.5803C13.4416 24.4892 13.5579 24.3704 13.5731 24.2363C14.0027 24.1702 14.3445 23.9543 14.7455 23.7662C15.4461 23.4374 16.1977 23.2183 16.9468 23.0324C18.5292 22.6399 20.1957 22.5403 21.8083 22.7884C22.0738 22.8292 22.3405 22.6802 22.3406 22.383C22.3407 21.9663 22.4832 21.271 22.2248 20.9016C22.0909 20.7103 21.8607 20.6829 21.6972 20.8157C21.5588 20.808 21.4252 20.8217 21.2618 20.8323C20.7162 20.8676 20.315 20.3975 20.0316 20.0015C19.5189 19.2848 19.2554 18.331 19.2208 17.4591C19.1708 16.203 19.7852 14.8736 20.705 14.0502C21.1788 13.6261 21.8815 13.5826 22.3475 13.1652C22.3459 13.1643 22.3444 13.1633 22.3428 13.1625C22.3624 13.1433 22.3817 13.1216 22.4015 13.0955C22.5049 12.9592 22.4585 12.8067 22.3562 12.7021C22.4644 12.6396 22.5413 12.5252 22.5364 12.3586ZM19.6294 13.9657C18.7238 14.9572 18.2377 16.6656 18.4365 17.9893C18.6121 19.158 19.0834 20.4025 20.0239 21.166C20.3866 21.4603 20.9933 21.6548 21.4619 21.5311C21.4596 21.6558 21.4653 21.7832 21.4735 21.907C19.9995 21.7481 18.5448 21.8516 17.0848 22.1685C16.0228 22.399 14.0972 22.8951 13.4344 23.8921C13.3847 23.8313 13.3218 23.7694 13.2521 23.7074C13.6099 19.7913 13.3653 15.7812 13.3218 11.8573C13.3185 11.5689 12.877 11.5689 12.8743 11.8573C12.8384 15.7122 12.767 19.6131 12.946 23.4678C12.3147 23.0256 11.4161 22.6262 11.2693 22.5635C8.94703 21.5712 6.80892 21.5509 4.33223 21.6962C4.33657 21.4633 4.31241 21.2188 4.29518 20.9846C6.17394 20.4135 7.37863 18.9636 7.33141 16.9165C7.30426 15.7432 6.81069 14.4601 6.04569 13.5744C5.68796 13.1601 5.39619 12.8797 4.90967 12.642C4.71181 12.5452 4.50987 12.4558 4.30916 12.3654C4.30088 12.3616 4.29464 12.3594 4.28704 12.3561C4.39072 11.7429 4.30644 11.1075 4.266 10.4912C4.24402 10.1568 4.23194 9.82381 4.24483 9.48888C4.2508 9.33268 4.28242 9.20199 4.2945 9.06805C7.13056 8.81115 10.2535 9.4825 12.3099 11.5427C12.4998 11.7328 12.7368 11.6787 12.8769 11.5294C15.5865 10.785 18.8218 8.76609 21.6725 9.91067C21.5964 10.729 21.6775 11.5285 21.7049 12.3586C21.7081 12.4536 21.7378 12.5311 21.7828 12.5924C20.9854 12.7156 20.1068 13.4429 19.6294 13.9657Z" fill="#2A2A2A"/>
<path d="M4.20217 15.3704C4.49164 14.7371 4.52706 13.9048 3.8724 13.4882C2.8733 12.8524 1.965 13.4877 1.23176 14.2174C0.464055 14.9814 -0.170929 16.1187 0.0414558 17.2402C0.153823 17.8338 0.430942 18.3117 0.806314 18.7075C1.23339 19.2656 1.82861 19.6932 2.47608 19.8224C2.51395 19.83 2.55059 19.8298 2.58601 19.8257C3.75881 20.1158 4.66643 19.2468 4.25605 18.1516C5.4317 17.5167 5.40727 15.9327 4.20217 15.3704ZM3.36484 15.3858C3.34272 15.416 3.33037 15.4498 3.32209 15.4845C3.31599 15.4838 3.31015 15.4859 3.30404 15.4856C3.55036 14.9624 3.71049 14.4258 3.6136 13.9884C3.85774 14.3445 3.48318 15.2245 3.36484 15.3858Z" fill="#2A2A2A"/>
<path d="M22.3218 13.3009C21.1654 13.5339 20.487 15.2003 21.4454 15.79C20.5804 16.3249 20.3774 17.4692 21.2869 17.9977C20.7818 18.6768 21.5431 19.5934 22.5579 19.8902C24.3579 20.4167 25.895 18.3147 25.993 16.742C26.1219 14.6732 24.4476 12.8725 22.3218 13.3009Z" fill="#2A2A2A"/>
</svg>
