<svg width="24" height="25" viewBox="0 0 24 25" fill="none" xmlns="http://www.w3.org/2000/svg">
<path d="M12 0C5.36766 0 0 5.57308 0 12.4607C0 19.3476 5.36695 24.9213 12 24.9213C18.6324 24.9213 24 19.3482 24 12.4607C24 5.57366 18.633 0 12 0ZM12 23.296C6.24628 23.296 1.5652 18.4353 1.5652 12.4607C1.5652 6.48601 6.24619 1.62529 12 1.62529C17.7538 1.62529 22.4348 6.48606 22.4348 12.4607C22.4348 18.4352 17.7537 23.296 12 23.296Z" fill="#9F0DA4"/>
<path d="M16.7897 11.7572L9.4876 7.37605C8.96598 7.06327 8.31348 7.45539 8.31348 8.07969V16.8421C8.31348 17.471 8.9702 17.8561 9.4876 17.5457L16.7897 13.1645C17.3108 12.8518 17.3101 12.0695 16.7897 11.7572ZM9.87868 15.434V9.48779L14.8339 12.4609L9.87868 15.434Z" fill="#9F0DA4"/>
</svg>
