<svg width="105" height="171" viewBox="0 0 105 171" fill="none" xmlns="http://www.w3.org/2000/svg">
<path d="M81.2126 62.8453C81.2126 74.4704 81.393 86.0955 81.2126 97.7005C81.0336 103.319 79.1916 108.757 75.9198 113.328C72.6479 117.898 68.0934 121.395 62.833 123.376C58.9329 124.919 54.7474 125.608 50.5586 125.396C46.3698 125.185 42.2751 124.078 38.5503 122.15C34.8255 120.222 31.5573 117.518 28.966 114.22C26.3746 110.922 24.5203 107.107 23.5281 103.032C23.0134 100.757 22.7778 98.4286 22.8266 96.097C22.8266 73.8691 22.9669 51.6411 22.8266 29.4331C22.7987 21.9849 25.6062 14.8052 30.6792 9.35152C35.7522 3.89789 42.7104 0.579099 50.1412 0.0689173C57.572 -0.441265 64.9184 1.8954 70.6891 6.60453C76.4599 11.3137 80.2223 18.0423 81.2126 25.4245C81.3601 26.9966 81.4069 28.5766 81.3529 30.1547C81.3529 41.0582 81.3529 51.9751 81.3529 62.9054L81.2126 62.8453Z" fill="#FF0000"/>
<path d="M57.7821 147.689V159.514H59.7864C64.8373 159.514 69.808 159.514 74.919 159.514C75.6765 159.448 76.4396 159.533 77.164 159.764C77.8884 159.995 78.5599 160.368 79.1396 160.86C79.7192 161.352 80.1956 161.954 80.5411 162.631C80.8866 163.308 81.0944 164.047 81.1525 164.806C81.2905 166.224 80.8757 167.641 79.9944 168.762C79.1132 169.882 77.8335 170.619 76.4223 170.819C75.6746 170.949 74.9163 171.009 74.1574 170.999H29.962C29.0808 171.01 28.2008 170.93 27.3363 170.758C26.0716 170.483 24.9394 169.783 24.1274 168.774C23.3155 167.766 22.8728 166.511 22.8728 165.216C22.8728 163.922 23.3155 162.667 24.1274 161.659C24.9394 160.65 26.0716 159.95 27.3363 159.675C28.2039 159.532 29.0836 159.479 29.962 159.514C35.3135 159.514 40.6851 159.514 46.197 159.514V148.009C42.0607 147.096 37.9788 145.952 33.9706 144.582C15.2903 137.126 3.74539 123.637 0.518425 103.593C0.245372 101.6 0.0914344 99.5922 0.0574304 97.5805C-0.0257179 96.8102 0.0509587 96.031 0.282667 95.2917C0.514376 94.5523 0.896132 93.8688 1.40406 93.2837C1.91199 92.6987 2.53517 92.2247 3.23462 91.8914C3.93408 91.5582 4.69477 91.3729 5.46911 91.347C6.27094 91.3004 7.07354 91.424 7.82419 91.7097C8.57483 91.9954 9.25652 92.4367 9.82445 93.0047C10.3924 93.5726 10.8337 94.2543 11.1194 95.0049C11.4051 95.7556 11.5287 96.5582 11.4821 97.36C11.554 104.789 13.7974 112.035 17.936 118.205C22.0847 124.575 27.935 129.656 34.8237 132.87C41.7124 136.085 49.3639 137.306 56.911 136.394C64.4581 135.482 71.5987 132.474 77.5235 127.711C83.4484 122.948 87.9203 116.621 90.4325 109.446C91.5906 105.405 92.3162 101.253 92.5972 97.0593C93.0582 92.6899 96.9666 89.964 100.755 91.7479C101.818 92.1934 102.714 92.9609 103.318 93.9424C103.922 94.9239 104.203 96.0701 104.122 97.2197C104.087 104.532 102.44 111.747 99.2978 118.351C96.1556 124.954 91.5956 130.783 85.9428 135.422C78.509 141.856 69.3663 145.992 59.626 147.328C58.9846 147.408 58.4435 147.689 57.7821 147.689Z" fill="#FF0000"/>
</svg>
